%TF.GenerationSoftware,KiCad,Pcbnew,(7.0.0)*%
%TF.CreationDate,2023-06-28T20:41:30+03:00*%
%TF.ProjectId,Atego_Nano,41746567-6f5f-44e6-916e-6f2e6b696361,rev?*%
%TF.SameCoordinates,Original*%
%TF.FileFunction,Soldermask,Top*%
%TF.FilePolarity,Negative*%
%FSLAX46Y46*%
G04 Gerber Fmt 4.6, Leading zero omitted, Abs format (unit mm)*
G04 Created by KiCad (PCBNEW (7.0.0)) date 2023-06-28 20:41:30*
%MOMM*%
%LPD*%
G01*
G04 APERTURE LIST*
G04 Aperture macros list*
%AMRoundRect*
0 Rectangle with rounded corners*
0 $1 Rounding radius*
0 $2 $3 $4 $5 $6 $7 $8 $9 X,Y pos of 4 corners*
0 Add a 4 corners polygon primitive as box body*
4,1,4,$2,$3,$4,$5,$6,$7,$8,$9,$2,$3,0*
0 Add four circle primitives for the rounded corners*
1,1,$1+$1,$2,$3*
1,1,$1+$1,$4,$5*
1,1,$1+$1,$6,$7*
1,1,$1+$1,$8,$9*
0 Add four rect primitives between the rounded corners*
20,1,$1+$1,$2,$3,$4,$5,0*
20,1,$1+$1,$4,$5,$6,$7,0*
20,1,$1+$1,$6,$7,$8,$9,0*
20,1,$1+$1,$8,$9,$2,$3,0*%
%AMRotRect*
0 Rectangle, with rotation*
0 The origin of the aperture is its center*
0 $1 length*
0 $2 width*
0 $3 Rotation angle, in degrees counterclockwise*
0 Add horizontal line*
21,1,$1,$2,0,0,$3*%
G04 Aperture macros list end*
%ADD10R,0.280000X0.850000*%
%ADD11R,0.700000X0.280000*%
%ADD12R,2.400000X1.650000*%
%ADD13RoundRect,0.200000X0.275000X-0.200000X0.275000X0.200000X-0.275000X0.200000X-0.275000X-0.200000X0*%
%ADD14RoundRect,0.225000X0.225000X0.250000X-0.225000X0.250000X-0.225000X-0.250000X0.225000X-0.250000X0*%
%ADD15RoundRect,0.200000X-0.200000X-0.275000X0.200000X-0.275000X0.200000X0.275000X-0.200000X0.275000X0*%
%ADD16RoundRect,0.250000X-0.312500X-1.450000X0.312500X-1.450000X0.312500X1.450000X-0.312500X1.450000X0*%
%ADD17RoundRect,0.225000X0.250000X-0.225000X0.250000X0.225000X-0.250000X0.225000X-0.250000X-0.225000X0*%
%ADD18R,0.700000X0.700000*%
%ADD19RoundRect,0.147500X0.147500X0.172500X-0.147500X0.172500X-0.147500X-0.172500X0.147500X-0.172500X0*%
%ADD20RoundRect,0.150000X0.587500X0.150000X-0.587500X0.150000X-0.587500X-0.150000X0.587500X-0.150000X0*%
%ADD21R,1.600000X0.550000*%
%ADD22R,0.550000X1.600000*%
%ADD23RoundRect,0.112500X0.112500X-0.187500X0.112500X0.187500X-0.112500X0.187500X-0.112500X-0.187500X0*%
%ADD24RoundRect,0.112500X-0.112500X0.187500X-0.112500X-0.187500X0.112500X-0.187500X0.112500X0.187500X0*%
%ADD25RoundRect,0.150000X0.200000X-0.150000X0.200000X0.150000X-0.200000X0.150000X-0.200000X-0.150000X0*%
%ADD26RoundRect,0.200000X-0.275000X0.200000X-0.275000X-0.200000X0.275000X-0.200000X0.275000X0.200000X0*%
%ADD27RoundRect,0.225000X-0.225000X-0.250000X0.225000X-0.250000X0.225000X0.250000X-0.225000X0.250000X0*%
%ADD28RoundRect,0.150000X-0.587500X-0.150000X0.587500X-0.150000X0.587500X0.150000X-0.587500X0.150000X0*%
%ADD29R,1.500000X2.500000*%
%ADD30R,0.500000X0.250000*%
%ADD31R,0.900000X1.600000*%
%ADD32R,1.700000X1.700000*%
%ADD33O,1.700000X1.700000*%
%ADD34R,0.375000X0.500000*%
%ADD35R,0.300000X0.650000*%
%ADD36RoundRect,0.140000X-0.140000X-0.170000X0.140000X-0.170000X0.140000X0.170000X-0.140000X0.170000X0*%
%ADD37RotRect,0.900000X0.800000X45.000000*%
%ADD38RoundRect,0.200000X0.200000X0.275000X-0.200000X0.275000X-0.200000X-0.275000X0.200000X-0.275000X0*%
%ADD39R,1.400000X0.300000*%
%ADD40RoundRect,0.147500X-0.147500X-0.172500X0.147500X-0.172500X0.147500X0.172500X-0.147500X0.172500X0*%
%ADD41RoundRect,0.225000X0.017678X-0.335876X0.335876X-0.017678X-0.017678X0.335876X-0.335876X0.017678X0*%
%ADD42RoundRect,0.225000X-0.250000X0.225000X-0.250000X-0.225000X0.250000X-0.225000X0.250000X0.225000X0*%
%ADD43RoundRect,0.225000X-0.335876X-0.017678X-0.017678X-0.335876X0.335876X0.017678X0.017678X0.335876X0*%
%ADD44RoundRect,0.150000X-0.512500X-0.150000X0.512500X-0.150000X0.512500X0.150000X-0.512500X0.150000X0*%
%ADD45R,0.900000X1.700000*%
%ADD46R,3.600000X1.150000*%
%ADD47RoundRect,0.218750X-0.256250X0.218750X-0.256250X-0.218750X0.256250X-0.218750X0.256250X0.218750X0*%
%ADD48C,0.600000*%
%ADD49R,1.000000X2.000000*%
%ADD50O,0.850000X0.600000*%
%ADD51R,0.520000X1.000000*%
%ADD52R,0.270000X1.000000*%
%ADD53O,1.300000X2.300000*%
%ADD54O,1.300000X2.600000*%
G04 APERTURE END LIST*
D10*
%TO.C,U501*%
X159788799Y-97076799D03*
X159288799Y-97076799D03*
X158788799Y-97076799D03*
X158288799Y-97076799D03*
X157788799Y-97076799D03*
X157788799Y-100026799D03*
X158288799Y-100026799D03*
X158788799Y-100026799D03*
X159288799Y-100026799D03*
X159788799Y-100026799D03*
D11*
X160338799Y-98301799D03*
X157238799Y-98301799D03*
D12*
X158788799Y-98551799D03*
D11*
X160338799Y-98801799D03*
X157238799Y-98801799D03*
%TD*%
D13*
%TO.C,R603*%
X144250600Y-83767000D03*
X144250600Y-82117000D03*
%TD*%
D14*
%TO.C,C302*%
X158018000Y-104989200D03*
X156468000Y-104989200D03*
%TD*%
D15*
%TO.C,R303*%
X156405000Y-109002400D03*
X158055000Y-109002400D03*
%TD*%
D14*
%TO.C,C501*%
X159478200Y-101484000D03*
X157928200Y-101484000D03*
%TD*%
D16*
%TO.C,F101*%
X156772800Y-73036000D03*
X161047800Y-73036000D03*
%TD*%
D17*
%TO.C,C702*%
X154131200Y-80008600D03*
X154131200Y-78458600D03*
%TD*%
D18*
%TO.C,D602*%
X142255599Y-74761999D03*
X143355599Y-74761999D03*
X143355599Y-72931999D03*
X142255599Y-72931999D03*
%TD*%
D19*
%TO.C,D502*%
X158050700Y-95859600D03*
X157080700Y-95859600D03*
%TD*%
%TO.C,D201*%
X156673600Y-79995600D03*
X155703600Y-79995600D03*
%TD*%
D20*
%TO.C,Q202*%
X140108100Y-110409600D03*
X140108100Y-108509600D03*
X138233100Y-109459600D03*
%TD*%
D13*
%TO.C,R602*%
X144225200Y-86764200D03*
X144225200Y-85114200D03*
%TD*%
D15*
%TO.C,R605*%
X141076600Y-87971200D03*
X142726600Y-87971200D03*
%TD*%
D21*
%TO.C,U601*%
X154723599Y-94479599D03*
X154723599Y-93679599D03*
X154723599Y-92879599D03*
X154723599Y-92079599D03*
X154723599Y-91279599D03*
X154723599Y-90479599D03*
X154723599Y-89679599D03*
X154723599Y-88879599D03*
D22*
X153273599Y-87429599D03*
X152473599Y-87429599D03*
X151673599Y-87429599D03*
X150873599Y-87429599D03*
X150073599Y-87429599D03*
X149273599Y-87429599D03*
X148473599Y-87429599D03*
X147673599Y-87429599D03*
D21*
X146223599Y-88879599D03*
X146223599Y-89679599D03*
X146223599Y-90479599D03*
X146223599Y-91279599D03*
X146223599Y-92079599D03*
X146223599Y-92879599D03*
X146223599Y-93679599D03*
X146223599Y-94479599D03*
D22*
X147673599Y-95929599D03*
X148473599Y-95929599D03*
X149273599Y-95929599D03*
X150073599Y-95929599D03*
X150873599Y-95929599D03*
X151673599Y-95929599D03*
X152473599Y-95929599D03*
X153273599Y-95929599D03*
%TD*%
D23*
%TO.C,D101*%
X162919600Y-75110600D03*
X162919600Y-73010600D03*
%TD*%
D24*
%TO.C,D401*%
X145622200Y-103490600D03*
X145622200Y-105590600D03*
%TD*%
D25*
%TO.C,D203*%
X141814000Y-108443600D03*
X141814000Y-109843600D03*
%TD*%
D17*
%TO.C,C303*%
X154791600Y-106767200D03*
X154791600Y-105217200D03*
%TD*%
D26*
%TO.C,R604*%
X144250600Y-79107600D03*
X144250600Y-80757600D03*
%TD*%
D27*
%TO.C,C603*%
X156518800Y-91146200D03*
X158068800Y-91146200D03*
%TD*%
D28*
%TO.C,Q201*%
X149727100Y-107747600D03*
X149727100Y-109647600D03*
X151602100Y-108697600D03*
%TD*%
D26*
%TO.C,R102*%
X148594000Y-78408600D03*
X148594000Y-80058600D03*
%TD*%
D29*
%TO.C,L401*%
X144463999Y-100396799D03*
X140763999Y-100396799D03*
%TD*%
D14*
%TO.C,C701*%
X151248600Y-85228000D03*
X149698600Y-85228000D03*
%TD*%
%TO.C,C601*%
X144466800Y-89901600D03*
X142916800Y-89901600D03*
%TD*%
D15*
%TO.C,R402*%
X139864600Y-106487800D03*
X138214600Y-106487800D03*
%TD*%
D26*
%TO.C,R301*%
X154791600Y-108162600D03*
X154791600Y-109812600D03*
%TD*%
D19*
%TO.C,D702*%
X156673600Y-84694600D03*
X155703600Y-84694600D03*
%TD*%
D30*
%TO.C,U301*%
X156279999Y-106264799D03*
X156279999Y-106764799D03*
X156279999Y-107264799D03*
X156279999Y-107764799D03*
X158179999Y-107764799D03*
X158179999Y-107264799D03*
X158179999Y-106764799D03*
X158179999Y-106264799D03*
D31*
X157229999Y-107014799D03*
%TD*%
D32*
%TO.C,J603*%
X141659799Y-85431199D03*
D33*
X139119799Y-85431199D03*
X141659799Y-82891199D03*
X139119799Y-82891199D03*
X141659799Y-80351199D03*
X139119799Y-80351199D03*
%TD*%
D34*
%TO.C,U101*%
X151011099Y-78383599D03*
D35*
X150473599Y-78308599D03*
D34*
X149936099Y-78383599D03*
X149936099Y-80083599D03*
D35*
X150473599Y-80158599D03*
D34*
X151011099Y-80083599D03*
%TD*%
D36*
%TO.C,C609*%
X142325600Y-75830600D03*
X143285600Y-75830600D03*
%TD*%
D37*
%TO.C,Y601*%
X159737899Y-89585282D03*
X160727848Y-88595333D03*
X159950031Y-87817516D03*
X158960082Y-88807465D03*
%TD*%
D13*
%TO.C,R503*%
X155883800Y-99996800D03*
X155883800Y-98346800D03*
%TD*%
D19*
%TO.C,D701*%
X156673600Y-78852600D03*
X155703600Y-78852600D03*
%TD*%
D13*
%TO.C,R201*%
X158982600Y-77391600D03*
X158982600Y-75741600D03*
%TD*%
D26*
%TO.C,R401*%
X138281600Y-103432600D03*
X138281600Y-105082600D03*
%TD*%
D13*
%TO.C,R203*%
X144860200Y-110056000D03*
X144860200Y-108406000D03*
%TD*%
D15*
%TO.C,R601*%
X149648600Y-104227200D03*
X151298600Y-104227200D03*
%TD*%
D38*
%TO.C,R702*%
X159667400Y-81621200D03*
X158017400Y-81621200D03*
%TD*%
%TO.C,R502*%
X163486600Y-95541600D03*
X161836600Y-95541600D03*
%TD*%
D39*
%TO.C,U701*%
X148273599Y-81637199D03*
X148273599Y-82137199D03*
X148273599Y-82637199D03*
X148273599Y-83137199D03*
X148273599Y-83637199D03*
X152673599Y-83637199D03*
X152673599Y-83137199D03*
X152673599Y-82637199D03*
X152673599Y-82137199D03*
X152673599Y-81637199D03*
%TD*%
D23*
%TO.C,D202*%
X147781200Y-109857800D03*
X147781200Y-107757800D03*
%TD*%
D40*
%TO.C,D501*%
X159484200Y-95859600D03*
X160454200Y-95859600D03*
%TD*%
D13*
%TO.C,R701*%
X156823600Y-77391600D03*
X156823600Y-75741600D03*
%TD*%
D41*
%TO.C,C607*%
X160745992Y-90703608D03*
X161842008Y-89607592D03*
%TD*%
D15*
%TO.C,R302*%
X156405000Y-110499400D03*
X158055000Y-110499400D03*
%TD*%
D26*
%TO.C,R101*%
X152353200Y-78408600D03*
X152353200Y-80058600D03*
%TD*%
D14*
%TO.C,C606*%
X151248600Y-102754000D03*
X149698600Y-102754000D03*
%TD*%
D42*
%TO.C,C402*%
X143361600Y-108443600D03*
X143361600Y-109993600D03*
%TD*%
D43*
%TO.C,C608*%
X160847592Y-86559592D03*
X161943608Y-87655608D03*
%TD*%
D44*
%TO.C,U401*%
X141456600Y-105019600D03*
X141456600Y-105969600D03*
X141456600Y-106919600D03*
X143731600Y-106919600D03*
X143731600Y-105969600D03*
X143731600Y-105019600D03*
%TD*%
D45*
%TO.C,SW601*%
X148773599Y-100264799D03*
X152173599Y-100264799D03*
%TD*%
D46*
%TO.C,L301*%
X161090799Y-103817199D03*
X161090799Y-106767199D03*
%TD*%
D27*
%TO.C,C401*%
X141839000Y-103495600D03*
X143389000Y-103495600D03*
%TD*%
D14*
%TO.C,C102*%
X162932600Y-79894000D03*
X161382600Y-79894000D03*
%TD*%
D27*
%TO.C,C602*%
X156518800Y-92670200D03*
X158068800Y-92670200D03*
%TD*%
D42*
%TO.C,C604*%
X144377600Y-91349400D03*
X144377600Y-92899400D03*
%TD*%
D38*
%TO.C,R501*%
X163486600Y-94017600D03*
X161836600Y-94017600D03*
%TD*%
D47*
%TO.C,FB101*%
X162932600Y-76871300D03*
X162932600Y-78446300D03*
%TD*%
D18*
%TO.C,D601*%
X138493599Y-74761999D03*
X139593599Y-74761999D03*
X139593599Y-72931999D03*
X138493599Y-72931999D03*
%TD*%
D42*
%TO.C,C502*%
X161725800Y-97076800D03*
X161725800Y-98626800D03*
%TD*%
D17*
%TO.C,C605*%
X146536600Y-83209000D03*
X146536600Y-81659000D03*
%TD*%
D38*
%TO.C,R704*%
X156023000Y-81621200D03*
X154373000Y-81621200D03*
%TD*%
D48*
%TO.C,J101*%
X153473600Y-75341600D03*
D49*
X151873599Y-72241599D03*
X149073599Y-72241599D03*
D50*
X147473599Y-75341599D03*
D51*
X153573599Y-76441599D03*
X152823599Y-76441599D03*
D52*
X152223599Y-76441599D03*
X150723599Y-76441599D03*
X149723599Y-76441599D03*
X148723599Y-76441599D03*
D51*
X148123599Y-76441599D03*
X147373599Y-76441599D03*
X147373599Y-76441599D03*
X148123599Y-76441599D03*
D52*
X149223599Y-76441599D03*
X150223599Y-76441599D03*
X151223599Y-76441599D03*
X151723599Y-76441599D03*
D51*
X152823599Y-76441599D03*
X153573599Y-76441599D03*
D53*
X154793599Y-76066599D03*
D54*
X154793599Y-72241599D03*
D53*
X146153599Y-76066599D03*
D54*
X146153599Y-72241599D03*
%TD*%
D15*
%TO.C,R202*%
X149712600Y-106157600D03*
X151362600Y-106157600D03*
%TD*%
D42*
%TO.C,C101*%
X161459400Y-76883800D03*
X161459400Y-78433800D03*
%TD*%
%TO.C,C403*%
X139769200Y-103469600D03*
X139769200Y-105019600D03*
%TD*%
%TO.C,C301*%
X153318400Y-108212600D03*
X153318400Y-109762600D03*
%TD*%
D19*
%TO.C,D703*%
X156673600Y-85685200D03*
X155703600Y-85685200D03*
%TD*%
D38*
%TO.C,R705*%
X156023000Y-83145200D03*
X154373000Y-83145200D03*
%TD*%
%TO.C,R703*%
X159680600Y-83145200D03*
X158030600Y-83145200D03*
%TD*%
D36*
%TO.C,C610*%
X138563600Y-75830600D03*
X139523600Y-75830600D03*
%TD*%
D32*
%TO.C,J602*%
X165509999Y-73929599D03*
D33*
X165509999Y-76469599D03*
X165509999Y-79009599D03*
X165509999Y-81549599D03*
X165509999Y-84089599D03*
X165509999Y-86629599D03*
X165509999Y-89169599D03*
X165509999Y-91709599D03*
X165509999Y-94249599D03*
X165509999Y-96789599D03*
X165509999Y-99329599D03*
X165509999Y-101869599D03*
X165509999Y-104409599D03*
X165509999Y-106949599D03*
X165509999Y-109489599D03*
%TD*%
D32*
%TO.C,J601*%
X135462199Y-73899599D03*
D33*
X135462199Y-76439599D03*
X135462199Y-78979599D03*
X135462199Y-81519599D03*
X135462199Y-84059599D03*
X135462199Y-86599599D03*
X135462199Y-89139599D03*
X135462199Y-91679599D03*
X135462199Y-94219599D03*
X135462199Y-96759599D03*
X135462199Y-99299599D03*
X135462199Y-101839599D03*
X135462199Y-104379599D03*
X135462199Y-106919599D03*
X135462199Y-109459599D03*
%TD*%
M02*
