%TF.GenerationSoftware,KiCad,Pcbnew,(7.0.0)*%
%TF.CreationDate,2023-06-28T20:41:30+03:00*%
%TF.ProjectId,Atego_Nano,41746567-6f5f-44e6-916e-6f2e6b696361,rev?*%
%TF.SameCoordinates,Original*%
%TF.FileFunction,Copper,L2,Bot*%
%TF.FilePolarity,Positive*%
%FSLAX46Y46*%
G04 Gerber Fmt 4.6, Leading zero omitted, Abs format (unit mm)*
G04 Created by KiCad (PCBNEW (7.0.0)) date 2023-06-28 20:41:30*
%MOMM*%
%LPD*%
G01*
G04 APERTURE LIST*
%TA.AperFunction,ComponentPad*%
%ADD10C,0.600000*%
%TD*%
%TA.AperFunction,SMDPad,CuDef*%
%ADD11R,2.400000X1.650000*%
%TD*%
%TA.AperFunction,ComponentPad*%
%ADD12R,1.700000X1.700000*%
%TD*%
%TA.AperFunction,ComponentPad*%
%ADD13O,1.700000X1.700000*%
%TD*%
%TA.AperFunction,ComponentPad*%
%ADD14O,1.300000X2.300000*%
%TD*%
%TA.AperFunction,ComponentPad*%
%ADD15O,1.300000X2.600000*%
%TD*%
%TA.AperFunction,ViaPad*%
%ADD16C,0.600000*%
%TD*%
%TA.AperFunction,Conductor*%
%ADD17C,0.250000*%
%TD*%
%TA.AperFunction,Conductor*%
%ADD18C,0.500000*%
%TD*%
%TA.AperFunction,Conductor*%
%ADD19C,0.750000*%
%TD*%
G04 APERTURE END LIST*
D10*
%TO.P,U501,11,VSS*%
%TO.N,GND*%
X159648800Y-98071800D03*
X157928800Y-98071800D03*
X158788800Y-98551800D03*
D11*
X158788799Y-98551799D03*
D10*
X159648800Y-99031800D03*
X157928800Y-99031800D03*
%TD*%
D12*
%TO.P,J603,1,Pin_1*%
%TO.N,/MCU_ATMEGA328P-AU/MISO*%
X141659799Y-85431199D03*
D13*
%TO.P,J603,2,Pin_2*%
%TO.N,+5V*%
X139119799Y-85431199D03*
%TO.P,J603,3,Pin_3*%
%TO.N,/MCU_ATMEGA328P-AU/SCK*%
X141659799Y-82891199D03*
%TO.P,J603,4,Pin_4*%
%TO.N,/MCU_ATMEGA328P-AU/MOSI*%
X139119799Y-82891199D03*
%TO.P,J603,5,Pin_5*%
%TO.N,/MCU_ATMEGA328P-AU/RESET*%
X141659799Y-80351199D03*
%TO.P,J603,6,Pin_6*%
%TO.N,GND*%
X139119799Y-80351199D03*
%TD*%
D14*
%TO.P,J101,S1,SHIELD*%
%TO.N,GND*%
X154793599Y-76066599D03*
D15*
X154793599Y-72241599D03*
D14*
X146153599Y-76066599D03*
D15*
X146153599Y-72241599D03*
%TD*%
D12*
%TO.P,J602,1,Pin_1*%
%TO.N,/MCU_ATMEGA328P-AU/D12*%
X165509999Y-73929599D03*
D13*
%TO.P,J602,2,Pin_2*%
%TO.N,/MCU_ATMEGA328P-AU/D11*%
X165509999Y-76469599D03*
%TO.P,J602,3,Pin_3*%
%TO.N,/MCU_ATMEGA328P-AU/D10*%
X165509999Y-79009599D03*
%TO.P,J602,4,Pin_4*%
%TO.N,/MCU_ATMEGA328P-AU/ATMEGA_TX*%
X165509999Y-81549599D03*
%TO.P,J602,5,Pin_5*%
%TO.N,/MCU_ATMEGA328P-AU/ATMEGA_RX*%
X165509999Y-84089599D03*
%TO.P,J602,6,Pin_6*%
%TO.N,/MCU_ATMEGA328P-AU/D7*%
X165509999Y-86629599D03*
%TO.P,J602,7,Pin_7*%
%TO.N,/MCU_ATMEGA328P-AU/D6*%
X165509999Y-89169599D03*
%TO.P,J602,8,Pin_8*%
%TO.N,/MCU_ATMEGA328P-AU/D5*%
X165509999Y-91709599D03*
%TO.P,J602,9,Pin_9*%
%TO.N,/MCU_ATMEGA328P-AU/D4*%
X165509999Y-94249599D03*
%TO.P,J602,10,Pin_10*%
%TO.N,/MCU_ATMEGA328P-AU/D3*%
X165509999Y-96789599D03*
%TO.P,J602,11,Pin_11*%
%TO.N,/MCU_ATMEGA328P-AU/D2*%
X165509999Y-99329599D03*
%TO.P,J602,12,Pin_12*%
%TO.N,GND*%
X165509999Y-101869599D03*
%TO.P,J602,13,Pin_13*%
%TO.N,+BATT*%
X165509999Y-104409599D03*
%TO.P,J602,14,Pin_14*%
%TO.N,/MCU_ATMEGA328P-AU/D1*%
X165509999Y-106949599D03*
%TO.P,J602,15,Pin_15*%
%TO.N,/MCU_ATMEGA328P-AU/D0*%
X165509999Y-109489599D03*
%TD*%
D12*
%TO.P,J601,1,Pin_1*%
%TO.N,/MCU_ATMEGA328P-AU/D13*%
X135462199Y-73899599D03*
D13*
%TO.P,J601,2,Pin_2*%
%TO.N,+3V3*%
X135462199Y-76439599D03*
%TO.P,J601,3,Pin_3*%
%TO.N,/MCU_ATMEGA328P-AU/AREF*%
X135462199Y-78979599D03*
%TO.P,J601,4,Pin_4*%
%TO.N,/MCU_ATMEGA328P-AU/A0*%
X135462199Y-81519599D03*
%TO.P,J601,5,Pin_5*%
%TO.N,/MCU_ATMEGA328P-AU/A1*%
X135462199Y-84059599D03*
%TO.P,J601,6,Pin_6*%
%TO.N,/MCU_ATMEGA328P-AU/A2*%
X135462199Y-86599599D03*
%TO.P,J601,7,Pin_7*%
%TO.N,/MCU_ATMEGA328P-AU/A3*%
X135462199Y-89139599D03*
%TO.P,J601,8,Pin_8*%
%TO.N,/MCU_ATMEGA328P-AU/SDA*%
X135462199Y-91679599D03*
%TO.P,J601,9,Pin_9*%
%TO.N,/MCU_ATMEGA328P-AU/SCL*%
X135462199Y-94219599D03*
%TO.P,J601,10,Pin_10*%
%TO.N,/MCU_ATMEGA328P-AU/A6*%
X135462199Y-96759599D03*
%TO.P,J601,11,Pin_11*%
%TO.N,/MCU_ATMEGA328P-AU/A7*%
X135462199Y-99299599D03*
%TO.P,J601,12,Pin_12*%
%TO.N,+5V*%
X135462199Y-101839599D03*
%TO.P,J601,13,Pin_13*%
%TO.N,/MCU_ATMEGA328P-AU/NRST*%
X135462199Y-104379599D03*
%TO.P,J601,14,Pin_14*%
%TO.N,GND*%
X135462199Y-106919599D03*
%TO.P,J601,15,Pin_15*%
%TO.N,VIN_12V*%
X135462199Y-109459599D03*
%TD*%
D16*
%TO.N,GND*%
X148492400Y-89774600D03*
X136779000Y-90424000D03*
X153521600Y-91298600D03*
X162179000Y-88646000D03*
X146003200Y-96150000D03*
X160147000Y-78105000D03*
X148035200Y-92009800D03*
X147320000Y-77597000D03*
X157892877Y-89055100D03*
X145607800Y-106299000D03*
X143310800Y-85939200D03*
X141384085Y-89882915D03*
X139043600Y-73847000D03*
X161497200Y-82383200D03*
X136779000Y-92964000D03*
X147578000Y-84542200D03*
X160379600Y-79868600D03*
X140716000Y-97409000D03*
X142523400Y-105979800D03*
X153521600Y-92873400D03*
X162208400Y-85380400D03*
X142805600Y-73847000D03*
X151997600Y-93838600D03*
X154686000Y-88011000D03*
X146866800Y-86650400D03*
X155198000Y-96785000D03*
X149635400Y-92543200D03*
X146028600Y-108799200D03*
X150067200Y-89774600D03*
%TO.N,/VUSB*%
X161370200Y-101636400D03*
X155956000Y-102235000D03*
%TO.N,+3V3*%
X149610000Y-82815000D03*
%TO.N,/ATEGO_NANO_POWER/5V_BUCK*%
X138789600Y-99426600D03*
X138789600Y-101230000D03*
X138789600Y-100188600D03*
X146511200Y-107757800D03*
%TO.N,+5V*%
X146943000Y-109840600D03*
X148314600Y-104252600D03*
X152708800Y-91247800D03*
%TO.N,/MCU_ATMEGA328P-AU/NRST*%
X148695600Y-94219600D03*
X145469800Y-84974000D03*
%TO.N,/MCU_ATMEGA328P-AU/D13*%
X139573000Y-78486000D03*
X146206400Y-88098200D03*
%TO.N,/MCU_ATMEGA328P-AU/A6*%
X147679600Y-91095400D03*
%TO.N,/MCU_ATMEGA328P-AU/A7*%
X147400200Y-92879600D03*
%TO.N,/MCU_ATMEGA328P-AU/D12*%
X147679600Y-89342800D03*
%TO.N,/MCU_ATMEGA328P-AU/D11*%
X148492400Y-88733200D03*
%TO.N,/MCU_ATMEGA328P-AU/D10*%
X149279800Y-89342800D03*
%TO.N,/MCU_ATMEGA328P-AU/ATMEGA_TX*%
X150073600Y-88733200D03*
X157026800Y-81621200D03*
%TO.N,/MCU_ATMEGA328P-AU/ATMEGA_RX*%
X150880000Y-89342800D03*
X157026800Y-83145200D03*
%TO.N,/MCU_ATMEGA328P-AU/D7*%
X152353091Y-85297091D03*
%TO.N,/MCU_ATMEGA328P-AU/D6*%
X153416000Y-85979000D03*
%TO.N,/MCU_ATMEGA328P-AU/D5*%
X154055000Y-87412400D03*
%TO.N,/MCU_ATMEGA328P-AU/D4*%
X156442600Y-94092600D03*
%TO.N,/MCU_ATMEGA328P-AU/D3*%
X155045600Y-95489600D03*
%TO.N,/MCU_ATMEGA328P-AU/D2*%
X154283600Y-96378600D03*
%TO.N,/MCU_ATMEGA328P-AU/D1*%
X152886600Y-94473600D03*
%TO.N,/MCU_ATMEGA328P-AU/D0*%
X151235600Y-94473600D03*
%TD*%
D17*
%TO.N,/VUSB*%
X156122800Y-102068200D02*
X160938400Y-102068200D01*
X160938400Y-102068200D02*
X161370200Y-101636400D01*
X155956000Y-102235000D02*
X156122800Y-102068200D01*
D18*
%TO.N,+3V3*%
X142320200Y-76439600D02*
X135462200Y-76439600D01*
X149610000Y-82815000D02*
X148695600Y-82815000D01*
X148695600Y-82815000D02*
X142320200Y-76439600D01*
D19*
%TO.N,/ATEGO_NANO_POWER/5V_BUCK*%
X139500800Y-107757800D02*
X146511200Y-107757800D01*
X138789600Y-100188600D02*
X138789600Y-101230000D01*
X138789600Y-107046600D02*
X139500800Y-107757800D01*
X138789600Y-101230000D02*
X138789600Y-107046600D01*
X138789600Y-99426600D02*
X138789600Y-100188600D01*
%TO.N,+5V*%
X136630600Y-101839600D02*
X137138600Y-102347600D01*
D18*
X152708800Y-91267061D02*
X148314600Y-95661261D01*
D19*
X137138600Y-102347600D02*
X137138600Y-107935600D01*
X135462200Y-101839600D02*
X136630600Y-101839600D01*
D18*
X148314600Y-95661261D02*
X148314600Y-104252600D01*
D19*
X137138600Y-107935600D02*
X139043600Y-109840600D01*
D18*
X152708800Y-91247800D02*
X152708800Y-91267061D01*
D19*
X148314600Y-109078600D02*
X148314600Y-104252600D01*
X139043600Y-109840600D02*
X146943000Y-109840600D01*
X146943000Y-109840600D02*
X147552600Y-109840600D01*
X147552600Y-109840600D02*
X148314600Y-109078600D01*
D17*
%TO.N,/MCU_ATMEGA328P-AU/NRST*%
X146348800Y-89967800D02*
X144250600Y-87869600D01*
X133811200Y-90993800D02*
X133811200Y-103998600D01*
X133836600Y-90968400D02*
X133811200Y-90993800D01*
X133811200Y-103998600D02*
X134192200Y-104379600D01*
X134370000Y-87869600D02*
X133836600Y-88403000D01*
X146348800Y-89967800D02*
X145469800Y-89088800D01*
X148695600Y-94219600D02*
X148695600Y-91227516D01*
X133836600Y-88403000D02*
X133836600Y-90968400D01*
X145469800Y-89088800D02*
X145469800Y-84974000D01*
X134192200Y-104379600D02*
X135462200Y-104379600D01*
X144250600Y-87869600D02*
X134370000Y-87869600D01*
X148695600Y-91227516D02*
X147435884Y-89967800D01*
X147435884Y-89967800D02*
X146348800Y-89967800D01*
%TO.N,/MCU_ATMEGA328P-AU/D13*%
X146206400Y-82688000D02*
X146206400Y-88098200D01*
X142004400Y-78486000D02*
X146206400Y-82688000D01*
X139573000Y-78486000D02*
X142004400Y-78486000D01*
%TO.N,/MCU_ATMEGA328P-AU/A6*%
X147070000Y-90485800D02*
X141812200Y-90485800D01*
X147679600Y-91095400D02*
X147070000Y-90485800D01*
X141812200Y-90485800D02*
X135538400Y-96759600D01*
X135538400Y-96759600D02*
X135462200Y-96759600D01*
%TO.N,/MCU_ATMEGA328P-AU/A7*%
X141964600Y-92873400D02*
X135538400Y-99299600D01*
X147400200Y-92879600D02*
X147394000Y-92873400D01*
X135538400Y-99299600D02*
X135462200Y-99299600D01*
X147394000Y-92873400D02*
X141964600Y-92873400D01*
%TO.N,/MCU_ATMEGA328P-AU/D12*%
X160291820Y-73929600D02*
X165510000Y-73929600D01*
X147679600Y-86541820D02*
X160291820Y-73929600D01*
X147679600Y-89342800D02*
X147679600Y-86541820D01*
%TO.N,/MCU_ATMEGA328P-AU/D11*%
X148492400Y-88733200D02*
X148492400Y-86365416D01*
X148492400Y-86365416D02*
X158388216Y-76469600D01*
X158388216Y-76469600D02*
X165510000Y-76469600D01*
%TO.N,/MCU_ATMEGA328P-AU/D10*%
X149279800Y-89342800D02*
X149279800Y-86214412D01*
X156484612Y-79009600D02*
X165510000Y-79009600D01*
X149279800Y-86214412D02*
X156484612Y-79009600D01*
%TO.N,/MCU_ATMEGA328P-AU/ATMEGA_TX*%
X165438400Y-81621200D02*
X157026800Y-81621200D01*
X165510000Y-81549600D02*
X165438400Y-81621200D01*
X154509408Y-81621200D02*
X150073600Y-86057008D01*
X150073600Y-86057008D02*
X150073600Y-88733200D01*
X157026800Y-81621200D02*
X154509408Y-81621200D01*
%TO.N,/MCU_ATMEGA328P-AU/ATMEGA_RX*%
X153621804Y-83145200D02*
X157415000Y-83145200D01*
X164565600Y-83145200D02*
X165510000Y-84089600D01*
X157415000Y-83145200D02*
X164565600Y-83145200D01*
X150880000Y-85887004D02*
X153621804Y-83145200D01*
X150880000Y-89342800D02*
X150880000Y-85887004D01*
%TO.N,/MCU_ATMEGA328P-AU/D7*%
X157158400Y-86629600D02*
X165510000Y-86629600D01*
X152353091Y-85050309D02*
X153039000Y-84364400D01*
X152353091Y-85297091D02*
X152353091Y-85050309D01*
X153039000Y-84364400D02*
X154893200Y-84364400D01*
X154893200Y-84364400D02*
X157158400Y-86629600D01*
%TO.N,/MCU_ATMEGA328P-AU/D6*%
X153797000Y-85979000D02*
X155433600Y-87615600D01*
X163956000Y-87615600D02*
X165510000Y-89169600D01*
X153416000Y-85979000D02*
X153797000Y-85979000D01*
X155433600Y-87615600D02*
X163956000Y-87615600D01*
%TO.N,/MCU_ATMEGA328P-AU/D5*%
X154055000Y-87412400D02*
X153293000Y-88174400D01*
X153293000Y-89850800D02*
X155151800Y-91709600D01*
X153293000Y-88174400D02*
X153293000Y-89850800D01*
X155151800Y-91709600D02*
X165510000Y-91709600D01*
%TO.N,/MCU_ATMEGA328P-AU/D4*%
X156599600Y-94249600D02*
X165510000Y-94249600D01*
X156442600Y-94092600D02*
X156599600Y-94249600D01*
%TO.N,/MCU_ATMEGA328P-AU/D3*%
X156345600Y-96789600D02*
X165510000Y-96789600D01*
X155045600Y-95489600D02*
X156345600Y-96789600D01*
%TO.N,/MCU_ATMEGA328P-AU/D2*%
X155782200Y-100544200D02*
X164295400Y-100544200D01*
X164295400Y-100544200D02*
X165510000Y-99329600D01*
X154283600Y-96378600D02*
X154258200Y-96404000D01*
X154258200Y-96404000D02*
X154258200Y-99020200D01*
X154258200Y-99020200D02*
X155782200Y-100544200D01*
%TO.N,/MCU_ATMEGA328P-AU/D1*%
X153877200Y-108773800D02*
X163685800Y-108773800D01*
X163685800Y-108773800D02*
X165510000Y-106949600D01*
X152886600Y-107783200D02*
X153877200Y-108773800D01*
X152886600Y-94473600D02*
X152886600Y-107783200D01*
%TO.N,/MCU_ATMEGA328P-AU/D0*%
X151235600Y-94473600D02*
X151235600Y-107834000D01*
X152891200Y-109489600D02*
X165510000Y-109489600D01*
X151235600Y-107834000D02*
X152891200Y-109489600D01*
%TD*%
%TA.AperFunction,Conductor*%
%TO.N,GND*%
G36*
X165717336Y-69882326D02*
G01*
X165976057Y-69897975D01*
X165990920Y-69899780D01*
X166242175Y-69945825D01*
X166256697Y-69949404D01*
X166500590Y-70025403D01*
X166514567Y-70030704D01*
X166747515Y-70135546D01*
X166760761Y-70142498D01*
X166979368Y-70274651D01*
X166991679Y-70283149D01*
X167192761Y-70440686D01*
X167203969Y-70450616D01*
X167384583Y-70631230D01*
X167394513Y-70642438D01*
X167462787Y-70729584D01*
X167552046Y-70843514D01*
X167560550Y-70855835D01*
X167667576Y-71032875D01*
X167692698Y-71074432D01*
X167699657Y-71087691D01*
X167804493Y-71320628D01*
X167809799Y-71334618D01*
X167876191Y-71547678D01*
X167885791Y-71578486D01*
X167889374Y-71593024D01*
X167935419Y-71844279D01*
X167937224Y-71859144D01*
X167952874Y-72117864D01*
X167953100Y-72125351D01*
X167953100Y-109582849D01*
X167952874Y-109590336D01*
X167937224Y-109849055D01*
X167935419Y-109863920D01*
X167889374Y-110115175D01*
X167885791Y-110129712D01*
X167810423Y-110371581D01*
X167809803Y-110373570D01*
X167804493Y-110387571D01*
X167699657Y-110620508D01*
X167692698Y-110633767D01*
X167560552Y-110852362D01*
X167552046Y-110864685D01*
X167394513Y-111065761D01*
X167384583Y-111076969D01*
X167203969Y-111257583D01*
X167192761Y-111267513D01*
X166991685Y-111425046D01*
X166979362Y-111433552D01*
X166760767Y-111565698D01*
X166747508Y-111572657D01*
X166514571Y-111677493D01*
X166500575Y-111682800D01*
X166256713Y-111758791D01*
X166242175Y-111762374D01*
X165990920Y-111808419D01*
X165976055Y-111810224D01*
X165717336Y-111825874D01*
X165709849Y-111826100D01*
X135491351Y-111826100D01*
X135483864Y-111825874D01*
X135225144Y-111810224D01*
X135210279Y-111808419D01*
X134959024Y-111762374D01*
X134944490Y-111758792D01*
X134700618Y-111682799D01*
X134686628Y-111677493D01*
X134453691Y-111572657D01*
X134440432Y-111565698D01*
X134221837Y-111433552D01*
X134209514Y-111425046D01*
X134008438Y-111267513D01*
X133997230Y-111257583D01*
X133816616Y-111076969D01*
X133806686Y-111065761D01*
X133649153Y-110864685D01*
X133640651Y-110852368D01*
X133508498Y-110633761D01*
X133501546Y-110620515D01*
X133396704Y-110387567D01*
X133391403Y-110373590D01*
X133315404Y-110129697D01*
X133311825Y-110115175D01*
X133265780Y-109863920D01*
X133263975Y-109849055D01*
X133262693Y-109827867D01*
X133248326Y-109590336D01*
X133248100Y-109582849D01*
X133248100Y-109459600D01*
X134356985Y-109459600D01*
X134357514Y-109465309D01*
X134366694Y-109564386D01*
X134375803Y-109662683D01*
X134377371Y-109668194D01*
X134377373Y-109668204D01*
X134430047Y-109853331D01*
X134430049Y-109853337D01*
X134431618Y-109858850D01*
X134522527Y-110041421D01*
X134525979Y-110045992D01*
X134641978Y-110199601D01*
X134641983Y-110199606D01*
X134645436Y-110204179D01*
X134649672Y-110208040D01*
X134649676Y-110208045D01*
X134750760Y-110300194D01*
X134796159Y-110341581D01*
X134969563Y-110448948D01*
X135159744Y-110522624D01*
X135360224Y-110560100D01*
X135558447Y-110560100D01*
X135564176Y-110560100D01*
X135764656Y-110522624D01*
X135954837Y-110448948D01*
X136128241Y-110341581D01*
X136278964Y-110204179D01*
X136401873Y-110041421D01*
X136492782Y-109858850D01*
X136548597Y-109662683D01*
X136567415Y-109459600D01*
X136548597Y-109256517D01*
X136492782Y-109060350D01*
X136401873Y-108877779D01*
X136319084Y-108768148D01*
X136282421Y-108719598D01*
X136282417Y-108719594D01*
X136278964Y-108715021D01*
X136274727Y-108711158D01*
X136274723Y-108711154D01*
X136132475Y-108581479D01*
X136132476Y-108581479D01*
X136128241Y-108577619D01*
X136123371Y-108574604D01*
X136123369Y-108574602D01*
X135959711Y-108473270D01*
X135959712Y-108473270D01*
X135954837Y-108470252D01*
X135949494Y-108468182D01*
X135770003Y-108398647D01*
X135769998Y-108398645D01*
X135764656Y-108396576D01*
X135759018Y-108395522D01*
X135569805Y-108360152D01*
X135569802Y-108360151D01*
X135564176Y-108359100D01*
X135360224Y-108359100D01*
X135354598Y-108360151D01*
X135354594Y-108360152D01*
X135165381Y-108395522D01*
X135165378Y-108395522D01*
X135159744Y-108396576D01*
X135154403Y-108398644D01*
X135154396Y-108398647D01*
X134974905Y-108468182D01*
X134974900Y-108468184D01*
X134969563Y-108470252D01*
X134964691Y-108473268D01*
X134964688Y-108473270D01*
X134801030Y-108574602D01*
X134801022Y-108574607D01*
X134796159Y-108577619D01*
X134791928Y-108581475D01*
X134791924Y-108581479D01*
X134649676Y-108711154D01*
X134649666Y-108711164D01*
X134645436Y-108715021D01*
X134641987Y-108719587D01*
X134641978Y-108719598D01*
X134525979Y-108873207D01*
X134525976Y-108873211D01*
X134522527Y-108877779D01*
X134519974Y-108882904D01*
X134519972Y-108882909D01*
X134434176Y-109055212D01*
X134431618Y-109060350D01*
X134430050Y-109065858D01*
X134430047Y-109065868D01*
X134377373Y-109250995D01*
X134377370Y-109251006D01*
X134375803Y-109256517D01*
X134375273Y-109262227D01*
X134375273Y-109262232D01*
X134361980Y-109405695D01*
X134356985Y-109459600D01*
X133248100Y-109459600D01*
X133248100Y-107172179D01*
X134393088Y-107172179D01*
X134393609Y-107183438D01*
X134430515Y-107313149D01*
X134434644Y-107323805D01*
X134520399Y-107496024D01*
X134526406Y-107505727D01*
X134642349Y-107659262D01*
X134650047Y-107667706D01*
X134792227Y-107797319D01*
X134801331Y-107804195D01*
X134964915Y-107905482D01*
X134975128Y-107910568D01*
X135154533Y-107980069D01*
X135165517Y-107983194D01*
X135198770Y-107989410D01*
X135209798Y-107989028D01*
X135212200Y-107978261D01*
X135212200Y-107185926D01*
X135208749Y-107173050D01*
X135195874Y-107169600D01*
X134404057Y-107169600D01*
X134393088Y-107172179D01*
X133248100Y-107172179D01*
X133248100Y-106667020D01*
X134393088Y-106667020D01*
X134404057Y-106669600D01*
X135195874Y-106669600D01*
X135208749Y-106666149D01*
X135212200Y-106653274D01*
X135212200Y-105860939D01*
X135209798Y-105850171D01*
X135198770Y-105849789D01*
X135165517Y-105856005D01*
X135154533Y-105859130D01*
X134975128Y-105928631D01*
X134964915Y-105933717D01*
X134801331Y-106035004D01*
X134792227Y-106041880D01*
X134650047Y-106171493D01*
X134642349Y-106179937D01*
X134526406Y-106333472D01*
X134520399Y-106343175D01*
X134434644Y-106515394D01*
X134430515Y-106526050D01*
X134393609Y-106655761D01*
X134393088Y-106667020D01*
X133248100Y-106667020D01*
X133248100Y-104237713D01*
X133265577Y-104174240D01*
X133313082Y-104128659D01*
X133377223Y-104113819D01*
X133439920Y-104133903D01*
X133483499Y-104183250D01*
X133496860Y-104210579D01*
X133496861Y-104210581D01*
X133501374Y-104219811D01*
X133506997Y-104225434D01*
X133510781Y-104232426D01*
X133518338Y-104239382D01*
X133518339Y-104239384D01*
X133549282Y-104267869D01*
X133552980Y-104271417D01*
X133890050Y-104608487D01*
X133906174Y-104628341D01*
X133912116Y-104637436D01*
X133920218Y-104643742D01*
X133920221Y-104643745D01*
X133937094Y-104656877D01*
X133941008Y-104660334D01*
X133941142Y-104660177D01*
X133945048Y-104663485D01*
X133948682Y-104667119D01*
X133964402Y-104678342D01*
X133965589Y-104679190D01*
X133969700Y-104682255D01*
X134011011Y-104714409D01*
X134018531Y-104716990D01*
X134025001Y-104721610D01*
X134075140Y-104736537D01*
X134080022Y-104738101D01*
X134105309Y-104746781D01*
X134129540Y-104755100D01*
X134137493Y-104755100D01*
X134145111Y-104757368D01*
X134197391Y-104755206D01*
X134202515Y-104755100D01*
X134343015Y-104755100D01*
X134408293Y-104773673D01*
X134454014Y-104823828D01*
X134522527Y-104961421D01*
X134525979Y-104965992D01*
X134641978Y-105119601D01*
X134641983Y-105119606D01*
X134645436Y-105124179D01*
X134649672Y-105128040D01*
X134649676Y-105128045D01*
X134678344Y-105154179D01*
X134796159Y-105261581D01*
X134969563Y-105368948D01*
X135159744Y-105442624D01*
X135360224Y-105480100D01*
X135558447Y-105480100D01*
X135564176Y-105480100D01*
X135764656Y-105442624D01*
X135954837Y-105368948D01*
X136128241Y-105261581D01*
X136278964Y-105124179D01*
X136286682Y-105113958D01*
X136290147Y-105109371D01*
X136337969Y-105071132D01*
X136398259Y-105060438D01*
X136456315Y-105079897D01*
X136497982Y-105124764D01*
X136513100Y-105184099D01*
X136513100Y-106115932D01*
X136497982Y-106175268D01*
X136456314Y-106220135D01*
X136398257Y-106239593D01*
X136337967Y-106228898D01*
X136290145Y-106190658D01*
X136282048Y-106179935D01*
X136274352Y-106171493D01*
X136132172Y-106041880D01*
X136123068Y-106035004D01*
X135959484Y-105933717D01*
X135949271Y-105928631D01*
X135769866Y-105859130D01*
X135758882Y-105856005D01*
X135725629Y-105849789D01*
X135714601Y-105850171D01*
X135712200Y-105860939D01*
X135712200Y-107978261D01*
X135714601Y-107989028D01*
X135725629Y-107989410D01*
X135758882Y-107983194D01*
X135769866Y-107980069D01*
X135949271Y-107910568D01*
X135959484Y-107905482D01*
X136123068Y-107804195D01*
X136132172Y-107797319D01*
X136274352Y-107667706D01*
X136282048Y-107659264D01*
X136290145Y-107648542D01*
X136337967Y-107610302D01*
X136398257Y-107599607D01*
X136456314Y-107619065D01*
X136497982Y-107663932D01*
X136513100Y-107723268D01*
X136513100Y-107857825D01*
X136512578Y-107868880D01*
X136510927Y-107876267D01*
X136511171Y-107884053D01*
X136511171Y-107884061D01*
X136513039Y-107943473D01*
X136513100Y-107947368D01*
X136513100Y-107974950D01*
X136513588Y-107978819D01*
X136513589Y-107978825D01*
X136513604Y-107978943D01*
X136514518Y-107990566D01*
X136515645Y-108026430D01*
X136515646Y-108026437D01*
X136515891Y-108034227D01*
X136518067Y-108041719D01*
X136518068Y-108041721D01*
X136521479Y-108053462D01*
X136525425Y-108072515D01*
X136527936Y-108092392D01*
X136530806Y-108099642D01*
X136530808Y-108099648D01*
X136544014Y-108133004D01*
X136547797Y-108144051D01*
X136559982Y-108185990D01*
X136563953Y-108192705D01*
X136563954Y-108192707D01*
X136570181Y-108203237D01*
X136578736Y-108220699D01*
X136583242Y-108232080D01*
X136583243Y-108232083D01*
X136586114Y-108239332D01*
X136602964Y-108262524D01*
X136611781Y-108274660D01*
X136618193Y-108284422D01*
X136636456Y-108315302D01*
X136636459Y-108315307D01*
X136640430Y-108322020D01*
X136645945Y-108327534D01*
X136645945Y-108327535D01*
X136654590Y-108336180D01*
X136667226Y-108350974D01*
X136674419Y-108360875D01*
X136674423Y-108360879D01*
X136679006Y-108367187D01*
X136685015Y-108372158D01*
X136685016Y-108372159D01*
X136712658Y-108395026D01*
X136721299Y-108402889D01*
X138546307Y-110227898D01*
X138553759Y-110236087D01*
X138557814Y-110242477D01*
X138606823Y-110288500D01*
X138609620Y-110291210D01*
X138629129Y-110310720D01*
X138632309Y-110313187D01*
X138641171Y-110320755D01*
X138654480Y-110333254D01*
X138667332Y-110345323D01*
X138667334Y-110345324D01*
X138673018Y-110350662D01*
X138679851Y-110354418D01*
X138679852Y-110354419D01*
X138690573Y-110360313D01*
X138706834Y-110370994D01*
X138722664Y-110383273D01*
X138762754Y-110400621D01*
X138773231Y-110405754D01*
X138811508Y-110426797D01*
X138828557Y-110431174D01*
X138830905Y-110431777D01*
X138849319Y-110438081D01*
X138867704Y-110446038D01*
X138910865Y-110452873D01*
X138922264Y-110455234D01*
X138964581Y-110466100D01*
X138984617Y-110466100D01*
X139004002Y-110467625D01*
X139023796Y-110470760D01*
X139061876Y-110467160D01*
X139067276Y-110466650D01*
X139078945Y-110466100D01*
X146863981Y-110466100D01*
X146982350Y-110466100D01*
X147474825Y-110466100D01*
X147485880Y-110466621D01*
X147493267Y-110468273D01*
X147560472Y-110466161D01*
X147564368Y-110466100D01*
X147588048Y-110466100D01*
X147591950Y-110466100D01*
X147595913Y-110465599D01*
X147607563Y-110464680D01*
X147651227Y-110463309D01*
X147670461Y-110457719D01*
X147689517Y-110453774D01*
X147709392Y-110451264D01*
X147749995Y-110435187D01*
X147761050Y-110431402D01*
X147802990Y-110419218D01*
X147820229Y-110409022D01*
X147837703Y-110400462D01*
X147849074Y-110395960D01*
X147849076Y-110395958D01*
X147856332Y-110393086D01*
X147891669Y-110367411D01*
X147901424Y-110361003D01*
X147939020Y-110338770D01*
X147953184Y-110324605D01*
X147967979Y-110311968D01*
X147984187Y-110300194D01*
X148012028Y-110266538D01*
X148019879Y-110257909D01*
X148701906Y-109575882D01*
X148710082Y-109568443D01*
X148716477Y-109564386D01*
X148762533Y-109515340D01*
X148765150Y-109512638D01*
X148784720Y-109493070D01*
X148787165Y-109489916D01*
X148794755Y-109481028D01*
X148824662Y-109449182D01*
X148834309Y-109431632D01*
X148844993Y-109415366D01*
X148857274Y-109399536D01*
X148874618Y-109359451D01*
X148879760Y-109348956D01*
X148900797Y-109310692D01*
X148905779Y-109291289D01*
X148912080Y-109272883D01*
X148920038Y-109254495D01*
X148926869Y-109211356D01*
X148929239Y-109199915D01*
X148938160Y-109165174D01*
X148938159Y-109165174D01*
X148940100Y-109157619D01*
X148940100Y-109137583D01*
X148941625Y-109118197D01*
X148944760Y-109098404D01*
X148940650Y-109054924D01*
X148940100Y-109043255D01*
X148940100Y-104217145D01*
X148940100Y-104213250D01*
X148925264Y-104095808D01*
X148867086Y-103948868D01*
X148838779Y-103909907D01*
X148821169Y-103875344D01*
X148815100Y-103837026D01*
X148815100Y-95919937D01*
X148824539Y-95872484D01*
X148851419Y-95832256D01*
X149256435Y-95427240D01*
X150502765Y-94180908D01*
X150561495Y-94148018D01*
X150628759Y-94150659D01*
X150684731Y-94188056D01*
X150712916Y-94249187D01*
X150705008Y-94316036D01*
X150702383Y-94322373D01*
X150702381Y-94322379D01*
X150699270Y-94329891D01*
X150698209Y-94337948D01*
X150698208Y-94337953D01*
X150683856Y-94446967D01*
X150680350Y-94473600D01*
X150681411Y-94481659D01*
X150698079Y-94608268D01*
X150699270Y-94617309D01*
X150702381Y-94624820D01*
X150702382Y-94624823D01*
X150714462Y-94653987D01*
X150754739Y-94751225D01*
X150759682Y-94757666D01*
X150759685Y-94757672D01*
X150834476Y-94855140D01*
X150853519Y-94890768D01*
X150860100Y-94930627D01*
X150860100Y-107782195D01*
X150857460Y-107807644D01*
X150857341Y-107808209D01*
X150857340Y-107808216D01*
X150855233Y-107818268D01*
X150856503Y-107828458D01*
X150856503Y-107828462D01*
X150859148Y-107849676D01*
X150859471Y-107854891D01*
X150859677Y-107854874D01*
X150860100Y-107859981D01*
X150860100Y-107865114D01*
X150860944Y-107870172D01*
X150860945Y-107870184D01*
X150863518Y-107885603D01*
X150864257Y-107890670D01*
X150870734Y-107942626D01*
X150874226Y-107949770D01*
X150875535Y-107957610D01*
X150900445Y-108003641D01*
X150902771Y-108008161D01*
X150921260Y-108045979D01*
X150921261Y-108045981D01*
X150925774Y-108055211D01*
X150931397Y-108060834D01*
X150935181Y-108067826D01*
X150942738Y-108074782D01*
X150942739Y-108074784D01*
X150973681Y-108103268D01*
X150977379Y-108106816D01*
X152589050Y-109718488D01*
X152605177Y-109738346D01*
X152611116Y-109747436D01*
X152619222Y-109753745D01*
X152619223Y-109753746D01*
X152636089Y-109766873D01*
X152640010Y-109770335D01*
X152640143Y-109770179D01*
X152644051Y-109773489D01*
X152647682Y-109777120D01*
X152651855Y-109780099D01*
X152651863Y-109780106D01*
X152664596Y-109789196D01*
X152668711Y-109792264D01*
X152701896Y-109818093D01*
X152710011Y-109824409D01*
X152717531Y-109826990D01*
X152724001Y-109831610D01*
X152774199Y-109846554D01*
X152778991Y-109848090D01*
X152828540Y-109865100D01*
X152836494Y-109865100D01*
X152844112Y-109867368D01*
X152896392Y-109865206D01*
X152901516Y-109865100D01*
X164390815Y-109865100D01*
X164456093Y-109883673D01*
X164501814Y-109933828D01*
X164570327Y-110071421D01*
X164573779Y-110075992D01*
X164689778Y-110229601D01*
X164689783Y-110229606D01*
X164693236Y-110234179D01*
X164697472Y-110238040D01*
X164697476Y-110238045D01*
X164779883Y-110313168D01*
X164843959Y-110371581D01*
X165017363Y-110478948D01*
X165207544Y-110552624D01*
X165408024Y-110590100D01*
X165606247Y-110590100D01*
X165611976Y-110590100D01*
X165812456Y-110552624D01*
X166002637Y-110478948D01*
X166176041Y-110371581D01*
X166326764Y-110234179D01*
X166449673Y-110071421D01*
X166540582Y-109888850D01*
X166596397Y-109692683D01*
X166615215Y-109489600D01*
X166596397Y-109286517D01*
X166540582Y-109090350D01*
X166449673Y-108907779D01*
X166401176Y-108843559D01*
X166330221Y-108749598D01*
X166330217Y-108749594D01*
X166326764Y-108745021D01*
X166322527Y-108741158D01*
X166322523Y-108741154D01*
X166180275Y-108611479D01*
X166180276Y-108611479D01*
X166176041Y-108607619D01*
X166171171Y-108604604D01*
X166171169Y-108604602D01*
X166007511Y-108503270D01*
X166007512Y-108503270D01*
X166002637Y-108500252D01*
X165997294Y-108498182D01*
X165817803Y-108428647D01*
X165817798Y-108428645D01*
X165812456Y-108426576D01*
X165806818Y-108425522D01*
X165617605Y-108390152D01*
X165617602Y-108390151D01*
X165611976Y-108389100D01*
X165408024Y-108389100D01*
X165402398Y-108390151D01*
X165402394Y-108390152D01*
X165213181Y-108425522D01*
X165213178Y-108425522D01*
X165207544Y-108426576D01*
X165202203Y-108428644D01*
X165202196Y-108428647D01*
X165022705Y-108498182D01*
X165022700Y-108498184D01*
X165017363Y-108500252D01*
X165012491Y-108503268D01*
X165012488Y-108503270D01*
X164848830Y-108604602D01*
X164848822Y-108604607D01*
X164843959Y-108607619D01*
X164839728Y-108611475D01*
X164839724Y-108611479D01*
X164697476Y-108741154D01*
X164697466Y-108741164D01*
X164693236Y-108745021D01*
X164689787Y-108749587D01*
X164689778Y-108749598D01*
X164573779Y-108903207D01*
X164573776Y-108903211D01*
X164570327Y-108907779D01*
X164567774Y-108912904D01*
X164567772Y-108912909D01*
X164548416Y-108951782D01*
X164502869Y-109043255D01*
X164501815Y-109045371D01*
X164456093Y-109095527D01*
X164390815Y-109114100D01*
X164175898Y-109114100D01*
X164119603Y-109100585D01*
X164075580Y-109062985D01*
X164053425Y-109009498D01*
X164057967Y-108951782D01*
X164088217Y-108902419D01*
X164522454Y-108468182D01*
X164984973Y-108005662D01*
X165024318Y-107979154D01*
X165070742Y-107969361D01*
X165117445Y-107977720D01*
X165202187Y-108010549D01*
X165202190Y-108010549D01*
X165207544Y-108012624D01*
X165408024Y-108050100D01*
X165606247Y-108050100D01*
X165611976Y-108050100D01*
X165812456Y-108012624D01*
X166002637Y-107938948D01*
X166176041Y-107831581D01*
X166326764Y-107694179D01*
X166449673Y-107531421D01*
X166540582Y-107348850D01*
X166596397Y-107152683D01*
X166615215Y-106949600D01*
X166596397Y-106746517D01*
X166593446Y-106736147D01*
X166542152Y-106555868D01*
X166540582Y-106550350D01*
X166449673Y-106367779D01*
X166352872Y-106239593D01*
X166330221Y-106209598D01*
X166330217Y-106209594D01*
X166326764Y-106205021D01*
X166322527Y-106201158D01*
X166322523Y-106201154D01*
X166180275Y-106071479D01*
X166180276Y-106071479D01*
X166176041Y-106067619D01*
X166171171Y-106064604D01*
X166171169Y-106064602D01*
X166007511Y-105963270D01*
X166007512Y-105963270D01*
X166002637Y-105960252D01*
X165934142Y-105933717D01*
X165817803Y-105888647D01*
X165817798Y-105888645D01*
X165812456Y-105886576D01*
X165806818Y-105885522D01*
X165617605Y-105850152D01*
X165617602Y-105850151D01*
X165611976Y-105849100D01*
X165408024Y-105849100D01*
X165402398Y-105850151D01*
X165402394Y-105850152D01*
X165213181Y-105885522D01*
X165213178Y-105885522D01*
X165207544Y-105886576D01*
X165202203Y-105888644D01*
X165202196Y-105888647D01*
X165022705Y-105958182D01*
X165022700Y-105958184D01*
X165017363Y-105960252D01*
X165012491Y-105963268D01*
X165012488Y-105963270D01*
X164848830Y-106064602D01*
X164848822Y-106064607D01*
X164843959Y-106067619D01*
X164839728Y-106071475D01*
X164839724Y-106071479D01*
X164697476Y-106201154D01*
X164697466Y-106201164D01*
X164693236Y-106205021D01*
X164689787Y-106209587D01*
X164689778Y-106209598D01*
X164573779Y-106363207D01*
X164573776Y-106363211D01*
X164570327Y-106367779D01*
X164567774Y-106372904D01*
X164567772Y-106372909D01*
X164481976Y-106545212D01*
X164479418Y-106550350D01*
X164477850Y-106555858D01*
X164477847Y-106555868D01*
X164425173Y-106740995D01*
X164425170Y-106741006D01*
X164423603Y-106746517D01*
X164423073Y-106752227D01*
X164423073Y-106752232D01*
X164416439Y-106823828D01*
X164404785Y-106949600D01*
X164405314Y-106955309D01*
X164422189Y-107137430D01*
X164423603Y-107152683D01*
X164425171Y-107158194D01*
X164425173Y-107158204D01*
X164477848Y-107343333D01*
X164479002Y-107347390D01*
X164479003Y-107347392D01*
X164479418Y-107348850D01*
X164479271Y-107348891D01*
X164487002Y-107392093D01*
X164477209Y-107438515D01*
X164450698Y-107477862D01*
X163566581Y-108361981D01*
X163526353Y-108388861D01*
X163478900Y-108398300D01*
X154084099Y-108398300D01*
X154036646Y-108388861D01*
X153996418Y-108361981D01*
X153298419Y-107663981D01*
X153271539Y-107623753D01*
X153262100Y-107576300D01*
X153262100Y-104409600D01*
X164404785Y-104409600D01*
X164423603Y-104612683D01*
X164425171Y-104618194D01*
X164425173Y-104618204D01*
X164477847Y-104803331D01*
X164477849Y-104803337D01*
X164479418Y-104808850D01*
X164570327Y-104991421D01*
X164573779Y-104995992D01*
X164689778Y-105149601D01*
X164689783Y-105149606D01*
X164693236Y-105154179D01*
X164697472Y-105158040D01*
X164697476Y-105158045D01*
X164799227Y-105250803D01*
X164843959Y-105291581D01*
X165017363Y-105398948D01*
X165207544Y-105472624D01*
X165408024Y-105510100D01*
X165606247Y-105510100D01*
X165611976Y-105510100D01*
X165812456Y-105472624D01*
X166002637Y-105398948D01*
X166176041Y-105291581D01*
X166326764Y-105154179D01*
X166449673Y-104991421D01*
X166540582Y-104808850D01*
X166596397Y-104612683D01*
X166615215Y-104409600D01*
X166596397Y-104206517D01*
X166589245Y-104181382D01*
X166542152Y-104015868D01*
X166540582Y-104010350D01*
X166449673Y-103827779D01*
X166352244Y-103698762D01*
X166330221Y-103669598D01*
X166330217Y-103669594D01*
X166326764Y-103665021D01*
X166322527Y-103661158D01*
X166322523Y-103661154D01*
X166180275Y-103531479D01*
X166180276Y-103531479D01*
X166176041Y-103527619D01*
X166171171Y-103524604D01*
X166171169Y-103524602D01*
X166007511Y-103423270D01*
X166007512Y-103423270D01*
X166002637Y-103420252D01*
X165997294Y-103418182D01*
X165817803Y-103348647D01*
X165817798Y-103348645D01*
X165812456Y-103346576D01*
X165806818Y-103345522D01*
X165617605Y-103310152D01*
X165617602Y-103310151D01*
X165611976Y-103309100D01*
X165408024Y-103309100D01*
X165402398Y-103310151D01*
X165402394Y-103310152D01*
X165213181Y-103345522D01*
X165213178Y-103345522D01*
X165207544Y-103346576D01*
X165202203Y-103348644D01*
X165202196Y-103348647D01*
X165022705Y-103418182D01*
X165022700Y-103418184D01*
X165017363Y-103420252D01*
X165012491Y-103423268D01*
X165012488Y-103423270D01*
X164848830Y-103524602D01*
X164848822Y-103524607D01*
X164843959Y-103527619D01*
X164839728Y-103531475D01*
X164839724Y-103531479D01*
X164697476Y-103661154D01*
X164697466Y-103661164D01*
X164693236Y-103665021D01*
X164689787Y-103669587D01*
X164689778Y-103669598D01*
X164573779Y-103823207D01*
X164573776Y-103823211D01*
X164570327Y-103827779D01*
X164567774Y-103832904D01*
X164567772Y-103832909D01*
X164494356Y-103980350D01*
X164479418Y-104010350D01*
X164477850Y-104015858D01*
X164477847Y-104015868D01*
X164425173Y-104200995D01*
X164425170Y-104201006D01*
X164423603Y-104206517D01*
X164423073Y-104212227D01*
X164423073Y-104212232D01*
X164422618Y-104217145D01*
X164404785Y-104409600D01*
X153262100Y-104409600D01*
X153262100Y-96378600D01*
X153728350Y-96378600D01*
X153729411Y-96386659D01*
X153738412Y-96455032D01*
X153747270Y-96522309D01*
X153802739Y-96656225D01*
X153807684Y-96662669D01*
X153807685Y-96662671D01*
X153857076Y-96727038D01*
X153876119Y-96762666D01*
X153882700Y-96802525D01*
X153882700Y-98968395D01*
X153880060Y-98993844D01*
X153879941Y-98994409D01*
X153879940Y-98994416D01*
X153877833Y-99004468D01*
X153879103Y-99014658D01*
X153879103Y-99014662D01*
X153881748Y-99035876D01*
X153882071Y-99041091D01*
X153882277Y-99041074D01*
X153882700Y-99046181D01*
X153882700Y-99051314D01*
X153883544Y-99056372D01*
X153883545Y-99056384D01*
X153886118Y-99071803D01*
X153886857Y-99076870D01*
X153893334Y-99128826D01*
X153896826Y-99135970D01*
X153898135Y-99143810D01*
X153923045Y-99189841D01*
X153925371Y-99194361D01*
X153943860Y-99232179D01*
X153943861Y-99232181D01*
X153948374Y-99241411D01*
X153953997Y-99247034D01*
X153957781Y-99254026D01*
X153965338Y-99260982D01*
X153965339Y-99260984D01*
X153996282Y-99289469D01*
X153999980Y-99293017D01*
X155480050Y-100773087D01*
X155496174Y-100792941D01*
X155502116Y-100802036D01*
X155510218Y-100808342D01*
X155510221Y-100808345D01*
X155527094Y-100821477D01*
X155531008Y-100824934D01*
X155531142Y-100824777D01*
X155535048Y-100828085D01*
X155538682Y-100831719D01*
X155546159Y-100837057D01*
X155555589Y-100843790D01*
X155559700Y-100846855D01*
X155566408Y-100852076D01*
X155601011Y-100879009D01*
X155608531Y-100881590D01*
X155615001Y-100886210D01*
X155665140Y-100901137D01*
X155670022Y-100902701D01*
X155692266Y-100910337D01*
X155719540Y-100919700D01*
X155727493Y-100919700D01*
X155735111Y-100921968D01*
X155787391Y-100919806D01*
X155792515Y-100919700D01*
X161040408Y-100919700D01*
X161102409Y-100936313D01*
X161147796Y-100981701D01*
X161164408Y-101043702D01*
X161147794Y-101105702D01*
X161102405Y-101151089D01*
X161100084Y-101152428D01*
X161092575Y-101155539D01*
X161086133Y-101160482D01*
X161086128Y-101160485D01*
X160984021Y-101238835D01*
X160984017Y-101238838D01*
X160977579Y-101243779D01*
X160972638Y-101250217D01*
X160972635Y-101250221D01*
X160894285Y-101352328D01*
X160894282Y-101352333D01*
X160889339Y-101358775D01*
X160886229Y-101366283D01*
X160886228Y-101366285D01*
X160836982Y-101485176D01*
X160836980Y-101485181D01*
X160833870Y-101492691D01*
X160832809Y-101500748D01*
X160832808Y-101500753D01*
X160821732Y-101584886D01*
X160800368Y-101639824D01*
X160756050Y-101678689D01*
X160698793Y-101692700D01*
X156174604Y-101692700D01*
X156149158Y-101690061D01*
X156148587Y-101689941D01*
X156148585Y-101689940D01*
X156138532Y-101687833D01*
X156128341Y-101689103D01*
X156128337Y-101689103D01*
X156107124Y-101691748D01*
X156101903Y-101692072D01*
X156101920Y-101692277D01*
X156096812Y-101692700D01*
X156091686Y-101692700D01*
X156086633Y-101693542D01*
X156084000Y-101693761D01*
X156057581Y-101693123D01*
X155964059Y-101680811D01*
X155956000Y-101679750D01*
X155947941Y-101680811D01*
X155820353Y-101697608D01*
X155820348Y-101697609D01*
X155812291Y-101698670D01*
X155804781Y-101701780D01*
X155804776Y-101701782D01*
X155685885Y-101751028D01*
X155685883Y-101751029D01*
X155678375Y-101754139D01*
X155671933Y-101759082D01*
X155671928Y-101759085D01*
X155569821Y-101837435D01*
X155569817Y-101837438D01*
X155563379Y-101842379D01*
X155558438Y-101848817D01*
X155558435Y-101848821D01*
X155480085Y-101950928D01*
X155480082Y-101950933D01*
X155475139Y-101957375D01*
X155472029Y-101964883D01*
X155472028Y-101964885D01*
X155422782Y-102083776D01*
X155422780Y-102083781D01*
X155419670Y-102091291D01*
X155418609Y-102099348D01*
X155418608Y-102099353D01*
X155407523Y-102183555D01*
X155400750Y-102235000D01*
X155401811Y-102243059D01*
X155418603Y-102370611D01*
X155419670Y-102378709D01*
X155422781Y-102386220D01*
X155422782Y-102386223D01*
X155444867Y-102439540D01*
X155475139Y-102512625D01*
X155480084Y-102519069D01*
X155480085Y-102519071D01*
X155550319Y-102610601D01*
X155563379Y-102627621D01*
X155678375Y-102715861D01*
X155812291Y-102771330D01*
X155956000Y-102790250D01*
X156099709Y-102771330D01*
X156233625Y-102715861D01*
X156348621Y-102627621D01*
X156436861Y-102512625D01*
X156439796Y-102505538D01*
X156485019Y-102460314D01*
X156547021Y-102443700D01*
X160886595Y-102443700D01*
X160912044Y-102446340D01*
X160912609Y-102446458D01*
X160912610Y-102446458D01*
X160922668Y-102448567D01*
X160954076Y-102444651D01*
X160959287Y-102444328D01*
X160959271Y-102444124D01*
X160964386Y-102443700D01*
X160969514Y-102443700D01*
X160990036Y-102440274D01*
X160995066Y-102439542D01*
X161047026Y-102433066D01*
X161054170Y-102429573D01*
X161062010Y-102428265D01*
X161108047Y-102403350D01*
X161112564Y-102401025D01*
X161159611Y-102378026D01*
X161165234Y-102372402D01*
X161172226Y-102368619D01*
X161207717Y-102330063D01*
X161211194Y-102326441D01*
X161312553Y-102225082D01*
X161345387Y-102201554D01*
X161384045Y-102189827D01*
X161513909Y-102172730D01*
X161635952Y-102122179D01*
X164440888Y-102122179D01*
X164441409Y-102133438D01*
X164478315Y-102263149D01*
X164482444Y-102273805D01*
X164568199Y-102446024D01*
X164574206Y-102455727D01*
X164690149Y-102609262D01*
X164697847Y-102617706D01*
X164840027Y-102747319D01*
X164849131Y-102754195D01*
X165012715Y-102855482D01*
X165022928Y-102860568D01*
X165202333Y-102930069D01*
X165213317Y-102933194D01*
X165246570Y-102939410D01*
X165257598Y-102939028D01*
X165260000Y-102928261D01*
X165760000Y-102928261D01*
X165762401Y-102939028D01*
X165773429Y-102939410D01*
X165806682Y-102933194D01*
X165817666Y-102930069D01*
X165997071Y-102860568D01*
X166007284Y-102855482D01*
X166170868Y-102754195D01*
X166179972Y-102747319D01*
X166322152Y-102617706D01*
X166329850Y-102609262D01*
X166445793Y-102455727D01*
X166451800Y-102446024D01*
X166537555Y-102273805D01*
X166541684Y-102263149D01*
X166578590Y-102133438D01*
X166579111Y-102122179D01*
X166568143Y-102119600D01*
X165776326Y-102119600D01*
X165763450Y-102123050D01*
X165760000Y-102135926D01*
X165760000Y-102928261D01*
X165260000Y-102928261D01*
X165260000Y-102135926D01*
X165256549Y-102123050D01*
X165243674Y-102119600D01*
X164451857Y-102119600D01*
X164440888Y-102122179D01*
X161635952Y-102122179D01*
X161647825Y-102117261D01*
X161762821Y-102029021D01*
X161851061Y-101914025D01*
X161906530Y-101780109D01*
X161925450Y-101636400D01*
X161922899Y-101617020D01*
X164440888Y-101617020D01*
X164451857Y-101619600D01*
X165243674Y-101619600D01*
X165256549Y-101616149D01*
X165260000Y-101603274D01*
X165760000Y-101603274D01*
X165763450Y-101616149D01*
X165776326Y-101619600D01*
X166568143Y-101619600D01*
X166579111Y-101617020D01*
X166578590Y-101605761D01*
X166541684Y-101476050D01*
X166537555Y-101465394D01*
X166451800Y-101293175D01*
X166445793Y-101283472D01*
X166329850Y-101129937D01*
X166322152Y-101121493D01*
X166179972Y-100991880D01*
X166170868Y-100985004D01*
X166007284Y-100883717D01*
X165997071Y-100878631D01*
X165817666Y-100809130D01*
X165806682Y-100806005D01*
X165773429Y-100799789D01*
X165762401Y-100800171D01*
X165760000Y-100810939D01*
X165760000Y-101603274D01*
X165260000Y-101603274D01*
X165260000Y-100810939D01*
X165257598Y-100800171D01*
X165246570Y-100799789D01*
X165213317Y-100806005D01*
X165202333Y-100809130D01*
X165022928Y-100878631D01*
X165012715Y-100883717D01*
X164849131Y-100985004D01*
X164840027Y-100991880D01*
X164697847Y-101121493D01*
X164690149Y-101129937D01*
X164574206Y-101283472D01*
X164568199Y-101293175D01*
X164482444Y-101465394D01*
X164478315Y-101476050D01*
X164441409Y-101605761D01*
X164440888Y-101617020D01*
X161922899Y-101617020D01*
X161906530Y-101492691D01*
X161851061Y-101358775D01*
X161762821Y-101243779D01*
X161738297Y-101224961D01*
X161654271Y-101160485D01*
X161654269Y-101160484D01*
X161647825Y-101155539D01*
X161640314Y-101152428D01*
X161637995Y-101151089D01*
X161592606Y-101105702D01*
X161575992Y-101043702D01*
X161592604Y-100981701D01*
X161637991Y-100936313D01*
X161699992Y-100919700D01*
X164243595Y-100919700D01*
X164269044Y-100922340D01*
X164269609Y-100922458D01*
X164269610Y-100922458D01*
X164279668Y-100924567D01*
X164311076Y-100920651D01*
X164316287Y-100920328D01*
X164316271Y-100920124D01*
X164321386Y-100919700D01*
X164326514Y-100919700D01*
X164347036Y-100916274D01*
X164352066Y-100915542D01*
X164404026Y-100909066D01*
X164411170Y-100905573D01*
X164419010Y-100904265D01*
X164465047Y-100879350D01*
X164469564Y-100877025D01*
X164516611Y-100854026D01*
X164522234Y-100848402D01*
X164529226Y-100844619D01*
X164564716Y-100806065D01*
X164568194Y-100802441D01*
X164984973Y-100385662D01*
X165024318Y-100359154D01*
X165070742Y-100349361D01*
X165117445Y-100357720D01*
X165202187Y-100390549D01*
X165202190Y-100390549D01*
X165207544Y-100392624D01*
X165408024Y-100430100D01*
X165606247Y-100430100D01*
X165611976Y-100430100D01*
X165812456Y-100392624D01*
X166002637Y-100318948D01*
X166176041Y-100211581D01*
X166326764Y-100074179D01*
X166449673Y-99911421D01*
X166540582Y-99728850D01*
X166596397Y-99532683D01*
X166615215Y-99329600D01*
X166596397Y-99126517D01*
X166540582Y-98930350D01*
X166449673Y-98747779D01*
X166401176Y-98683559D01*
X166330221Y-98589598D01*
X166330217Y-98589594D01*
X166326764Y-98585021D01*
X166322527Y-98581158D01*
X166322523Y-98581154D01*
X166180275Y-98451479D01*
X166180276Y-98451479D01*
X166176041Y-98447619D01*
X166171171Y-98444604D01*
X166171169Y-98444602D01*
X166007511Y-98343270D01*
X166007512Y-98343270D01*
X166002637Y-98340252D01*
X165966530Y-98326264D01*
X165817803Y-98268647D01*
X165817798Y-98268645D01*
X165812456Y-98266576D01*
X165803009Y-98264810D01*
X165617605Y-98230152D01*
X165617602Y-98230151D01*
X165611976Y-98229100D01*
X165408024Y-98229100D01*
X165402398Y-98230151D01*
X165402394Y-98230152D01*
X165213181Y-98265522D01*
X165213178Y-98265522D01*
X165207544Y-98266576D01*
X165202203Y-98268644D01*
X165202196Y-98268647D01*
X165022705Y-98338182D01*
X165022700Y-98338184D01*
X165017363Y-98340252D01*
X165012491Y-98343268D01*
X165012488Y-98343270D01*
X164848830Y-98444602D01*
X164848822Y-98444607D01*
X164843959Y-98447619D01*
X164839728Y-98451475D01*
X164839724Y-98451479D01*
X164697476Y-98581154D01*
X164697466Y-98581164D01*
X164693236Y-98585021D01*
X164689787Y-98589587D01*
X164689778Y-98589598D01*
X164573779Y-98743207D01*
X164573776Y-98743211D01*
X164570327Y-98747779D01*
X164567774Y-98752904D01*
X164567772Y-98752909D01*
X164491465Y-98906156D01*
X164479418Y-98930350D01*
X164477850Y-98935858D01*
X164477847Y-98935868D01*
X164425173Y-99120995D01*
X164425170Y-99121006D01*
X164423603Y-99126517D01*
X164423073Y-99132227D01*
X164423073Y-99132232D01*
X164411788Y-99254026D01*
X164404785Y-99329600D01*
X164405314Y-99335309D01*
X164421334Y-99508204D01*
X164423603Y-99532683D01*
X164425171Y-99538194D01*
X164425173Y-99538204D01*
X164477848Y-99723333D01*
X164479002Y-99727390D01*
X164479003Y-99727392D01*
X164479418Y-99728850D01*
X164479271Y-99728891D01*
X164487002Y-99772093D01*
X164477209Y-99818515D01*
X164450698Y-99857862D01*
X164176178Y-100132383D01*
X164135953Y-100159261D01*
X164088500Y-100168700D01*
X155989100Y-100168700D01*
X155941647Y-100159261D01*
X155901419Y-100132381D01*
X155164366Y-99395328D01*
X157338800Y-99395328D01*
X157339989Y-99407404D01*
X157350922Y-99462366D01*
X157360089Y-99484499D01*
X157401775Y-99546886D01*
X157418713Y-99563824D01*
X157481100Y-99605510D01*
X157503233Y-99614677D01*
X157558195Y-99625610D01*
X157570272Y-99626800D01*
X158522474Y-99626800D01*
X158535349Y-99623349D01*
X158538800Y-99610474D01*
X159038800Y-99610474D01*
X159042250Y-99623349D01*
X159055126Y-99626800D01*
X160007328Y-99626800D01*
X160019404Y-99625610D01*
X160074366Y-99614677D01*
X160096499Y-99605510D01*
X160158886Y-99563824D01*
X160175824Y-99546886D01*
X160217510Y-99484499D01*
X160226677Y-99462366D01*
X160237610Y-99407404D01*
X160238800Y-99395328D01*
X160238800Y-98818126D01*
X160235349Y-98805250D01*
X160222474Y-98801800D01*
X159055126Y-98801800D01*
X159042250Y-98805250D01*
X159038800Y-98818126D01*
X159038800Y-99610474D01*
X158538800Y-99610474D01*
X158538800Y-98818126D01*
X158535349Y-98805250D01*
X158522474Y-98801800D01*
X157355126Y-98801800D01*
X157342250Y-98805250D01*
X157338800Y-98818126D01*
X157338800Y-99395328D01*
X155164366Y-99395328D01*
X154670019Y-98900981D01*
X154643139Y-98860753D01*
X154633700Y-98813300D01*
X154633700Y-98285474D01*
X157338800Y-98285474D01*
X157342250Y-98298349D01*
X157355126Y-98301800D01*
X158522474Y-98301800D01*
X158535349Y-98298349D01*
X158538800Y-98285474D01*
X159038800Y-98285474D01*
X159042250Y-98298349D01*
X159055126Y-98301800D01*
X160222474Y-98301800D01*
X160235349Y-98298349D01*
X160238800Y-98285474D01*
X160238800Y-97708272D01*
X160237610Y-97696195D01*
X160226677Y-97641233D01*
X160217510Y-97619100D01*
X160175824Y-97556713D01*
X160158886Y-97539775D01*
X160096499Y-97498089D01*
X160074366Y-97488922D01*
X160019404Y-97477989D01*
X160007328Y-97476800D01*
X159055126Y-97476800D01*
X159042250Y-97480250D01*
X159038800Y-97493126D01*
X159038800Y-98285474D01*
X158538800Y-98285474D01*
X158538800Y-97493126D01*
X158535349Y-97480250D01*
X158522474Y-97476800D01*
X157570272Y-97476800D01*
X157558195Y-97477989D01*
X157503233Y-97488922D01*
X157481100Y-97498089D01*
X157418713Y-97539775D01*
X157401775Y-97556713D01*
X157360089Y-97619100D01*
X157350922Y-97641233D01*
X157339989Y-97696195D01*
X157338800Y-97708272D01*
X157338800Y-98285474D01*
X154633700Y-98285474D01*
X154633700Y-96863604D01*
X154643140Y-96816150D01*
X154669940Y-96776040D01*
X154676221Y-96771221D01*
X154764461Y-96656225D01*
X154819930Y-96522309D01*
X154838850Y-96378600D01*
X154819930Y-96234891D01*
X154805845Y-96200888D01*
X154797468Y-96137252D01*
X154822031Y-96077950D01*
X154872954Y-96038876D01*
X154936589Y-96030498D01*
X155031755Y-96043027D01*
X155070410Y-96054753D01*
X155103247Y-96078284D01*
X156043450Y-97018487D01*
X156059574Y-97038341D01*
X156065516Y-97047436D01*
X156073618Y-97053742D01*
X156073621Y-97053745D01*
X156090494Y-97066877D01*
X156094411Y-97070337D01*
X156094545Y-97070180D01*
X156098454Y-97073491D01*
X156102083Y-97077120D01*
X156106255Y-97080098D01*
X156106260Y-97080103D01*
X156118995Y-97089195D01*
X156123099Y-97092255D01*
X156164411Y-97124409D01*
X156171931Y-97126990D01*
X156178401Y-97131610D01*
X156188248Y-97134541D01*
X156188251Y-97134543D01*
X156228560Y-97146543D01*
X156233404Y-97148094D01*
X156282940Y-97165100D01*
X156290891Y-97165100D01*
X156298512Y-97167369D01*
X156350806Y-97165205D01*
X156355931Y-97165100D01*
X164390815Y-97165100D01*
X164456093Y-97183673D01*
X164501814Y-97233828D01*
X164570327Y-97371421D01*
X164573779Y-97375992D01*
X164689778Y-97529601D01*
X164689783Y-97529606D01*
X164693236Y-97534179D01*
X164697472Y-97538040D01*
X164697476Y-97538045D01*
X164786390Y-97619100D01*
X164843959Y-97671581D01*
X165017363Y-97778948D01*
X165207544Y-97852624D01*
X165408024Y-97890100D01*
X165606247Y-97890100D01*
X165611976Y-97890100D01*
X165812456Y-97852624D01*
X166002637Y-97778948D01*
X166176041Y-97671581D01*
X166326764Y-97534179D01*
X166449673Y-97371421D01*
X166540582Y-97188850D01*
X166596397Y-96992683D01*
X166615215Y-96789600D01*
X166596397Y-96586517D01*
X166540582Y-96390350D01*
X166449673Y-96207779D01*
X166374690Y-96108485D01*
X166330221Y-96049598D01*
X166330217Y-96049594D01*
X166326764Y-96045021D01*
X166322527Y-96041158D01*
X166322523Y-96041154D01*
X166180275Y-95911479D01*
X166180276Y-95911479D01*
X166176041Y-95907619D01*
X166171171Y-95904604D01*
X166171169Y-95904602D01*
X166007511Y-95803270D01*
X166007512Y-95803270D01*
X166002637Y-95800252D01*
X165997294Y-95798182D01*
X165817803Y-95728647D01*
X165817798Y-95728645D01*
X165812456Y-95726576D01*
X165803009Y-95724810D01*
X165617605Y-95690152D01*
X165617602Y-95690151D01*
X165611976Y-95689100D01*
X165408024Y-95689100D01*
X165402398Y-95690151D01*
X165402394Y-95690152D01*
X165213181Y-95725522D01*
X165213178Y-95725522D01*
X165207544Y-95726576D01*
X165202203Y-95728644D01*
X165202196Y-95728647D01*
X165022705Y-95798182D01*
X165022700Y-95798184D01*
X165017363Y-95800252D01*
X165012491Y-95803268D01*
X165012488Y-95803270D01*
X164848830Y-95904602D01*
X164848822Y-95904607D01*
X164843959Y-95907619D01*
X164839728Y-95911475D01*
X164839724Y-95911479D01*
X164697476Y-96041154D01*
X164697466Y-96041164D01*
X164693236Y-96045021D01*
X164689787Y-96049587D01*
X164689778Y-96049598D01*
X164573779Y-96203207D01*
X164573776Y-96203211D01*
X164570327Y-96207779D01*
X164567774Y-96212904D01*
X164567772Y-96212909D01*
X164501815Y-96345371D01*
X164456093Y-96395527D01*
X164390815Y-96414100D01*
X156552499Y-96414100D01*
X156505046Y-96404661D01*
X156464818Y-96377781D01*
X155634284Y-95547246D01*
X155610753Y-95514409D01*
X155599027Y-95475753D01*
X155581930Y-95345891D01*
X155526461Y-95211975D01*
X155438221Y-95096979D01*
X155323225Y-95008739D01*
X155224980Y-94968045D01*
X155196823Y-94956382D01*
X155196820Y-94956381D01*
X155189309Y-94953270D01*
X155181249Y-94952208D01*
X155181246Y-94952208D01*
X155053659Y-94935411D01*
X155045600Y-94934350D01*
X155037541Y-94935411D01*
X154909953Y-94952208D01*
X154909948Y-94952209D01*
X154901891Y-94953270D01*
X154894381Y-94956380D01*
X154894376Y-94956382D01*
X154775485Y-95005628D01*
X154775483Y-95005629D01*
X154767975Y-95008739D01*
X154761533Y-95013682D01*
X154761528Y-95013685D01*
X154659421Y-95092035D01*
X154659417Y-95092038D01*
X154652979Y-95096979D01*
X154648038Y-95103417D01*
X154648035Y-95103421D01*
X154569685Y-95205528D01*
X154569682Y-95205533D01*
X154564739Y-95211975D01*
X154561629Y-95219483D01*
X154561628Y-95219485D01*
X154512382Y-95338376D01*
X154512380Y-95338381D01*
X154509270Y-95345891D01*
X154508209Y-95353948D01*
X154508208Y-95353953D01*
X154499654Y-95418930D01*
X154490350Y-95489600D01*
X154491411Y-95497659D01*
X154507659Y-95621078D01*
X154509270Y-95633309D01*
X154512380Y-95640819D01*
X154512381Y-95640820D01*
X154523354Y-95667311D01*
X154531731Y-95730949D01*
X154507167Y-95790249D01*
X154456244Y-95829323D01*
X154392607Y-95837701D01*
X154291660Y-95824411D01*
X154291659Y-95824411D01*
X154283600Y-95823350D01*
X154275541Y-95824411D01*
X154147953Y-95841208D01*
X154147948Y-95841209D01*
X154139891Y-95842270D01*
X154132381Y-95845380D01*
X154132376Y-95845382D01*
X154013485Y-95894628D01*
X154013483Y-95894629D01*
X154005975Y-95897739D01*
X153999533Y-95902682D01*
X153999528Y-95902685D01*
X153897421Y-95981035D01*
X153897417Y-95981038D01*
X153890979Y-95985979D01*
X153886038Y-95992417D01*
X153886035Y-95992421D01*
X153807685Y-96094528D01*
X153807682Y-96094533D01*
X153802739Y-96100975D01*
X153799629Y-96108483D01*
X153799628Y-96108485D01*
X153750382Y-96227376D01*
X153750380Y-96227381D01*
X153747270Y-96234891D01*
X153746209Y-96242948D01*
X153746208Y-96242953D01*
X153732725Y-96345371D01*
X153728350Y-96378600D01*
X153262100Y-96378600D01*
X153262100Y-94930627D01*
X153268681Y-94890768D01*
X153287724Y-94855140D01*
X153362514Y-94757672D01*
X153362513Y-94757672D01*
X153367461Y-94751225D01*
X153422930Y-94617309D01*
X153441850Y-94473600D01*
X153422930Y-94329891D01*
X153367461Y-94195975D01*
X153288138Y-94092600D01*
X155887350Y-94092600D01*
X155888411Y-94100659D01*
X155904821Y-94225309D01*
X155906270Y-94236309D01*
X155909381Y-94243820D01*
X155909382Y-94243823D01*
X155941918Y-94322373D01*
X155961739Y-94370225D01*
X155966684Y-94376669D01*
X155966685Y-94376671D01*
X156029248Y-94458204D01*
X156049979Y-94485221D01*
X156164975Y-94573461D01*
X156298891Y-94628930D01*
X156442600Y-94647850D01*
X156586309Y-94628930D01*
X156587504Y-94628434D01*
X156612827Y-94625100D01*
X164390815Y-94625100D01*
X164456093Y-94643673D01*
X164501814Y-94693828D01*
X164570327Y-94831421D01*
X164573779Y-94835992D01*
X164689778Y-94989601D01*
X164689783Y-94989606D01*
X164693236Y-94994179D01*
X164697472Y-94998040D01*
X164697476Y-94998045D01*
X164799227Y-95090803D01*
X164843959Y-95131581D01*
X165017363Y-95238948D01*
X165207544Y-95312624D01*
X165408024Y-95350100D01*
X165606247Y-95350100D01*
X165611976Y-95350100D01*
X165812456Y-95312624D01*
X166002637Y-95238948D01*
X166176041Y-95131581D01*
X166326764Y-94994179D01*
X166449673Y-94831421D01*
X166540582Y-94648850D01*
X166596397Y-94452683D01*
X166615215Y-94249600D01*
X166596397Y-94046517D01*
X166580210Y-93989628D01*
X166542152Y-93855868D01*
X166540582Y-93850350D01*
X166449673Y-93667779D01*
X166401176Y-93603559D01*
X166330221Y-93509598D01*
X166330217Y-93509594D01*
X166326764Y-93505021D01*
X166322527Y-93501158D01*
X166322523Y-93501154D01*
X166180275Y-93371479D01*
X166180276Y-93371479D01*
X166176041Y-93367619D01*
X166171171Y-93364604D01*
X166171169Y-93364602D01*
X166025687Y-93274524D01*
X166002637Y-93260252D01*
X165973334Y-93248900D01*
X165817803Y-93188647D01*
X165817798Y-93188645D01*
X165812456Y-93186576D01*
X165806818Y-93185522D01*
X165617605Y-93150152D01*
X165617602Y-93150151D01*
X165611976Y-93149100D01*
X165408024Y-93149100D01*
X165402398Y-93150151D01*
X165402394Y-93150152D01*
X165213181Y-93185522D01*
X165213178Y-93185522D01*
X165207544Y-93186576D01*
X165202203Y-93188644D01*
X165202196Y-93188647D01*
X165022705Y-93258182D01*
X165022700Y-93258184D01*
X165017363Y-93260252D01*
X165012491Y-93263268D01*
X165012488Y-93263270D01*
X164848830Y-93364602D01*
X164848822Y-93364607D01*
X164843959Y-93367619D01*
X164839728Y-93371475D01*
X164839724Y-93371479D01*
X164697476Y-93501154D01*
X164697466Y-93501164D01*
X164693236Y-93505021D01*
X164689787Y-93509587D01*
X164689778Y-93509598D01*
X164573779Y-93663207D01*
X164573776Y-93663211D01*
X164570327Y-93667779D01*
X164567774Y-93672904D01*
X164567772Y-93672909D01*
X164501815Y-93805371D01*
X164456093Y-93855527D01*
X164390815Y-93874100D01*
X157027963Y-93874100D01*
X156965960Y-93857485D01*
X156923466Y-93814988D01*
X156923461Y-93814975D01*
X156835221Y-93699979D01*
X156799943Y-93672909D01*
X156726671Y-93616685D01*
X156726669Y-93616684D01*
X156720225Y-93611739D01*
X156684192Y-93596814D01*
X156593823Y-93559382D01*
X156593820Y-93559381D01*
X156586309Y-93556270D01*
X156578249Y-93555208D01*
X156578246Y-93555208D01*
X156450659Y-93538411D01*
X156442600Y-93537350D01*
X156434541Y-93538411D01*
X156306953Y-93555208D01*
X156306948Y-93555209D01*
X156298891Y-93556270D01*
X156291381Y-93559380D01*
X156291376Y-93559382D01*
X156172485Y-93608628D01*
X156172483Y-93608629D01*
X156164975Y-93611739D01*
X156158533Y-93616682D01*
X156158528Y-93616685D01*
X156056421Y-93695035D01*
X156056417Y-93695038D01*
X156049979Y-93699979D01*
X156045038Y-93706417D01*
X156045035Y-93706421D01*
X155966685Y-93808528D01*
X155966682Y-93808533D01*
X155961739Y-93814975D01*
X155958629Y-93822483D01*
X155958628Y-93822485D01*
X155909382Y-93941376D01*
X155909380Y-93941381D01*
X155906270Y-93948891D01*
X155905209Y-93956948D01*
X155905208Y-93956953D01*
X155890539Y-94068376D01*
X155887350Y-94092600D01*
X153288138Y-94092600D01*
X153279221Y-94080979D01*
X153262797Y-94068376D01*
X153170671Y-93997685D01*
X153170669Y-93997684D01*
X153164225Y-93992739D01*
X153077829Y-93956953D01*
X153037823Y-93940382D01*
X153037820Y-93940381D01*
X153030309Y-93937270D01*
X153022249Y-93936208D01*
X153022246Y-93936208D01*
X152894659Y-93919411D01*
X152886600Y-93918350D01*
X152878541Y-93919411D01*
X152750953Y-93936208D01*
X152750948Y-93936209D01*
X152742891Y-93937270D01*
X152735381Y-93940380D01*
X152735376Y-93940382D01*
X152616485Y-93989628D01*
X152616483Y-93989629D01*
X152608975Y-93992739D01*
X152602533Y-93997682D01*
X152602528Y-93997685D01*
X152500421Y-94076035D01*
X152500417Y-94076038D01*
X152493979Y-94080979D01*
X152489038Y-94087417D01*
X152489035Y-94087421D01*
X152410685Y-94189528D01*
X152410682Y-94189533D01*
X152405739Y-94195975D01*
X152402629Y-94203483D01*
X152402628Y-94203485D01*
X152353382Y-94322376D01*
X152353380Y-94322381D01*
X152350270Y-94329891D01*
X152349209Y-94337948D01*
X152349208Y-94337953D01*
X152334856Y-94446967D01*
X152331350Y-94473600D01*
X152332411Y-94481659D01*
X152349079Y-94608268D01*
X152350270Y-94617309D01*
X152353381Y-94624820D01*
X152353382Y-94624823D01*
X152365462Y-94653987D01*
X152405739Y-94751225D01*
X152410682Y-94757666D01*
X152410685Y-94757672D01*
X152485476Y-94855140D01*
X152504519Y-94890768D01*
X152511100Y-94930627D01*
X152511100Y-107731395D01*
X152508460Y-107756844D01*
X152508341Y-107757409D01*
X152508340Y-107757416D01*
X152506233Y-107767468D01*
X152507503Y-107777658D01*
X152507503Y-107777662D01*
X152510148Y-107798876D01*
X152510471Y-107804091D01*
X152510677Y-107804074D01*
X152511100Y-107809181D01*
X152511100Y-107814314D01*
X152511944Y-107819372D01*
X152511945Y-107819384D01*
X152514518Y-107834803D01*
X152515257Y-107839870D01*
X152519036Y-107870184D01*
X152521734Y-107891826D01*
X152525226Y-107898970D01*
X152526535Y-107906810D01*
X152551445Y-107952841D01*
X152553771Y-107957361D01*
X152572260Y-107995179D01*
X152572261Y-107995181D01*
X152576774Y-108004411D01*
X152582397Y-108010034D01*
X152586181Y-108017026D01*
X152593738Y-108023982D01*
X152593739Y-108023984D01*
X152624681Y-108052468D01*
X152628379Y-108056016D01*
X153474781Y-108902419D01*
X153505031Y-108951782D01*
X153509573Y-109009498D01*
X153487418Y-109062985D01*
X153443395Y-109100585D01*
X153387100Y-109114100D01*
X153098099Y-109114100D01*
X153050646Y-109104661D01*
X153010418Y-109077781D01*
X151647419Y-107714781D01*
X151620539Y-107674553D01*
X151611100Y-107627100D01*
X151611100Y-94930627D01*
X151617681Y-94890768D01*
X151636724Y-94855140D01*
X151711514Y-94757672D01*
X151711513Y-94757672D01*
X151716461Y-94751225D01*
X151771930Y-94617309D01*
X151790850Y-94473600D01*
X151771930Y-94329891D01*
X151716461Y-94195975D01*
X151628221Y-94080979D01*
X151611797Y-94068376D01*
X151519671Y-93997685D01*
X151519669Y-93997684D01*
X151513225Y-93992739D01*
X151426829Y-93956953D01*
X151386823Y-93940382D01*
X151386820Y-93940381D01*
X151379309Y-93937270D01*
X151371249Y-93936208D01*
X151371246Y-93936208D01*
X151243659Y-93919411D01*
X151235600Y-93918350D01*
X151227541Y-93919411D01*
X151099953Y-93936208D01*
X151099948Y-93936209D01*
X151091891Y-93937270D01*
X151084379Y-93940381D01*
X151084373Y-93940383D01*
X151078036Y-93943008D01*
X151011187Y-93950916D01*
X150950056Y-93922731D01*
X150912659Y-93866759D01*
X150910017Y-93799495D01*
X150942908Y-93740765D01*
X152915361Y-91768311D01*
X152955586Y-91741434D01*
X152986425Y-91728661D01*
X153101421Y-91640421D01*
X153189661Y-91525425D01*
X153245130Y-91391509D01*
X153264050Y-91247800D01*
X153245130Y-91104091D01*
X153189661Y-90970175D01*
X153101421Y-90855179D01*
X153065504Y-90827619D01*
X152992871Y-90771885D01*
X152992869Y-90771884D01*
X152986425Y-90766939D01*
X152950392Y-90752014D01*
X152860023Y-90714582D01*
X152860020Y-90714581D01*
X152852509Y-90711470D01*
X152844449Y-90710408D01*
X152844446Y-90710408D01*
X152716859Y-90693611D01*
X152708800Y-90692550D01*
X152700741Y-90693611D01*
X152573153Y-90710408D01*
X152573148Y-90710409D01*
X152565091Y-90711470D01*
X152557581Y-90714580D01*
X152557576Y-90714582D01*
X152438685Y-90763828D01*
X152438683Y-90763829D01*
X152431175Y-90766939D01*
X152424733Y-90771882D01*
X152424728Y-90771885D01*
X152322621Y-90850235D01*
X152322617Y-90850238D01*
X152316179Y-90855179D01*
X152311238Y-90861617D01*
X152311235Y-90861621D01*
X152232885Y-90963727D01*
X152232879Y-90963736D01*
X152227939Y-90970175D01*
X152224830Y-90977679D01*
X152224828Y-90977684D01*
X152187927Y-91066771D01*
X152161047Y-91106999D01*
X149341399Y-93926646D01*
X149280557Y-93960026D01*
X149211308Y-93955487D01*
X149155342Y-93914452D01*
X149096724Y-93838060D01*
X149077681Y-93802432D01*
X149071100Y-93762573D01*
X149071100Y-91279319D01*
X149073739Y-91253873D01*
X149073741Y-91253859D01*
X149075967Y-91243247D01*
X149072051Y-91211840D01*
X149071728Y-91206629D01*
X149071524Y-91206646D01*
X149071100Y-91201531D01*
X149071100Y-91196402D01*
X149067669Y-91175845D01*
X149066942Y-91170856D01*
X149060465Y-91118890D01*
X149056973Y-91111748D01*
X149055665Y-91103906D01*
X149030756Y-91057879D01*
X149028414Y-91053327D01*
X149013640Y-91023106D01*
X149005426Y-91006304D01*
X148999801Y-91000679D01*
X148996019Y-90993690D01*
X148957505Y-90958235D01*
X148953831Y-90954709D01*
X147981135Y-89982013D01*
X147947755Y-89921170D01*
X147952294Y-89851921D01*
X147993329Y-89795957D01*
X148072221Y-89735421D01*
X148160461Y-89620425D01*
X148215930Y-89486509D01*
X148230086Y-89378984D01*
X148254649Y-89319683D01*
X148305573Y-89280609D01*
X148369208Y-89272231D01*
X148492400Y-89288450D01*
X148590623Y-89275518D01*
X148654259Y-89283896D01*
X148705182Y-89322970D01*
X148729746Y-89382271D01*
X148742408Y-89478445D01*
X148743470Y-89486509D01*
X148746581Y-89494020D01*
X148746582Y-89494023D01*
X148779704Y-89573987D01*
X148798939Y-89620425D01*
X148887179Y-89735421D01*
X149002175Y-89823661D01*
X149136091Y-89879130D01*
X149279800Y-89898050D01*
X149423509Y-89879130D01*
X149557425Y-89823661D01*
X149672421Y-89735421D01*
X149760661Y-89620425D01*
X149816130Y-89486509D01*
X149829962Y-89381442D01*
X149854525Y-89322143D01*
X149905449Y-89283068D01*
X149969085Y-89274690D01*
X150073600Y-89288450D01*
X150190500Y-89273059D01*
X150254135Y-89281436D01*
X150305058Y-89320511D01*
X150329622Y-89379812D01*
X150342608Y-89478445D01*
X150343670Y-89486509D01*
X150346781Y-89494020D01*
X150346782Y-89494023D01*
X150379904Y-89573987D01*
X150399139Y-89620425D01*
X150487379Y-89735421D01*
X150602375Y-89823661D01*
X150736291Y-89879130D01*
X150880000Y-89898050D01*
X151023709Y-89879130D01*
X151157625Y-89823661D01*
X151272621Y-89735421D01*
X151360861Y-89620425D01*
X151416330Y-89486509D01*
X151435250Y-89342800D01*
X151416330Y-89199091D01*
X151360861Y-89065175D01*
X151355916Y-89058730D01*
X151355914Y-89058727D01*
X151281124Y-88961260D01*
X151262081Y-88925632D01*
X151255500Y-88885773D01*
X151255500Y-86093903D01*
X151264939Y-86046450D01*
X151291819Y-86006222D01*
X151327101Y-85970940D01*
X151707599Y-85590440D01*
X151768439Y-85557062D01*
X151837688Y-85561601D01*
X151893653Y-85602635D01*
X151960470Y-85689712D01*
X152075466Y-85777952D01*
X152209382Y-85833421D01*
X152353091Y-85852341D01*
X152496800Y-85833421D01*
X152630716Y-85777952D01*
X152678540Y-85741254D01*
X152731429Y-85717706D01*
X152789244Y-85720735D01*
X152839383Y-85749682D01*
X152870915Y-85798236D01*
X152876967Y-85855814D01*
X152861811Y-85970940D01*
X152860750Y-85979000D01*
X152861811Y-85987059D01*
X152875877Y-86093903D01*
X152879670Y-86122709D01*
X152882781Y-86130220D01*
X152882782Y-86130223D01*
X152899756Y-86171201D01*
X152935139Y-86256625D01*
X152940084Y-86263069D01*
X152940085Y-86263071D01*
X153013601Y-86358878D01*
X153023379Y-86371621D01*
X153138375Y-86459861D01*
X153272291Y-86515330D01*
X153416000Y-86534250D01*
X153559709Y-86515330D01*
X153654701Y-86475983D01*
X153702147Y-86466546D01*
X153749600Y-86475985D01*
X153789828Y-86502865D01*
X153958831Y-86671868D01*
X153990924Y-86727452D01*
X153990927Y-86791635D01*
X153958840Y-86847222D01*
X153910826Y-86874949D01*
X153911291Y-86876070D01*
X153784885Y-86928428D01*
X153784883Y-86928429D01*
X153777375Y-86931539D01*
X153770933Y-86936482D01*
X153770928Y-86936485D01*
X153668821Y-87014835D01*
X153668817Y-87014838D01*
X153662379Y-87019779D01*
X153657438Y-87026217D01*
X153657435Y-87026221D01*
X153579085Y-87128328D01*
X153579082Y-87128333D01*
X153574139Y-87134775D01*
X153571029Y-87142283D01*
X153571028Y-87142285D01*
X153521782Y-87261176D01*
X153521780Y-87261181D01*
X153518670Y-87268691D01*
X153517609Y-87276748D01*
X153517608Y-87276753D01*
X153501573Y-87398550D01*
X153489846Y-87437208D01*
X153466315Y-87470045D01*
X153064107Y-87872253D01*
X153044258Y-87888373D01*
X153035164Y-87894316D01*
X153028858Y-87902417D01*
X153028852Y-87902423D01*
X153015720Y-87919295D01*
X153012273Y-87923222D01*
X153012418Y-87923345D01*
X153009105Y-87927255D01*
X153005480Y-87930882D01*
X153002505Y-87935048D01*
X153002498Y-87935057D01*
X152993401Y-87947799D01*
X152990342Y-87951901D01*
X152964500Y-87985103D01*
X152964496Y-87985110D01*
X152958191Y-87993211D01*
X152955609Y-88000731D01*
X152950990Y-88007201D01*
X152948060Y-88017041D01*
X152948058Y-88017046D01*
X152936056Y-88057357D01*
X152934495Y-88062229D01*
X152920836Y-88102019D01*
X152920835Y-88102024D01*
X152917500Y-88111740D01*
X152917500Y-88119694D01*
X152915232Y-88127312D01*
X152915656Y-88137575D01*
X152915656Y-88137579D01*
X152917394Y-88179593D01*
X152917500Y-88184716D01*
X152917500Y-89798995D01*
X152914860Y-89824444D01*
X152914741Y-89825009D01*
X152914740Y-89825016D01*
X152912633Y-89835068D01*
X152913903Y-89845258D01*
X152913903Y-89845262D01*
X152916548Y-89866476D01*
X152916871Y-89871691D01*
X152917077Y-89871674D01*
X152917500Y-89876781D01*
X152917500Y-89881914D01*
X152918344Y-89886972D01*
X152918345Y-89886984D01*
X152920918Y-89902403D01*
X152921657Y-89907470D01*
X152923365Y-89921170D01*
X152928134Y-89959426D01*
X152931626Y-89966570D01*
X152932935Y-89974410D01*
X152957845Y-90020441D01*
X152960171Y-90024961D01*
X152978660Y-90062779D01*
X152978661Y-90062781D01*
X152983174Y-90072011D01*
X152988797Y-90077634D01*
X152992581Y-90084626D01*
X153000138Y-90091582D01*
X153000139Y-90091584D01*
X153031082Y-90120069D01*
X153034780Y-90123617D01*
X154849650Y-91938487D01*
X154865774Y-91958341D01*
X154871716Y-91967436D01*
X154879818Y-91973742D01*
X154879821Y-91973745D01*
X154896694Y-91986877D01*
X154900608Y-91990334D01*
X154900742Y-91990177D01*
X154904648Y-91993485D01*
X154908282Y-91997119D01*
X154920400Y-92005771D01*
X154925189Y-92009190D01*
X154929300Y-92012255D01*
X154970611Y-92044409D01*
X154978131Y-92046990D01*
X154984601Y-92051610D01*
X155034799Y-92066554D01*
X155039591Y-92068090D01*
X155089140Y-92085100D01*
X155097094Y-92085100D01*
X155104712Y-92087368D01*
X155156992Y-92085206D01*
X155162116Y-92085100D01*
X164390815Y-92085100D01*
X164456093Y-92103673D01*
X164501814Y-92153828D01*
X164570327Y-92291421D01*
X164573779Y-92295992D01*
X164689778Y-92449601D01*
X164689783Y-92449606D01*
X164693236Y-92454179D01*
X164697472Y-92458040D01*
X164697476Y-92458045D01*
X164763488Y-92518222D01*
X164843959Y-92591581D01*
X165017363Y-92698948D01*
X165207544Y-92772624D01*
X165408024Y-92810100D01*
X165606247Y-92810100D01*
X165611976Y-92810100D01*
X165812456Y-92772624D01*
X166002637Y-92698948D01*
X166176041Y-92591581D01*
X166326764Y-92454179D01*
X166449673Y-92291421D01*
X166540582Y-92108850D01*
X166596397Y-91912683D01*
X166615215Y-91709600D01*
X166596397Y-91506517D01*
X166591134Y-91488021D01*
X166542152Y-91315868D01*
X166540582Y-91310350D01*
X166449673Y-91127779D01*
X166375435Y-91029472D01*
X166330221Y-90969598D01*
X166330217Y-90969594D01*
X166326764Y-90965021D01*
X166322527Y-90961158D01*
X166322523Y-90961154D01*
X166180275Y-90831479D01*
X166180276Y-90831479D01*
X166176041Y-90827619D01*
X166171171Y-90824604D01*
X166171169Y-90824602D01*
X166007511Y-90723270D01*
X166007512Y-90723270D01*
X166002637Y-90720252D01*
X165977227Y-90710408D01*
X165817803Y-90648647D01*
X165817798Y-90648645D01*
X165812456Y-90646576D01*
X165806818Y-90645522D01*
X165617605Y-90610152D01*
X165617602Y-90610151D01*
X165611976Y-90609100D01*
X165408024Y-90609100D01*
X165402398Y-90610151D01*
X165402394Y-90610152D01*
X165213181Y-90645522D01*
X165213178Y-90645522D01*
X165207544Y-90646576D01*
X165202203Y-90648644D01*
X165202196Y-90648647D01*
X165022705Y-90718182D01*
X165022700Y-90718184D01*
X165017363Y-90720252D01*
X165012491Y-90723268D01*
X165012488Y-90723270D01*
X164848830Y-90824602D01*
X164848822Y-90824607D01*
X164843959Y-90827619D01*
X164839728Y-90831475D01*
X164839724Y-90831479D01*
X164697476Y-90961154D01*
X164697466Y-90961164D01*
X164693236Y-90965021D01*
X164689787Y-90969587D01*
X164689778Y-90969598D01*
X164573779Y-91123207D01*
X164573776Y-91123211D01*
X164570327Y-91127779D01*
X164567774Y-91132904D01*
X164567772Y-91132909D01*
X164531056Y-91206646D01*
X164507825Y-91253302D01*
X164501815Y-91265371D01*
X164456093Y-91315527D01*
X164390815Y-91334100D01*
X155358699Y-91334100D01*
X155311246Y-91324661D01*
X155271018Y-91297781D01*
X153704819Y-89731581D01*
X153677939Y-89691353D01*
X153668500Y-89643900D01*
X153668500Y-88381299D01*
X153677939Y-88333846D01*
X153704816Y-88293620D01*
X153997356Y-88001079D01*
X154030187Y-87977554D01*
X154068845Y-87965827D01*
X154198709Y-87948730D01*
X154332625Y-87893261D01*
X154447621Y-87805021D01*
X154535861Y-87690025D01*
X154591330Y-87556109D01*
X154592452Y-87556574D01*
X154620167Y-87508570D01*
X154675755Y-87476475D01*
X154739943Y-87476474D01*
X154795530Y-87508567D01*
X154967994Y-87681032D01*
X155131450Y-87844488D01*
X155147577Y-87864346D01*
X155153516Y-87873436D01*
X155161622Y-87879745D01*
X155161623Y-87879746D01*
X155178489Y-87892873D01*
X155182410Y-87896335D01*
X155182543Y-87896179D01*
X155186451Y-87899489D01*
X155190082Y-87903120D01*
X155194255Y-87906099D01*
X155194263Y-87906106D01*
X155206996Y-87915196D01*
X155211111Y-87918264D01*
X155244296Y-87944093D01*
X155252411Y-87950409D01*
X155259931Y-87952990D01*
X155266401Y-87957610D01*
X155316599Y-87972554D01*
X155321391Y-87974090D01*
X155370940Y-87991100D01*
X155378894Y-87991100D01*
X155386512Y-87993368D01*
X155438792Y-87991206D01*
X155443916Y-87991100D01*
X163749101Y-87991100D01*
X163796554Y-88000539D01*
X163836782Y-88027419D01*
X164450698Y-88641335D01*
X164477207Y-88680676D01*
X164487002Y-88727093D01*
X164479273Y-88770308D01*
X164479418Y-88770350D01*
X164479009Y-88771784D01*
X164479007Y-88771793D01*
X164477852Y-88775852D01*
X164477851Y-88775856D01*
X164425173Y-88960995D01*
X164425170Y-88961006D01*
X164423603Y-88966517D01*
X164423073Y-88972227D01*
X164423073Y-88972232D01*
X164414461Y-89065175D01*
X164404785Y-89169600D01*
X164405314Y-89175309D01*
X164421580Y-89350859D01*
X164423603Y-89372683D01*
X164425171Y-89378194D01*
X164425173Y-89378204D01*
X164477847Y-89563331D01*
X164477849Y-89563337D01*
X164479418Y-89568850D01*
X164570327Y-89751421D01*
X164573779Y-89755992D01*
X164689778Y-89909601D01*
X164689783Y-89909606D01*
X164693236Y-89914179D01*
X164697472Y-89918040D01*
X164697476Y-89918045D01*
X164757359Y-89972635D01*
X164843959Y-90051581D01*
X165017363Y-90158948D01*
X165207544Y-90232624D01*
X165408024Y-90270100D01*
X165606247Y-90270100D01*
X165611976Y-90270100D01*
X165812456Y-90232624D01*
X166002637Y-90158948D01*
X166176041Y-90051581D01*
X166326764Y-89914179D01*
X166449673Y-89751421D01*
X166540582Y-89568850D01*
X166596397Y-89372683D01*
X166615215Y-89169600D01*
X166596397Y-88966517D01*
X166591748Y-88950179D01*
X166542152Y-88775868D01*
X166540582Y-88770350D01*
X166449673Y-88587779D01*
X166376454Y-88490821D01*
X166330221Y-88429598D01*
X166330217Y-88429594D01*
X166326764Y-88425021D01*
X166322527Y-88421158D01*
X166322523Y-88421154D01*
X166196882Y-88306618D01*
X166176041Y-88287619D01*
X166171171Y-88284604D01*
X166171169Y-88284602D01*
X166053497Y-88211743D01*
X166002637Y-88180252D01*
X165997294Y-88178182D01*
X165817803Y-88108647D01*
X165817798Y-88108645D01*
X165812456Y-88106576D01*
X165806818Y-88105522D01*
X165617605Y-88070152D01*
X165617602Y-88070151D01*
X165611976Y-88069100D01*
X165408024Y-88069100D01*
X165402398Y-88070151D01*
X165402394Y-88070152D01*
X165213174Y-88105523D01*
X165213168Y-88105524D01*
X165207544Y-88106576D01*
X165202209Y-88108642D01*
X165202201Y-88108645D01*
X165117445Y-88141480D01*
X165070742Y-88149838D01*
X165024318Y-88140045D01*
X164984971Y-88113534D01*
X164258150Y-87386712D01*
X164242022Y-87366851D01*
X164241706Y-87366368D01*
X164241703Y-87366365D01*
X164236084Y-87357764D01*
X164211109Y-87338325D01*
X164207190Y-87334864D01*
X164207058Y-87335021D01*
X164203143Y-87331705D01*
X164199518Y-87328080D01*
X164182591Y-87315995D01*
X164178481Y-87312930D01*
X164145297Y-87287102D01*
X164137189Y-87280791D01*
X164129668Y-87278209D01*
X164123199Y-87273590D01*
X164113353Y-87270658D01*
X164113350Y-87270657D01*
X164073043Y-87258656D01*
X164068168Y-87257095D01*
X164036962Y-87246383D01*
X163980642Y-87206872D01*
X163954051Y-87143422D01*
X163965373Y-87075564D01*
X164011124Y-87024185D01*
X164077221Y-87005100D01*
X164390815Y-87005100D01*
X164456093Y-87023673D01*
X164501814Y-87073828D01*
X164570327Y-87211421D01*
X164573779Y-87215992D01*
X164689778Y-87369601D01*
X164689783Y-87369606D01*
X164693236Y-87374179D01*
X164697472Y-87378040D01*
X164697476Y-87378045D01*
X164798396Y-87470045D01*
X164843959Y-87511581D01*
X165017363Y-87618948D01*
X165207544Y-87692624D01*
X165408024Y-87730100D01*
X165606247Y-87730100D01*
X165611976Y-87730100D01*
X165812456Y-87692624D01*
X166002637Y-87618948D01*
X166176041Y-87511581D01*
X166326764Y-87374179D01*
X166449673Y-87211421D01*
X166540582Y-87028850D01*
X166596397Y-86832683D01*
X166615215Y-86629600D01*
X166596397Y-86426517D01*
X166560336Y-86299779D01*
X166542152Y-86235868D01*
X166540582Y-86230350D01*
X166449673Y-86047779D01*
X166391647Y-85970940D01*
X166330221Y-85889598D01*
X166330217Y-85889594D01*
X166326764Y-85885021D01*
X166322527Y-85881158D01*
X166322523Y-85881154D01*
X166180275Y-85751479D01*
X166180276Y-85751479D01*
X166176041Y-85747619D01*
X166171171Y-85744604D01*
X166171169Y-85744602D01*
X166019191Y-85650502D01*
X166002637Y-85640252D01*
X165997294Y-85638182D01*
X165817803Y-85568647D01*
X165817798Y-85568645D01*
X165812456Y-85566576D01*
X165768638Y-85558385D01*
X165617605Y-85530152D01*
X165617602Y-85530151D01*
X165611976Y-85529100D01*
X165408024Y-85529100D01*
X165402398Y-85530151D01*
X165402394Y-85530152D01*
X165213181Y-85565522D01*
X165213178Y-85565522D01*
X165207544Y-85566576D01*
X165202203Y-85568644D01*
X165202196Y-85568647D01*
X165022705Y-85638182D01*
X165022700Y-85638184D01*
X165017363Y-85640252D01*
X165012491Y-85643268D01*
X165012488Y-85643270D01*
X164848830Y-85744602D01*
X164848822Y-85744607D01*
X164843959Y-85747619D01*
X164839728Y-85751475D01*
X164839724Y-85751479D01*
X164697476Y-85881154D01*
X164697466Y-85881164D01*
X164693236Y-85885021D01*
X164689787Y-85889587D01*
X164689778Y-85889598D01*
X164573779Y-86043207D01*
X164573776Y-86043211D01*
X164570327Y-86047779D01*
X164567774Y-86052904D01*
X164567772Y-86052909D01*
X164501815Y-86185371D01*
X164456093Y-86235527D01*
X164390815Y-86254100D01*
X157365299Y-86254100D01*
X157317846Y-86244661D01*
X157277618Y-86217781D01*
X156249937Y-85190100D01*
X155195350Y-84135512D01*
X155179222Y-84115651D01*
X155178906Y-84115168D01*
X155178903Y-84115165D01*
X155173284Y-84106564D01*
X155148309Y-84087125D01*
X155144390Y-84083664D01*
X155144258Y-84083821D01*
X155140343Y-84080505D01*
X155136718Y-84076880D01*
X155119791Y-84064795D01*
X155115681Y-84061730D01*
X155082497Y-84035902D01*
X155074389Y-84029591D01*
X155066868Y-84027009D01*
X155060399Y-84022390D01*
X155050553Y-84019458D01*
X155050550Y-84019457D01*
X155010243Y-84007456D01*
X155005367Y-84005894D01*
X154965581Y-83992236D01*
X154965574Y-83992234D01*
X154955860Y-83988900D01*
X154947906Y-83988900D01*
X154940288Y-83986632D01*
X154930023Y-83987056D01*
X154930020Y-83987056D01*
X154888007Y-83988794D01*
X154882884Y-83988900D01*
X153608503Y-83988900D01*
X153552208Y-83975385D01*
X153508185Y-83937785D01*
X153486030Y-83884298D01*
X153490572Y-83826582D01*
X153520822Y-83777219D01*
X153741022Y-83557019D01*
X153781250Y-83530139D01*
X153828703Y-83520700D01*
X156569773Y-83520700D01*
X156609632Y-83527281D01*
X156645260Y-83546324D01*
X156742727Y-83621114D01*
X156742730Y-83621116D01*
X156749175Y-83626061D01*
X156883091Y-83681530D01*
X157026800Y-83700450D01*
X157170509Y-83681530D01*
X157304425Y-83626061D01*
X157408339Y-83546324D01*
X157443968Y-83527281D01*
X157483827Y-83520700D01*
X164358701Y-83520700D01*
X164406154Y-83530139D01*
X164446382Y-83557019D01*
X164450698Y-83561335D01*
X164477207Y-83600676D01*
X164487002Y-83647093D01*
X164479273Y-83690308D01*
X164479418Y-83690350D01*
X164479009Y-83691784D01*
X164479007Y-83691793D01*
X164477852Y-83695852D01*
X164477851Y-83695856D01*
X164425173Y-83880995D01*
X164425170Y-83881006D01*
X164423603Y-83886517D01*
X164423073Y-83892227D01*
X164423073Y-83892232D01*
X164405964Y-84076880D01*
X164404785Y-84089600D01*
X164405314Y-84095309D01*
X164421334Y-84268204D01*
X164423603Y-84292683D01*
X164425171Y-84298194D01*
X164425173Y-84298204D01*
X164477847Y-84483331D01*
X164477849Y-84483337D01*
X164479418Y-84488850D01*
X164570327Y-84671421D01*
X164584303Y-84689928D01*
X164689778Y-84829601D01*
X164689783Y-84829606D01*
X164693236Y-84834179D01*
X164697472Y-84838040D01*
X164697476Y-84838045D01*
X164799227Y-84930803D01*
X164843959Y-84971581D01*
X165017363Y-85078948D01*
X165207544Y-85152624D01*
X165408024Y-85190100D01*
X165606247Y-85190100D01*
X165611976Y-85190100D01*
X165812456Y-85152624D01*
X166002637Y-85078948D01*
X166176041Y-84971581D01*
X166326764Y-84834179D01*
X166449673Y-84671421D01*
X166540582Y-84488850D01*
X166596397Y-84292683D01*
X166615215Y-84089600D01*
X166596397Y-83886517D01*
X166540582Y-83690350D01*
X166449673Y-83507779D01*
X166401176Y-83443559D01*
X166330221Y-83349598D01*
X166330217Y-83349594D01*
X166326764Y-83345021D01*
X166322527Y-83341158D01*
X166322523Y-83341154D01*
X166180275Y-83211479D01*
X166180276Y-83211479D01*
X166176041Y-83207619D01*
X166171171Y-83204604D01*
X166171169Y-83204602D01*
X166007511Y-83103270D01*
X166007512Y-83103270D01*
X166002637Y-83100252D01*
X165987229Y-83094283D01*
X165817803Y-83028647D01*
X165817798Y-83028645D01*
X165812456Y-83026576D01*
X165806818Y-83025522D01*
X165617605Y-82990152D01*
X165617602Y-82990151D01*
X165611976Y-82989100D01*
X165408024Y-82989100D01*
X165402398Y-82990151D01*
X165402394Y-82990152D01*
X165213174Y-83025523D01*
X165213168Y-83025524D01*
X165207544Y-83026576D01*
X165202210Y-83028642D01*
X165202197Y-83028646D01*
X165117444Y-83061479D01*
X165070741Y-83069837D01*
X165024318Y-83060044D01*
X164984971Y-83033533D01*
X164867750Y-82916312D01*
X164851622Y-82896451D01*
X164851306Y-82895968D01*
X164851303Y-82895965D01*
X164845684Y-82887364D01*
X164820709Y-82867925D01*
X164816790Y-82864464D01*
X164816658Y-82864621D01*
X164812743Y-82861305D01*
X164809118Y-82857680D01*
X164792191Y-82845595D01*
X164788081Y-82842530D01*
X164754897Y-82816702D01*
X164746789Y-82810391D01*
X164739268Y-82807809D01*
X164732799Y-82803190D01*
X164722953Y-82800258D01*
X164722950Y-82800257D01*
X164682643Y-82788256D01*
X164677767Y-82786694D01*
X164637981Y-82773036D01*
X164637974Y-82773034D01*
X164628260Y-82769700D01*
X164620306Y-82769700D01*
X164612688Y-82767432D01*
X164602423Y-82767856D01*
X164602420Y-82767856D01*
X164560407Y-82769594D01*
X164555284Y-82769700D01*
X157483827Y-82769700D01*
X157443968Y-82763119D01*
X157408340Y-82744076D01*
X157310872Y-82669285D01*
X157310866Y-82669282D01*
X157304425Y-82664339D01*
X157230810Y-82633847D01*
X157178023Y-82611982D01*
X157178020Y-82611981D01*
X157170509Y-82608870D01*
X157162449Y-82607808D01*
X157162446Y-82607808D01*
X157034859Y-82591011D01*
X157026800Y-82589950D01*
X157018741Y-82591011D01*
X156891153Y-82607808D01*
X156891148Y-82607809D01*
X156883091Y-82608870D01*
X156875581Y-82611980D01*
X156875576Y-82611982D01*
X156756685Y-82661228D01*
X156756683Y-82661229D01*
X156749175Y-82664339D01*
X156742736Y-82669279D01*
X156742727Y-82669285D01*
X156645260Y-82744076D01*
X156609632Y-82763119D01*
X156569773Y-82769700D01*
X154191308Y-82769700D01*
X154135013Y-82756185D01*
X154090990Y-82718585D01*
X154068835Y-82665098D01*
X154073377Y-82607382D01*
X154103627Y-82558019D01*
X154628627Y-82033019D01*
X154668855Y-82006139D01*
X154716308Y-81996700D01*
X156569773Y-81996700D01*
X156609632Y-82003281D01*
X156645260Y-82022324D01*
X156742727Y-82097114D01*
X156742730Y-82097116D01*
X156749175Y-82102061D01*
X156883091Y-82157530D01*
X157026800Y-82176450D01*
X157170509Y-82157530D01*
X157304425Y-82102061D01*
X157318262Y-82091443D01*
X157408340Y-82022324D01*
X157443968Y-82003281D01*
X157483827Y-81996700D01*
X164426467Y-81996700D01*
X164491745Y-82015273D01*
X164537466Y-82065428D01*
X164570327Y-82131421D01*
X164585262Y-82151198D01*
X164689778Y-82289601D01*
X164689783Y-82289606D01*
X164693236Y-82294179D01*
X164697472Y-82298040D01*
X164697476Y-82298045D01*
X164799227Y-82390803D01*
X164843959Y-82431581D01*
X165017363Y-82538948D01*
X165207544Y-82612624D01*
X165408024Y-82650100D01*
X165606247Y-82650100D01*
X165611976Y-82650100D01*
X165812456Y-82612624D01*
X166002637Y-82538948D01*
X166176041Y-82431581D01*
X166326764Y-82294179D01*
X166449673Y-82131421D01*
X166540582Y-81948850D01*
X166596397Y-81752683D01*
X166615215Y-81549600D01*
X166596397Y-81346517D01*
X166593712Y-81337082D01*
X166542152Y-81155868D01*
X166540582Y-81150350D01*
X166449673Y-80967779D01*
X166401176Y-80903559D01*
X166330221Y-80809598D01*
X166330217Y-80809594D01*
X166326764Y-80805021D01*
X166322527Y-80801158D01*
X166322523Y-80801154D01*
X166180275Y-80671479D01*
X166180276Y-80671479D01*
X166176041Y-80667619D01*
X166171171Y-80664604D01*
X166171169Y-80664602D01*
X166007511Y-80563270D01*
X166007512Y-80563270D01*
X166002637Y-80560252D01*
X165987229Y-80554283D01*
X165817803Y-80488647D01*
X165817798Y-80488645D01*
X165812456Y-80486576D01*
X165806818Y-80485522D01*
X165617605Y-80450152D01*
X165617602Y-80450151D01*
X165611976Y-80449100D01*
X165408024Y-80449100D01*
X165402398Y-80450151D01*
X165402394Y-80450152D01*
X165213181Y-80485522D01*
X165213178Y-80485522D01*
X165207544Y-80486576D01*
X165202203Y-80488644D01*
X165202196Y-80488647D01*
X165022705Y-80558182D01*
X165022700Y-80558184D01*
X165017363Y-80560252D01*
X165012491Y-80563268D01*
X165012488Y-80563270D01*
X164848830Y-80664602D01*
X164848822Y-80664607D01*
X164843959Y-80667619D01*
X164839728Y-80671475D01*
X164839724Y-80671479D01*
X164697476Y-80801154D01*
X164697466Y-80801164D01*
X164693236Y-80805021D01*
X164689787Y-80809587D01*
X164689778Y-80809598D01*
X164573779Y-80963207D01*
X164573776Y-80963211D01*
X164570327Y-80967779D01*
X164567774Y-80972904D01*
X164567772Y-80972909D01*
X164484025Y-81141098D01*
X164479418Y-81150350D01*
X164477848Y-81155867D01*
X164475778Y-81161211D01*
X164475068Y-81160936D01*
X164452811Y-81202380D01*
X164410473Y-81234351D01*
X164358648Y-81245700D01*
X157483827Y-81245700D01*
X157443968Y-81239119D01*
X157408340Y-81220076D01*
X157310872Y-81145285D01*
X157310866Y-81145282D01*
X157304425Y-81140339D01*
X157206180Y-81099645D01*
X157178023Y-81087982D01*
X157178020Y-81087981D01*
X157170509Y-81084870D01*
X157162449Y-81083808D01*
X157162446Y-81083808D01*
X157034859Y-81067011D01*
X157026800Y-81065950D01*
X157018741Y-81067011D01*
X156891153Y-81083808D01*
X156891148Y-81083809D01*
X156883091Y-81084870D01*
X156875581Y-81087980D01*
X156875576Y-81087982D01*
X156756685Y-81137228D01*
X156756683Y-81137229D01*
X156749175Y-81140339D01*
X156742736Y-81145279D01*
X156742727Y-81145285D01*
X156645260Y-81220076D01*
X156609632Y-81239119D01*
X156569773Y-81245700D01*
X155078912Y-81245700D01*
X155022617Y-81232185D01*
X154978594Y-81194585D01*
X154956439Y-81141098D01*
X154960981Y-81083382D01*
X154991231Y-81034019D01*
X156603831Y-79421419D01*
X156644059Y-79394539D01*
X156691512Y-79385100D01*
X164390815Y-79385100D01*
X164456093Y-79403673D01*
X164501814Y-79453828D01*
X164570327Y-79591421D01*
X164585262Y-79611198D01*
X164689778Y-79749601D01*
X164689783Y-79749606D01*
X164693236Y-79754179D01*
X164697472Y-79758040D01*
X164697476Y-79758045D01*
X164799227Y-79850803D01*
X164843959Y-79891581D01*
X165017363Y-79998948D01*
X165207544Y-80072624D01*
X165408024Y-80110100D01*
X165606247Y-80110100D01*
X165611976Y-80110100D01*
X165812456Y-80072624D01*
X166002637Y-79998948D01*
X166176041Y-79891581D01*
X166326764Y-79754179D01*
X166449673Y-79591421D01*
X166540582Y-79408850D01*
X166596397Y-79212683D01*
X166615215Y-79009600D01*
X166596397Y-78806517D01*
X166540582Y-78610350D01*
X166449673Y-78427779D01*
X166385116Y-78342291D01*
X166330221Y-78269598D01*
X166330217Y-78269594D01*
X166326764Y-78265021D01*
X166322527Y-78261158D01*
X166322523Y-78261154D01*
X166180275Y-78131479D01*
X166180276Y-78131479D01*
X166176041Y-78127619D01*
X166171171Y-78124604D01*
X166171169Y-78124602D01*
X166007511Y-78023270D01*
X166007512Y-78023270D01*
X166002637Y-78020252D01*
X165963626Y-78005139D01*
X165817803Y-77948647D01*
X165817798Y-77948645D01*
X165812456Y-77946576D01*
X165806818Y-77945522D01*
X165617605Y-77910152D01*
X165617602Y-77910151D01*
X165611976Y-77909100D01*
X165408024Y-77909100D01*
X165402398Y-77910151D01*
X165402394Y-77910152D01*
X165213181Y-77945522D01*
X165213178Y-77945522D01*
X165207544Y-77946576D01*
X165202203Y-77948644D01*
X165202196Y-77948647D01*
X165022705Y-78018182D01*
X165022700Y-78018184D01*
X165017363Y-78020252D01*
X165012491Y-78023268D01*
X165012488Y-78023270D01*
X164848830Y-78124602D01*
X164848822Y-78124607D01*
X164843959Y-78127619D01*
X164839728Y-78131475D01*
X164839724Y-78131479D01*
X164697476Y-78261154D01*
X164697466Y-78261164D01*
X164693236Y-78265021D01*
X164689787Y-78269587D01*
X164689778Y-78269598D01*
X164573779Y-78423207D01*
X164573776Y-78423211D01*
X164570327Y-78427779D01*
X164567774Y-78432904D01*
X164567772Y-78432909D01*
X164501815Y-78565371D01*
X164456093Y-78615527D01*
X164390815Y-78634100D01*
X157054115Y-78634100D01*
X156997820Y-78620585D01*
X156953797Y-78582985D01*
X156931642Y-78529498D01*
X156936184Y-78471782D01*
X156966434Y-78422419D01*
X158507434Y-76881419D01*
X158547662Y-76854539D01*
X158595115Y-76845100D01*
X164390815Y-76845100D01*
X164456093Y-76863673D01*
X164501814Y-76913828D01*
X164570327Y-77051421D01*
X164573779Y-77055992D01*
X164689778Y-77209601D01*
X164689783Y-77209606D01*
X164693236Y-77214179D01*
X164697472Y-77218040D01*
X164697476Y-77218045D01*
X164715292Y-77234286D01*
X164843959Y-77351581D01*
X165017363Y-77458948D01*
X165207544Y-77532624D01*
X165408024Y-77570100D01*
X165606247Y-77570100D01*
X165611976Y-77570100D01*
X165812456Y-77532624D01*
X166002637Y-77458948D01*
X166176041Y-77351581D01*
X166326764Y-77214179D01*
X166449673Y-77051421D01*
X166540582Y-76868850D01*
X166596397Y-76672683D01*
X166615215Y-76469600D01*
X166596397Y-76266517D01*
X166555437Y-76122561D01*
X166542152Y-76075868D01*
X166540582Y-76070350D01*
X166449673Y-75887779D01*
X166386566Y-75804212D01*
X166330221Y-75729598D01*
X166330217Y-75729594D01*
X166326764Y-75725021D01*
X166322527Y-75721158D01*
X166322523Y-75721154D01*
X166180275Y-75591479D01*
X166180276Y-75591479D01*
X166176041Y-75587619D01*
X166171171Y-75584604D01*
X166171169Y-75584602D01*
X166007511Y-75483270D01*
X166007512Y-75483270D01*
X166002637Y-75480252D01*
X165997294Y-75478182D01*
X165817803Y-75408647D01*
X165817798Y-75408645D01*
X165812456Y-75406576D01*
X165802367Y-75404690D01*
X165617605Y-75370152D01*
X165617602Y-75370151D01*
X165611976Y-75369100D01*
X165408024Y-75369100D01*
X165402398Y-75370151D01*
X165402394Y-75370152D01*
X165213181Y-75405522D01*
X165213178Y-75405522D01*
X165207544Y-75406576D01*
X165202203Y-75408644D01*
X165202196Y-75408647D01*
X165022705Y-75478182D01*
X165022700Y-75478184D01*
X165017363Y-75480252D01*
X165012491Y-75483268D01*
X165012488Y-75483270D01*
X164848830Y-75584602D01*
X164848822Y-75584607D01*
X164843959Y-75587619D01*
X164839728Y-75591475D01*
X164839724Y-75591479D01*
X164697476Y-75721154D01*
X164697466Y-75721164D01*
X164693236Y-75725021D01*
X164689787Y-75729587D01*
X164689778Y-75729598D01*
X164573779Y-75883207D01*
X164573776Y-75883211D01*
X164570327Y-75887779D01*
X164567774Y-75892904D01*
X164567772Y-75892909D01*
X164501815Y-76025371D01*
X164456093Y-76075527D01*
X164390815Y-76094100D01*
X158957719Y-76094100D01*
X158901424Y-76080585D01*
X158857401Y-76042985D01*
X158835246Y-75989498D01*
X158839788Y-75931782D01*
X158870038Y-75882419D01*
X160411038Y-74341419D01*
X160451266Y-74314539D01*
X160498719Y-74305100D01*
X164285500Y-74305100D01*
X164347500Y-74321713D01*
X164392887Y-74367100D01*
X164409500Y-74429100D01*
X164409500Y-74804274D01*
X164410688Y-74810249D01*
X164410689Y-74810253D01*
X164421650Y-74865359D01*
X164421651Y-74865362D01*
X164424034Y-74877340D01*
X164479399Y-74960201D01*
X164562260Y-75015566D01*
X164635326Y-75030100D01*
X166378579Y-75030100D01*
X166384674Y-75030100D01*
X166457740Y-75015566D01*
X166540601Y-74960201D01*
X166595966Y-74877340D01*
X166610500Y-74804274D01*
X166610500Y-73054926D01*
X166595966Y-72981860D01*
X166540601Y-72898999D01*
X166457740Y-72843634D01*
X166445762Y-72841251D01*
X166445759Y-72841250D01*
X166390653Y-72830289D01*
X166390649Y-72830288D01*
X166384674Y-72829100D01*
X164635326Y-72829100D01*
X164629351Y-72830288D01*
X164629346Y-72830289D01*
X164574240Y-72841250D01*
X164574235Y-72841251D01*
X164562260Y-72843634D01*
X164552105Y-72850419D01*
X164552103Y-72850420D01*
X164489551Y-72892215D01*
X164489548Y-72892217D01*
X164479399Y-72898999D01*
X164472617Y-72909148D01*
X164472615Y-72909151D01*
X164430820Y-72971703D01*
X164430819Y-72971705D01*
X164424034Y-72981860D01*
X164421651Y-72993835D01*
X164421650Y-72993840D01*
X164410689Y-73048946D01*
X164410688Y-73048951D01*
X164409500Y-73054926D01*
X164409500Y-73061021D01*
X164409500Y-73430100D01*
X164392887Y-73492100D01*
X164347500Y-73537487D01*
X164285500Y-73554100D01*
X160343624Y-73554100D01*
X160318178Y-73551461D01*
X160317607Y-73551341D01*
X160317605Y-73551340D01*
X160307552Y-73549233D01*
X160297361Y-73550503D01*
X160297357Y-73550503D01*
X160276144Y-73553148D01*
X160270924Y-73553471D01*
X160270941Y-73553677D01*
X160265830Y-73554100D01*
X160260706Y-73554100D01*
X160255660Y-73554941D01*
X160255645Y-73554943D01*
X160240202Y-73557520D01*
X160235140Y-73558257D01*
X160193388Y-73563462D01*
X160193380Y-73563464D01*
X160183195Y-73564734D01*
X160176050Y-73568226D01*
X160168210Y-73569535D01*
X160159183Y-73574419D01*
X160159183Y-73574420D01*
X160122187Y-73594441D01*
X160117633Y-73596785D01*
X160079829Y-73615266D01*
X160079826Y-73615267D01*
X160070609Y-73619774D01*
X160064985Y-73625397D01*
X160057994Y-73629181D01*
X160051041Y-73636732D01*
X160051039Y-73636735D01*
X160022537Y-73667695D01*
X160018991Y-73671390D01*
X147450707Y-86239673D01*
X147430858Y-86255793D01*
X147421764Y-86261736D01*
X147415458Y-86269837D01*
X147415452Y-86269843D01*
X147402320Y-86286715D01*
X147398873Y-86290642D01*
X147399018Y-86290765D01*
X147395705Y-86294675D01*
X147392080Y-86298302D01*
X147389105Y-86302468D01*
X147389098Y-86302477D01*
X147380001Y-86315219D01*
X147376942Y-86319321D01*
X147351100Y-86352523D01*
X147351096Y-86352530D01*
X147344791Y-86360631D01*
X147342209Y-86368151D01*
X147337590Y-86374621D01*
X147334660Y-86384461D01*
X147334658Y-86384466D01*
X147322656Y-86424777D01*
X147321095Y-86429649D01*
X147307436Y-86469439D01*
X147307435Y-86469444D01*
X147304100Y-86479160D01*
X147304100Y-86487114D01*
X147301832Y-86494732D01*
X147302256Y-86504995D01*
X147302256Y-86504999D01*
X147303994Y-86547013D01*
X147304100Y-86552136D01*
X147304100Y-88885773D01*
X147297519Y-88925632D01*
X147278476Y-88961260D01*
X147203685Y-89058727D01*
X147203679Y-89058736D01*
X147198739Y-89065175D01*
X147195629Y-89072683D01*
X147195628Y-89072685D01*
X147146382Y-89191576D01*
X147146380Y-89191581D01*
X147143270Y-89199091D01*
X147142209Y-89207148D01*
X147142208Y-89207153D01*
X147132429Y-89281436D01*
X147124350Y-89342800D01*
X147125411Y-89350859D01*
X147138742Y-89452114D01*
X147128185Y-89520704D01*
X147082428Y-89572880D01*
X147015803Y-89592300D01*
X146555699Y-89592300D01*
X146508246Y-89582861D01*
X146468018Y-89555981D01*
X145881619Y-88969581D01*
X145854739Y-88929353D01*
X145845300Y-88881900D01*
X145845300Y-88730063D01*
X145859942Y-88671610D01*
X145900409Y-88626961D01*
X145957145Y-88606660D01*
X146016749Y-88615500D01*
X146062691Y-88634530D01*
X146206400Y-88653450D01*
X146350109Y-88634530D01*
X146484025Y-88579061D01*
X146599021Y-88490821D01*
X146687261Y-88375825D01*
X146742730Y-88241909D01*
X146761650Y-88098200D01*
X146742730Y-87954491D01*
X146687261Y-87820575D01*
X146682316Y-87814130D01*
X146682314Y-87814127D01*
X146607524Y-87716660D01*
X146588481Y-87681032D01*
X146581900Y-87641173D01*
X146581900Y-82739803D01*
X146584539Y-82714357D01*
X146584541Y-82714343D01*
X146586767Y-82703731D01*
X146582851Y-82672324D01*
X146582528Y-82667113D01*
X146582324Y-82667130D01*
X146581900Y-82662015D01*
X146581900Y-82656886D01*
X146578469Y-82636329D01*
X146577742Y-82631340D01*
X146571265Y-82579374D01*
X146567773Y-82572232D01*
X146566465Y-82564390D01*
X146541556Y-82518363D01*
X146539214Y-82513811D01*
X146520739Y-82476020D01*
X146516226Y-82466788D01*
X146510601Y-82461163D01*
X146506819Y-82454174D01*
X146468305Y-82418719D01*
X146464631Y-82415193D01*
X142306550Y-78257112D01*
X142290422Y-78237251D01*
X142290106Y-78236768D01*
X142290103Y-78236765D01*
X142284484Y-78228164D01*
X142259509Y-78208725D01*
X142255590Y-78205264D01*
X142255458Y-78205421D01*
X142251543Y-78202105D01*
X142247918Y-78198480D01*
X142230991Y-78186395D01*
X142226881Y-78183330D01*
X142193697Y-78157502D01*
X142185589Y-78151191D01*
X142178068Y-78148609D01*
X142171599Y-78143990D01*
X142161753Y-78141058D01*
X142161750Y-78141057D01*
X142121443Y-78129056D01*
X142116567Y-78127494D01*
X142076781Y-78113836D01*
X142076774Y-78113834D01*
X142067060Y-78110500D01*
X142059106Y-78110500D01*
X142051488Y-78108232D01*
X142041223Y-78108656D01*
X142041220Y-78108656D01*
X141999207Y-78110394D01*
X141994084Y-78110500D01*
X140030027Y-78110500D01*
X139990168Y-78103919D01*
X139954540Y-78084876D01*
X139857072Y-78010085D01*
X139857066Y-78010082D01*
X139850625Y-78005139D01*
X139809687Y-77988182D01*
X139724223Y-77952782D01*
X139724220Y-77952781D01*
X139716709Y-77949670D01*
X139708649Y-77948608D01*
X139708646Y-77948608D01*
X139581059Y-77931811D01*
X139573000Y-77930750D01*
X139564941Y-77931811D01*
X139437353Y-77948608D01*
X139437348Y-77948609D01*
X139429291Y-77949670D01*
X139421781Y-77952780D01*
X139421776Y-77952782D01*
X139302885Y-78002028D01*
X139302883Y-78002029D01*
X139295375Y-78005139D01*
X139288933Y-78010082D01*
X139288928Y-78010085D01*
X139186821Y-78088435D01*
X139186817Y-78088438D01*
X139180379Y-78093379D01*
X139175438Y-78099817D01*
X139175435Y-78099821D01*
X139097085Y-78201928D01*
X139097082Y-78201933D01*
X139092139Y-78208375D01*
X139089029Y-78215883D01*
X139089028Y-78215885D01*
X139039782Y-78334776D01*
X139039780Y-78334781D01*
X139036670Y-78342291D01*
X139035609Y-78350348D01*
X139035608Y-78350353D01*
X139019622Y-78471782D01*
X139017750Y-78486000D01*
X139018811Y-78494059D01*
X139035468Y-78620585D01*
X139036670Y-78629709D01*
X139092139Y-78763625D01*
X139097084Y-78770069D01*
X139097085Y-78770071D01*
X139172291Y-78868081D01*
X139180379Y-78878621D01*
X139295375Y-78966861D01*
X139429291Y-79022330D01*
X139573000Y-79041250D01*
X139716709Y-79022330D01*
X139850625Y-78966861D01*
X139954539Y-78887124D01*
X139990168Y-78868081D01*
X140030027Y-78861500D01*
X141797501Y-78861500D01*
X141844954Y-78870939D01*
X141885182Y-78897819D01*
X142064416Y-79077053D01*
X142096001Y-79130800D01*
X142097441Y-79193124D01*
X142068372Y-79248272D01*
X142016141Y-79282306D01*
X141953950Y-79286623D01*
X141767406Y-79251752D01*
X141767401Y-79251751D01*
X141761776Y-79250700D01*
X141557824Y-79250700D01*
X141552198Y-79251751D01*
X141552194Y-79251752D01*
X141362981Y-79287122D01*
X141362978Y-79287122D01*
X141357344Y-79288176D01*
X141352003Y-79290244D01*
X141351996Y-79290247D01*
X141172505Y-79359782D01*
X141172500Y-79359784D01*
X141167163Y-79361852D01*
X141162291Y-79364868D01*
X141162288Y-79364870D01*
X140998630Y-79466202D01*
X140998622Y-79466207D01*
X140993759Y-79469219D01*
X140989528Y-79473075D01*
X140989524Y-79473079D01*
X140847276Y-79602754D01*
X140847266Y-79602764D01*
X140843036Y-79606621D01*
X140839587Y-79611187D01*
X140839578Y-79611198D01*
X140723579Y-79764807D01*
X140723576Y-79764811D01*
X140720127Y-79769379D01*
X140717574Y-79774504D01*
X140717572Y-79774509D01*
X140631776Y-79946812D01*
X140629218Y-79951950D01*
X140627650Y-79957458D01*
X140627647Y-79957468D01*
X140574973Y-80142595D01*
X140574970Y-80142606D01*
X140573403Y-80148117D01*
X140554585Y-80351200D01*
X140555114Y-80356909D01*
X140564251Y-80455522D01*
X140573403Y-80554283D01*
X140574971Y-80559794D01*
X140574973Y-80559804D01*
X140627647Y-80744931D01*
X140627649Y-80744937D01*
X140629218Y-80750450D01*
X140720127Y-80933021D01*
X140723579Y-80937592D01*
X140839578Y-81091201D01*
X140839583Y-81091206D01*
X140843036Y-81095779D01*
X140847272Y-81099640D01*
X140847276Y-81099645D01*
X140949027Y-81192403D01*
X140993759Y-81233181D01*
X141167163Y-81340548D01*
X141357344Y-81414224D01*
X141557824Y-81451700D01*
X141756047Y-81451700D01*
X141761776Y-81451700D01*
X141962256Y-81414224D01*
X142152437Y-81340548D01*
X142325841Y-81233181D01*
X142476564Y-81095779D01*
X142599473Y-80933021D01*
X142690382Y-80750450D01*
X142746197Y-80554283D01*
X142765015Y-80351200D01*
X142746197Y-80148117D01*
X142722048Y-80063246D01*
X142721154Y-79998699D01*
X142752827Y-79942447D01*
X142808484Y-79909739D01*
X142873039Y-79909441D01*
X142928996Y-79941633D01*
X145794581Y-82807218D01*
X145821461Y-82847446D01*
X145830900Y-82894899D01*
X145830900Y-84342137D01*
X145816258Y-84400590D01*
X145775791Y-84445239D01*
X145719055Y-84465540D01*
X145659450Y-84456699D01*
X145613509Y-84437670D01*
X145605449Y-84436608D01*
X145605446Y-84436608D01*
X145477859Y-84419811D01*
X145469800Y-84418750D01*
X145461741Y-84419811D01*
X145334153Y-84436608D01*
X145334148Y-84436609D01*
X145326091Y-84437670D01*
X145318581Y-84440780D01*
X145318576Y-84440782D01*
X145199685Y-84490028D01*
X145199683Y-84490029D01*
X145192175Y-84493139D01*
X145185733Y-84498082D01*
X145185728Y-84498085D01*
X145083621Y-84576435D01*
X145083617Y-84576438D01*
X145077179Y-84581379D01*
X145072238Y-84587817D01*
X145072235Y-84587821D01*
X144993885Y-84689928D01*
X144993882Y-84689933D01*
X144988939Y-84696375D01*
X144985829Y-84703883D01*
X144985828Y-84703885D01*
X144936582Y-84822776D01*
X144936580Y-84822781D01*
X144933470Y-84830291D01*
X144932409Y-84838348D01*
X144932408Y-84838353D01*
X144919326Y-84937720D01*
X144914550Y-84974000D01*
X144915611Y-84982059D01*
X144924689Y-85051017D01*
X144933470Y-85117709D01*
X144936581Y-85125220D01*
X144936582Y-85125223D01*
X144963019Y-85189047D01*
X144988939Y-85251625D01*
X144993882Y-85258066D01*
X144993885Y-85258072D01*
X145068676Y-85355540D01*
X145087719Y-85391168D01*
X145094300Y-85431027D01*
X145094300Y-87882900D01*
X145080785Y-87939195D01*
X145043185Y-87983218D01*
X144989698Y-88005373D01*
X144931982Y-88000831D01*
X144882619Y-87970581D01*
X144552750Y-87640712D01*
X144536622Y-87620851D01*
X144536306Y-87620368D01*
X144536303Y-87620365D01*
X144530684Y-87611764D01*
X144505709Y-87592325D01*
X144501790Y-87588864D01*
X144501658Y-87589021D01*
X144497743Y-87585705D01*
X144494118Y-87582080D01*
X144477191Y-87569995D01*
X144473081Y-87566930D01*
X144439897Y-87541102D01*
X144431789Y-87534791D01*
X144424268Y-87532209D01*
X144417799Y-87527590D01*
X144407953Y-87524658D01*
X144407950Y-87524657D01*
X144367643Y-87512656D01*
X144362767Y-87511094D01*
X144322981Y-87497436D01*
X144322974Y-87497434D01*
X144313260Y-87494100D01*
X144305306Y-87494100D01*
X144297688Y-87491832D01*
X144287423Y-87492256D01*
X144287420Y-87492256D01*
X144245407Y-87493994D01*
X144240284Y-87494100D01*
X136414775Y-87494100D01*
X136349497Y-87475527D01*
X136303775Y-87425372D01*
X136291304Y-87358659D01*
X136315821Y-87295374D01*
X136383093Y-87206290D01*
X136401873Y-87181421D01*
X136492782Y-86998850D01*
X136548597Y-86802683D01*
X136567415Y-86599600D01*
X136548597Y-86396517D01*
X136543324Y-86377986D01*
X136494352Y-86205868D01*
X136492782Y-86200350D01*
X136401873Y-86017779D01*
X136353376Y-85953559D01*
X136282421Y-85859598D01*
X136282417Y-85859594D01*
X136278964Y-85855021D01*
X136274727Y-85851158D01*
X136274723Y-85851154D01*
X136132475Y-85721479D01*
X136132476Y-85721479D01*
X136128241Y-85717619D01*
X136123371Y-85714604D01*
X136123369Y-85714602D01*
X135959711Y-85613270D01*
X135959712Y-85613270D01*
X135954837Y-85610252D01*
X135949494Y-85608182D01*
X135770003Y-85538647D01*
X135769998Y-85538645D01*
X135764656Y-85536576D01*
X135759018Y-85535522D01*
X135569805Y-85500152D01*
X135569802Y-85500151D01*
X135564176Y-85499100D01*
X135360224Y-85499100D01*
X135354598Y-85500151D01*
X135354594Y-85500152D01*
X135165381Y-85535522D01*
X135165378Y-85535522D01*
X135159744Y-85536576D01*
X135154403Y-85538644D01*
X135154396Y-85538647D01*
X134974905Y-85608182D01*
X134974900Y-85608184D01*
X134969563Y-85610252D01*
X134964691Y-85613268D01*
X134964688Y-85613270D01*
X134801030Y-85714602D01*
X134801022Y-85714607D01*
X134796159Y-85717619D01*
X134791928Y-85721475D01*
X134791924Y-85721479D01*
X134649676Y-85851154D01*
X134649666Y-85851164D01*
X134645436Y-85855021D01*
X134641987Y-85859587D01*
X134641978Y-85859598D01*
X134525979Y-86013207D01*
X134525976Y-86013211D01*
X134522527Y-86017779D01*
X134519974Y-86022904D01*
X134519972Y-86022909D01*
X134434176Y-86195212D01*
X134431618Y-86200350D01*
X134430050Y-86205858D01*
X134430047Y-86205868D01*
X134377373Y-86390995D01*
X134377370Y-86391006D01*
X134375803Y-86396517D01*
X134375273Y-86402227D01*
X134375273Y-86402232D01*
X134363387Y-86530510D01*
X134356985Y-86599600D01*
X134375803Y-86802683D01*
X134377371Y-86808194D01*
X134377373Y-86808204D01*
X134430047Y-86993331D01*
X134430049Y-86993337D01*
X134431618Y-86998850D01*
X134522527Y-87181421D01*
X134525981Y-87185995D01*
X134525983Y-87185998D01*
X134608579Y-87295374D01*
X134633096Y-87358659D01*
X134620625Y-87425372D01*
X134574903Y-87475527D01*
X134509625Y-87494100D01*
X134421804Y-87494100D01*
X134396358Y-87491461D01*
X134395787Y-87491341D01*
X134395785Y-87491340D01*
X134385732Y-87489233D01*
X134375541Y-87490503D01*
X134375537Y-87490503D01*
X134354324Y-87493148D01*
X134349104Y-87493471D01*
X134349121Y-87493677D01*
X134344010Y-87494100D01*
X134338886Y-87494100D01*
X134333840Y-87494941D01*
X134333825Y-87494943D01*
X134318382Y-87497520D01*
X134313320Y-87498257D01*
X134271568Y-87503462D01*
X134271560Y-87503464D01*
X134261375Y-87504734D01*
X134254230Y-87508226D01*
X134246390Y-87509535D01*
X134237363Y-87514419D01*
X134237363Y-87514420D01*
X134200367Y-87534441D01*
X134195818Y-87536782D01*
X134188252Y-87540481D01*
X134158009Y-87555266D01*
X134158006Y-87555267D01*
X134148789Y-87559774D01*
X134143165Y-87565397D01*
X134136174Y-87569181D01*
X134129221Y-87576732D01*
X134129219Y-87576735D01*
X134100718Y-87607694D01*
X134097172Y-87611389D01*
X133607707Y-88100853D01*
X133587858Y-88116973D01*
X133578764Y-88122916D01*
X133572458Y-88131017D01*
X133572452Y-88131023D01*
X133559320Y-88147895D01*
X133555873Y-88151822D01*
X133556018Y-88151945D01*
X133552705Y-88155855D01*
X133549080Y-88159482D01*
X133546105Y-88163648D01*
X133546098Y-88163657D01*
X133537001Y-88176399D01*
X133533942Y-88180501D01*
X133508100Y-88213703D01*
X133508096Y-88213710D01*
X133501791Y-88221811D01*
X133499209Y-88229331D01*
X133494590Y-88235801D01*
X133491660Y-88245641D01*
X133491659Y-88245644D01*
X133490945Y-88248044D01*
X133489074Y-88250933D01*
X133487149Y-88254872D01*
X133486674Y-88254639D01*
X133453020Y-88306618D01*
X133389470Y-88335438D01*
X133320419Y-88325378D01*
X133267734Y-88279622D01*
X133248100Y-88212661D01*
X133248100Y-85431200D01*
X138014585Y-85431200D01*
X138015114Y-85436909D01*
X138032202Y-85621329D01*
X138033403Y-85634283D01*
X138034971Y-85639794D01*
X138034973Y-85639804D01*
X138087647Y-85824931D01*
X138087649Y-85824937D01*
X138089218Y-85830450D01*
X138091776Y-85835587D01*
X138176741Y-86006222D01*
X138180127Y-86013021D01*
X138183579Y-86017592D01*
X138299578Y-86171201D01*
X138299583Y-86171206D01*
X138303036Y-86175779D01*
X138307272Y-86179640D01*
X138307276Y-86179645D01*
X138373124Y-86239673D01*
X138453759Y-86313181D01*
X138627163Y-86420548D01*
X138817344Y-86494224D01*
X139017824Y-86531700D01*
X139216047Y-86531700D01*
X139221776Y-86531700D01*
X139422256Y-86494224D01*
X139612437Y-86420548D01*
X139785841Y-86313181D01*
X139793856Y-86305874D01*
X140559300Y-86305874D01*
X140560488Y-86311849D01*
X140560489Y-86311853D01*
X140571450Y-86366959D01*
X140571451Y-86366962D01*
X140573834Y-86378940D01*
X140629199Y-86461801D01*
X140712060Y-86517166D01*
X140785126Y-86531700D01*
X142528379Y-86531700D01*
X142534474Y-86531700D01*
X142607540Y-86517166D01*
X142690401Y-86461801D01*
X142745766Y-86378940D01*
X142760300Y-86305874D01*
X142760300Y-84556526D01*
X142745766Y-84483460D01*
X142690401Y-84400599D01*
X142607540Y-84345234D01*
X142595562Y-84342851D01*
X142595559Y-84342850D01*
X142540453Y-84331889D01*
X142540449Y-84331888D01*
X142534474Y-84330700D01*
X140785126Y-84330700D01*
X140779151Y-84331888D01*
X140779146Y-84331889D01*
X140724040Y-84342850D01*
X140724035Y-84342851D01*
X140712060Y-84345234D01*
X140701905Y-84352019D01*
X140701903Y-84352020D01*
X140639351Y-84393815D01*
X140639348Y-84393817D01*
X140629199Y-84400599D01*
X140622417Y-84410748D01*
X140622415Y-84410751D01*
X140580620Y-84473303D01*
X140580619Y-84473305D01*
X140573834Y-84483460D01*
X140571451Y-84495435D01*
X140571450Y-84495440D01*
X140560489Y-84550546D01*
X140560488Y-84550551D01*
X140559300Y-84556526D01*
X140559300Y-86305874D01*
X139793856Y-86305874D01*
X139936564Y-86175779D01*
X140059473Y-86013021D01*
X140150382Y-85830450D01*
X140206197Y-85634283D01*
X140225015Y-85431200D01*
X140206197Y-85228117D01*
X140195080Y-85189047D01*
X140151952Y-85037468D01*
X140150382Y-85031950D01*
X140059473Y-84849379D01*
X140004224Y-84776218D01*
X139940021Y-84691198D01*
X139940017Y-84691194D01*
X139936564Y-84686621D01*
X139932327Y-84682758D01*
X139932323Y-84682754D01*
X139790075Y-84553079D01*
X139790076Y-84553079D01*
X139785841Y-84549219D01*
X139780971Y-84546204D01*
X139780969Y-84546202D01*
X139663232Y-84473303D01*
X139612437Y-84441852D01*
X139598901Y-84436608D01*
X139427603Y-84370247D01*
X139427598Y-84370245D01*
X139422256Y-84368176D01*
X139335829Y-84352020D01*
X139227405Y-84331752D01*
X139227402Y-84331751D01*
X139221776Y-84330700D01*
X139017824Y-84330700D01*
X139012198Y-84331751D01*
X139012194Y-84331752D01*
X138822981Y-84367122D01*
X138822978Y-84367122D01*
X138817344Y-84368176D01*
X138812003Y-84370244D01*
X138811996Y-84370247D01*
X138632505Y-84439782D01*
X138632500Y-84439784D01*
X138627163Y-84441852D01*
X138622291Y-84444868D01*
X138622288Y-84444870D01*
X138458630Y-84546202D01*
X138458622Y-84546207D01*
X138453759Y-84549219D01*
X138449528Y-84553075D01*
X138449524Y-84553079D01*
X138307276Y-84682754D01*
X138307266Y-84682764D01*
X138303036Y-84686621D01*
X138299587Y-84691187D01*
X138299578Y-84691198D01*
X138183579Y-84844807D01*
X138183576Y-84844811D01*
X138180127Y-84849379D01*
X138177574Y-84854504D01*
X138177572Y-84854509D01*
X138091776Y-85026812D01*
X138089218Y-85031950D01*
X138087650Y-85037458D01*
X138087647Y-85037468D01*
X138034973Y-85222595D01*
X138034970Y-85222606D01*
X138033403Y-85228117D01*
X138032873Y-85233827D01*
X138032873Y-85233832D01*
X138026265Y-85305150D01*
X138014585Y-85431200D01*
X133248100Y-85431200D01*
X133248100Y-84059600D01*
X134356985Y-84059600D01*
X134357514Y-84065309D01*
X134359535Y-84087125D01*
X134375803Y-84262683D01*
X134377371Y-84268194D01*
X134377373Y-84268204D01*
X134430047Y-84453331D01*
X134430049Y-84453337D01*
X134431618Y-84458850D01*
X134434176Y-84463987D01*
X134483289Y-84562621D01*
X134522527Y-84641421D01*
X134525979Y-84645992D01*
X134641978Y-84799601D01*
X134641983Y-84799606D01*
X134645436Y-84804179D01*
X134649672Y-84808040D01*
X134649676Y-84808045D01*
X134695018Y-84849379D01*
X134796159Y-84941581D01*
X134969563Y-85048948D01*
X135159744Y-85122624D01*
X135360224Y-85160100D01*
X135558447Y-85160100D01*
X135564176Y-85160100D01*
X135764656Y-85122624D01*
X135954837Y-85048948D01*
X136128241Y-84941581D01*
X136278964Y-84804179D01*
X136401873Y-84641421D01*
X136492782Y-84458850D01*
X136548597Y-84262683D01*
X136567415Y-84059600D01*
X136548597Y-83856517D01*
X136492782Y-83660350D01*
X136401873Y-83477779D01*
X136319870Y-83369189D01*
X136282421Y-83319598D01*
X136282417Y-83319594D01*
X136278964Y-83315021D01*
X136274727Y-83311158D01*
X136274723Y-83311154D01*
X136149369Y-83196880D01*
X136128241Y-83177619D01*
X136123371Y-83174604D01*
X136123369Y-83174602D01*
X135959711Y-83073270D01*
X135959712Y-83073270D01*
X135954837Y-83070252D01*
X135949494Y-83068182D01*
X135770003Y-82998647D01*
X135769998Y-82998645D01*
X135764656Y-82996576D01*
X135759018Y-82995522D01*
X135569805Y-82960152D01*
X135569802Y-82960151D01*
X135564176Y-82959100D01*
X135360224Y-82959100D01*
X135354598Y-82960151D01*
X135354594Y-82960152D01*
X135165381Y-82995522D01*
X135165378Y-82995522D01*
X135159744Y-82996576D01*
X135154403Y-82998644D01*
X135154396Y-82998647D01*
X134974905Y-83068182D01*
X134974900Y-83068184D01*
X134969563Y-83070252D01*
X134964691Y-83073268D01*
X134964688Y-83073270D01*
X134801030Y-83174602D01*
X134801022Y-83174607D01*
X134796159Y-83177619D01*
X134791928Y-83181475D01*
X134791924Y-83181479D01*
X134649676Y-83311154D01*
X134649666Y-83311164D01*
X134645436Y-83315021D01*
X134641987Y-83319587D01*
X134641978Y-83319598D01*
X134525979Y-83473207D01*
X134525976Y-83473211D01*
X134522527Y-83477779D01*
X134519974Y-83482904D01*
X134519972Y-83482909D01*
X134438219Y-83647093D01*
X134431618Y-83660350D01*
X134430050Y-83665858D01*
X134430047Y-83665868D01*
X134377373Y-83850995D01*
X134377370Y-83851006D01*
X134375803Y-83856517D01*
X134375273Y-83862227D01*
X134375273Y-83862232D01*
X134359499Y-84032472D01*
X134356985Y-84059600D01*
X133248100Y-84059600D01*
X133248100Y-82891200D01*
X138014585Y-82891200D01*
X138015114Y-82896909D01*
X138031137Y-83069837D01*
X138033403Y-83094283D01*
X138034971Y-83099794D01*
X138034973Y-83099804D01*
X138087647Y-83284931D01*
X138087649Y-83284937D01*
X138089218Y-83290450D01*
X138180127Y-83473021D01*
X138183579Y-83477592D01*
X138299578Y-83631201D01*
X138299583Y-83631206D01*
X138303036Y-83635779D01*
X138307272Y-83639640D01*
X138307276Y-83639645D01*
X138372813Y-83699389D01*
X138453759Y-83773181D01*
X138627163Y-83880548D01*
X138817344Y-83954224D01*
X139017824Y-83991700D01*
X139216047Y-83991700D01*
X139221776Y-83991700D01*
X139422256Y-83954224D01*
X139612437Y-83880548D01*
X139785841Y-83773181D01*
X139936564Y-83635779D01*
X140059473Y-83473021D01*
X140150382Y-83290450D01*
X140206197Y-83094283D01*
X140225015Y-82891200D01*
X140554585Y-82891200D01*
X140555114Y-82896909D01*
X140571137Y-83069837D01*
X140573403Y-83094283D01*
X140574971Y-83099794D01*
X140574973Y-83099804D01*
X140627647Y-83284931D01*
X140627649Y-83284937D01*
X140629218Y-83290450D01*
X140720127Y-83473021D01*
X140723579Y-83477592D01*
X140839578Y-83631201D01*
X140839583Y-83631206D01*
X140843036Y-83635779D01*
X140847272Y-83639640D01*
X140847276Y-83639645D01*
X140912813Y-83699389D01*
X140993759Y-83773181D01*
X141167163Y-83880548D01*
X141357344Y-83954224D01*
X141557824Y-83991700D01*
X141756047Y-83991700D01*
X141761776Y-83991700D01*
X141962256Y-83954224D01*
X142152437Y-83880548D01*
X142325841Y-83773181D01*
X142476564Y-83635779D01*
X142599473Y-83473021D01*
X142690382Y-83290450D01*
X142746197Y-83094283D01*
X142765015Y-82891200D01*
X142746197Y-82688117D01*
X142743703Y-82679353D01*
X142691952Y-82497468D01*
X142690382Y-82491950D01*
X142599473Y-82309379D01*
X142498289Y-82175389D01*
X142480021Y-82151198D01*
X142480017Y-82151194D01*
X142476564Y-82146621D01*
X142472327Y-82142758D01*
X142472323Y-82142754D01*
X142351948Y-82033019D01*
X142325841Y-82009219D01*
X142320971Y-82006204D01*
X142320969Y-82006202D01*
X142157311Y-81904870D01*
X142157312Y-81904870D01*
X142152437Y-81901852D01*
X142147094Y-81899782D01*
X141967603Y-81830247D01*
X141967598Y-81830245D01*
X141962256Y-81828176D01*
X141956618Y-81827122D01*
X141767405Y-81791752D01*
X141767402Y-81791751D01*
X141761776Y-81790700D01*
X141557824Y-81790700D01*
X141552198Y-81791751D01*
X141552194Y-81791752D01*
X141362981Y-81827122D01*
X141362978Y-81827122D01*
X141357344Y-81828176D01*
X141352003Y-81830244D01*
X141351996Y-81830247D01*
X141172505Y-81899782D01*
X141172500Y-81899784D01*
X141167163Y-81901852D01*
X141162291Y-81904868D01*
X141162288Y-81904870D01*
X140998630Y-82006202D01*
X140998622Y-82006207D01*
X140993759Y-82009219D01*
X140989528Y-82013075D01*
X140989524Y-82013079D01*
X140847276Y-82142754D01*
X140847266Y-82142764D01*
X140843036Y-82146621D01*
X140839587Y-82151187D01*
X140839578Y-82151198D01*
X140723579Y-82304807D01*
X140723576Y-82304811D01*
X140720127Y-82309379D01*
X140717574Y-82314504D01*
X140717572Y-82314509D01*
X140637150Y-82476020D01*
X140629218Y-82491950D01*
X140627650Y-82497458D01*
X140627647Y-82497468D01*
X140574973Y-82682595D01*
X140574970Y-82682606D01*
X140573403Y-82688117D01*
X140572873Y-82693827D01*
X140572873Y-82693832D01*
X140558949Y-82844105D01*
X140554585Y-82891200D01*
X140225015Y-82891200D01*
X140206197Y-82688117D01*
X140203703Y-82679353D01*
X140151952Y-82497468D01*
X140150382Y-82491950D01*
X140059473Y-82309379D01*
X139958289Y-82175389D01*
X139940021Y-82151198D01*
X139940017Y-82151194D01*
X139936564Y-82146621D01*
X139932327Y-82142758D01*
X139932323Y-82142754D01*
X139811948Y-82033019D01*
X139785841Y-82009219D01*
X139780971Y-82006204D01*
X139780969Y-82006202D01*
X139617311Y-81904870D01*
X139617312Y-81904870D01*
X139612437Y-81901852D01*
X139607094Y-81899782D01*
X139427603Y-81830247D01*
X139427598Y-81830245D01*
X139422256Y-81828176D01*
X139416618Y-81827122D01*
X139227405Y-81791752D01*
X139227402Y-81791751D01*
X139221776Y-81790700D01*
X139017824Y-81790700D01*
X139012198Y-81791751D01*
X139012194Y-81791752D01*
X138822981Y-81827122D01*
X138822978Y-81827122D01*
X138817344Y-81828176D01*
X138812003Y-81830244D01*
X138811996Y-81830247D01*
X138632505Y-81899782D01*
X138632500Y-81899784D01*
X138627163Y-81901852D01*
X138622291Y-81904868D01*
X138622288Y-81904870D01*
X138458630Y-82006202D01*
X138458622Y-82006207D01*
X138453759Y-82009219D01*
X138449528Y-82013075D01*
X138449524Y-82013079D01*
X138307276Y-82142754D01*
X138307266Y-82142764D01*
X138303036Y-82146621D01*
X138299587Y-82151187D01*
X138299578Y-82151198D01*
X138183579Y-82304807D01*
X138183576Y-82304811D01*
X138180127Y-82309379D01*
X138177574Y-82314504D01*
X138177572Y-82314509D01*
X138097150Y-82476020D01*
X138089218Y-82491950D01*
X138087650Y-82497458D01*
X138087647Y-82497468D01*
X138034973Y-82682595D01*
X138034970Y-82682606D01*
X138033403Y-82688117D01*
X138032873Y-82693827D01*
X138032873Y-82693832D01*
X138018949Y-82844105D01*
X138014585Y-82891200D01*
X133248100Y-82891200D01*
X133248100Y-81519600D01*
X134356985Y-81519600D01*
X134375803Y-81722683D01*
X134377371Y-81728194D01*
X134377373Y-81728204D01*
X134430047Y-81913331D01*
X134430049Y-81913337D01*
X134431618Y-81918850D01*
X134522527Y-82101421D01*
X134525979Y-82105992D01*
X134641978Y-82259601D01*
X134641983Y-82259606D01*
X134645436Y-82264179D01*
X134649672Y-82268040D01*
X134649676Y-82268045D01*
X134727604Y-82339085D01*
X134796159Y-82401581D01*
X134969563Y-82508948D01*
X135159744Y-82582624D01*
X135360224Y-82620100D01*
X135558447Y-82620100D01*
X135564176Y-82620100D01*
X135764656Y-82582624D01*
X135954837Y-82508948D01*
X136128241Y-82401581D01*
X136278964Y-82264179D01*
X136401873Y-82101421D01*
X136492782Y-81918850D01*
X136548597Y-81722683D01*
X136567415Y-81519600D01*
X136548597Y-81316517D01*
X136525218Y-81234351D01*
X136494352Y-81125868D01*
X136492782Y-81120350D01*
X136401873Y-80937779D01*
X136353376Y-80873559D01*
X136282421Y-80779598D01*
X136282417Y-80779594D01*
X136278964Y-80775021D01*
X136274727Y-80771158D01*
X136274723Y-80771154D01*
X136132475Y-80641479D01*
X136132476Y-80641479D01*
X136128241Y-80637619D01*
X136123371Y-80634604D01*
X136123369Y-80634602D01*
X136073588Y-80603779D01*
X138050688Y-80603779D01*
X138051209Y-80615038D01*
X138088115Y-80744749D01*
X138092244Y-80755405D01*
X138177999Y-80927624D01*
X138184006Y-80937327D01*
X138299949Y-81090862D01*
X138307647Y-81099306D01*
X138449827Y-81228919D01*
X138458931Y-81235795D01*
X138622515Y-81337082D01*
X138632728Y-81342168D01*
X138812133Y-81411669D01*
X138823117Y-81414794D01*
X138856370Y-81421010D01*
X138867398Y-81420628D01*
X138869800Y-81409861D01*
X139369800Y-81409861D01*
X139372201Y-81420628D01*
X139383229Y-81421010D01*
X139416482Y-81414794D01*
X139427466Y-81411669D01*
X139606871Y-81342168D01*
X139617084Y-81337082D01*
X139780668Y-81235795D01*
X139789772Y-81228919D01*
X139931952Y-81099306D01*
X139939650Y-81090862D01*
X140055593Y-80937327D01*
X140061600Y-80927624D01*
X140147355Y-80755405D01*
X140151484Y-80744749D01*
X140188390Y-80615038D01*
X140188911Y-80603779D01*
X140177943Y-80601200D01*
X139386126Y-80601200D01*
X139373250Y-80604650D01*
X139369800Y-80617526D01*
X139369800Y-81409861D01*
X138869800Y-81409861D01*
X138869800Y-80617526D01*
X138866349Y-80604650D01*
X138853474Y-80601200D01*
X138061657Y-80601200D01*
X138050688Y-80603779D01*
X136073588Y-80603779D01*
X135959711Y-80533270D01*
X135959712Y-80533270D01*
X135954837Y-80530252D01*
X135949494Y-80528182D01*
X135770003Y-80458647D01*
X135769998Y-80458645D01*
X135764656Y-80456576D01*
X135759018Y-80455522D01*
X135569805Y-80420152D01*
X135569802Y-80420151D01*
X135564176Y-80419100D01*
X135360224Y-80419100D01*
X135354598Y-80420151D01*
X135354594Y-80420152D01*
X135165381Y-80455522D01*
X135165378Y-80455522D01*
X135159744Y-80456576D01*
X135154403Y-80458644D01*
X135154396Y-80458647D01*
X134974905Y-80528182D01*
X134974900Y-80528184D01*
X134969563Y-80530252D01*
X134964691Y-80533268D01*
X134964688Y-80533270D01*
X134801030Y-80634602D01*
X134801022Y-80634607D01*
X134796159Y-80637619D01*
X134791928Y-80641475D01*
X134791924Y-80641479D01*
X134649676Y-80771154D01*
X134649666Y-80771164D01*
X134645436Y-80775021D01*
X134641987Y-80779587D01*
X134641978Y-80779598D01*
X134525979Y-80933207D01*
X134525976Y-80933211D01*
X134522527Y-80937779D01*
X134519974Y-80942904D01*
X134519972Y-80942909D01*
X134434176Y-81115212D01*
X134431618Y-81120350D01*
X134430050Y-81125858D01*
X134430047Y-81125868D01*
X134377373Y-81310995D01*
X134377370Y-81311006D01*
X134375803Y-81316517D01*
X134375273Y-81322227D01*
X134375273Y-81322232D01*
X134363374Y-81450647D01*
X134356985Y-81519600D01*
X133248100Y-81519600D01*
X133248100Y-80098620D01*
X138050688Y-80098620D01*
X138061657Y-80101200D01*
X138853474Y-80101200D01*
X138866349Y-80097749D01*
X138869800Y-80084874D01*
X139369800Y-80084874D01*
X139373250Y-80097749D01*
X139386126Y-80101200D01*
X140177943Y-80101200D01*
X140188911Y-80098620D01*
X140188390Y-80087361D01*
X140151484Y-79957650D01*
X140147355Y-79946994D01*
X140061600Y-79774775D01*
X140055593Y-79765072D01*
X139939650Y-79611537D01*
X139931952Y-79603093D01*
X139789772Y-79473480D01*
X139780668Y-79466604D01*
X139617084Y-79365317D01*
X139606871Y-79360231D01*
X139427466Y-79290730D01*
X139416482Y-79287605D01*
X139383229Y-79281389D01*
X139372201Y-79281771D01*
X139369800Y-79292539D01*
X139369800Y-80084874D01*
X138869800Y-80084874D01*
X138869800Y-79292539D01*
X138867398Y-79281771D01*
X138856370Y-79281389D01*
X138823117Y-79287605D01*
X138812133Y-79290730D01*
X138632728Y-79360231D01*
X138622515Y-79365317D01*
X138458931Y-79466604D01*
X138449827Y-79473480D01*
X138307647Y-79603093D01*
X138299949Y-79611537D01*
X138184006Y-79765072D01*
X138177999Y-79774775D01*
X138092244Y-79946994D01*
X138088115Y-79957650D01*
X138051209Y-80087361D01*
X138050688Y-80098620D01*
X133248100Y-80098620D01*
X133248100Y-78979600D01*
X134356985Y-78979600D01*
X134357514Y-78985309D01*
X134362697Y-79041250D01*
X134375803Y-79182683D01*
X134377371Y-79188194D01*
X134377373Y-79188204D01*
X134430047Y-79373331D01*
X134430049Y-79373337D01*
X134431618Y-79378850D01*
X134522527Y-79561421D01*
X134525979Y-79565992D01*
X134641978Y-79719601D01*
X134641983Y-79719606D01*
X134645436Y-79724179D01*
X134649672Y-79728040D01*
X134649676Y-79728045D01*
X134695018Y-79769379D01*
X134796159Y-79861581D01*
X134969563Y-79968948D01*
X135159744Y-80042624D01*
X135360224Y-80080100D01*
X135558447Y-80080100D01*
X135564176Y-80080100D01*
X135764656Y-80042624D01*
X135954837Y-79968948D01*
X136128241Y-79861581D01*
X136278964Y-79724179D01*
X136401873Y-79561421D01*
X136492782Y-79378850D01*
X136548597Y-79182683D01*
X136567415Y-78979600D01*
X136548597Y-78776517D01*
X136492782Y-78580350D01*
X136401873Y-78397779D01*
X136353376Y-78333559D01*
X136282421Y-78239598D01*
X136282417Y-78239594D01*
X136278964Y-78235021D01*
X136274727Y-78231158D01*
X136274723Y-78231154D01*
X136143664Y-78111679D01*
X136128241Y-78097619D01*
X136123371Y-78094604D01*
X136123369Y-78094602D01*
X135959711Y-77993270D01*
X135959712Y-77993270D01*
X135954837Y-77990252D01*
X135949494Y-77988182D01*
X135770003Y-77918647D01*
X135769998Y-77918645D01*
X135764656Y-77916576D01*
X135759018Y-77915522D01*
X135569805Y-77880152D01*
X135569802Y-77880151D01*
X135564176Y-77879100D01*
X135360224Y-77879100D01*
X135354598Y-77880151D01*
X135354594Y-77880152D01*
X135165381Y-77915522D01*
X135165378Y-77915522D01*
X135159744Y-77916576D01*
X135154403Y-77918644D01*
X135154396Y-77918647D01*
X134974905Y-77988182D01*
X134974900Y-77988184D01*
X134969563Y-77990252D01*
X134964691Y-77993268D01*
X134964688Y-77993270D01*
X134801030Y-78094602D01*
X134801022Y-78094607D01*
X134796159Y-78097619D01*
X134791928Y-78101475D01*
X134791924Y-78101479D01*
X134649676Y-78231154D01*
X134649666Y-78231164D01*
X134645436Y-78235021D01*
X134641987Y-78239587D01*
X134641978Y-78239598D01*
X134525979Y-78393207D01*
X134525976Y-78393211D01*
X134522527Y-78397779D01*
X134519974Y-78402904D01*
X134519972Y-78402909D01*
X134434176Y-78575212D01*
X134431618Y-78580350D01*
X134430050Y-78585858D01*
X134430047Y-78585868D01*
X134377373Y-78770995D01*
X134377370Y-78771006D01*
X134375803Y-78776517D01*
X134375273Y-78782227D01*
X134375273Y-78782232D01*
X134366939Y-78872178D01*
X134356985Y-78979600D01*
X133248100Y-78979600D01*
X133248100Y-76439600D01*
X134356985Y-76439600D01*
X134357514Y-76445309D01*
X134373421Y-76616985D01*
X134375803Y-76642683D01*
X134377371Y-76648194D01*
X134377373Y-76648204D01*
X134430047Y-76833331D01*
X134430049Y-76833337D01*
X134431618Y-76838850D01*
X134522527Y-77021421D01*
X134525979Y-77025992D01*
X134641978Y-77179601D01*
X134641983Y-77179606D01*
X134645436Y-77184179D01*
X134649672Y-77188040D01*
X134649676Y-77188045D01*
X134709884Y-77242931D01*
X134796159Y-77321581D01*
X134969563Y-77428948D01*
X135159744Y-77502624D01*
X135360224Y-77540100D01*
X135558447Y-77540100D01*
X135564176Y-77540100D01*
X135764656Y-77502624D01*
X135954837Y-77428948D01*
X136128241Y-77321581D01*
X136278964Y-77184179D01*
X136401873Y-77021421D01*
X136408145Y-77008824D01*
X136453868Y-76958672D01*
X136519144Y-76940100D01*
X142061524Y-76940100D01*
X142108977Y-76949539D01*
X142149205Y-76976419D01*
X148294213Y-83121427D01*
X148302764Y-83132038D01*
X148302852Y-83131963D01*
X148308663Y-83138668D01*
X148313457Y-83146128D01*
X148351000Y-83178658D01*
X148357462Y-83184676D01*
X148367007Y-83194221D01*
X148374990Y-83200197D01*
X148377807Y-83202306D01*
X148384699Y-83207860D01*
X148415519Y-83234566D01*
X148415525Y-83234570D01*
X148422227Y-83240377D01*
X148430294Y-83244061D01*
X148437754Y-83248855D01*
X148437690Y-83248953D01*
X148438329Y-83249332D01*
X148438385Y-83249230D01*
X148446165Y-83253478D01*
X148453269Y-83258796D01*
X148499822Y-83276159D01*
X148507960Y-83279530D01*
X148553143Y-83300165D01*
X148561926Y-83301427D01*
X148570432Y-83303925D01*
X148570398Y-83304037D01*
X148571115Y-83304220D01*
X148571140Y-83304106D01*
X148579804Y-83305990D01*
X148588117Y-83309091D01*
X148637652Y-83312633D01*
X148646437Y-83313578D01*
X148659801Y-83315500D01*
X148673292Y-83315500D01*
X148682138Y-83315815D01*
X148731673Y-83319359D01*
X148740339Y-83317473D01*
X148749186Y-83316841D01*
X148749194Y-83316956D01*
X148762744Y-83315500D01*
X149355124Y-83315500D01*
X149402576Y-83324939D01*
X149466291Y-83351330D01*
X149610000Y-83370250D01*
X149753709Y-83351330D01*
X149887625Y-83295861D01*
X150002621Y-83207621D01*
X150090861Y-83092625D01*
X150146330Y-82958709D01*
X150165250Y-82815000D01*
X150146330Y-82671291D01*
X150090861Y-82537375D01*
X150002621Y-82422379D01*
X149887625Y-82334139D01*
X149827848Y-82309379D01*
X149761223Y-82281782D01*
X149761220Y-82281781D01*
X149753709Y-82278670D01*
X149745649Y-82277608D01*
X149745646Y-82277608D01*
X149618059Y-82260811D01*
X149610000Y-82259750D01*
X149601941Y-82260811D01*
X149474353Y-82277608D01*
X149474348Y-82277609D01*
X149466291Y-82278670D01*
X149458781Y-82281780D01*
X149458776Y-82281782D01*
X149402576Y-82305061D01*
X149355124Y-82314500D01*
X148954276Y-82314500D01*
X148906823Y-82305061D01*
X148866595Y-82278181D01*
X143198936Y-76610522D01*
X145253600Y-76610522D01*
X145253938Y-76616985D01*
X145267739Y-76748292D01*
X145270424Y-76760926D01*
X145324873Y-76928499D01*
X145330130Y-76940307D01*
X145418225Y-77092893D01*
X145425820Y-77103347D01*
X145543719Y-77234286D01*
X145553319Y-77242931D01*
X145695866Y-77346498D01*
X145707054Y-77352957D01*
X145868020Y-77424623D01*
X145880306Y-77428615D01*
X145890050Y-77430686D01*
X145901149Y-77430541D01*
X145903600Y-77419714D01*
X146403600Y-77419714D01*
X146406050Y-77430541D01*
X146417149Y-77430686D01*
X146426893Y-77428615D01*
X146439179Y-77424623D01*
X146600143Y-77352958D01*
X146611332Y-77346498D01*
X146753880Y-77242931D01*
X146763480Y-77234286D01*
X146881379Y-77103347D01*
X146888974Y-77092893D01*
X146977069Y-76940307D01*
X146982326Y-76928499D01*
X147036775Y-76760926D01*
X147039460Y-76748292D01*
X147053261Y-76616985D01*
X147053600Y-76610522D01*
X153893600Y-76610522D01*
X153893938Y-76616985D01*
X153907739Y-76748292D01*
X153910424Y-76760926D01*
X153964873Y-76928499D01*
X153970130Y-76940307D01*
X154058225Y-77092893D01*
X154065820Y-77103347D01*
X154183719Y-77234286D01*
X154193319Y-77242931D01*
X154335866Y-77346498D01*
X154347054Y-77352957D01*
X154508020Y-77424623D01*
X154520306Y-77428615D01*
X154530050Y-77430686D01*
X154541149Y-77430541D01*
X154543600Y-77419714D01*
X155043600Y-77419714D01*
X155046050Y-77430541D01*
X155057149Y-77430686D01*
X155066893Y-77428615D01*
X155079179Y-77424623D01*
X155240143Y-77352958D01*
X155251332Y-77346498D01*
X155393880Y-77242931D01*
X155403480Y-77234286D01*
X155521379Y-77103347D01*
X155528974Y-77092893D01*
X155617069Y-76940307D01*
X155622326Y-76928499D01*
X155676775Y-76760926D01*
X155679460Y-76748292D01*
X155693261Y-76616985D01*
X155693600Y-76610522D01*
X155693600Y-76332926D01*
X155690149Y-76320050D01*
X155677274Y-76316600D01*
X155059926Y-76316600D01*
X155047050Y-76320050D01*
X155043600Y-76332926D01*
X155043600Y-77419714D01*
X154543600Y-77419714D01*
X154543600Y-76332926D01*
X154540149Y-76320050D01*
X154527274Y-76316600D01*
X153909926Y-76316600D01*
X153897050Y-76320050D01*
X153893600Y-76332926D01*
X153893600Y-76610522D01*
X147053600Y-76610522D01*
X147053600Y-76332926D01*
X147050149Y-76320050D01*
X147037274Y-76316600D01*
X146419926Y-76316600D01*
X146407050Y-76320050D01*
X146403600Y-76332926D01*
X146403600Y-77419714D01*
X145903600Y-77419714D01*
X145903600Y-76332926D01*
X145900149Y-76320050D01*
X145887274Y-76316600D01*
X145269926Y-76316600D01*
X145257050Y-76320050D01*
X145253600Y-76332926D01*
X145253600Y-76610522D01*
X143198936Y-76610522D01*
X142721585Y-76133171D01*
X142713035Y-76122561D01*
X142712948Y-76122637D01*
X142707134Y-76115928D01*
X142702343Y-76108472D01*
X142695644Y-76102667D01*
X142695642Y-76102665D01*
X142664815Y-76075954D01*
X142658336Y-76069922D01*
X142651930Y-76063516D01*
X142648793Y-76060379D01*
X142637985Y-76052288D01*
X142631107Y-76046747D01*
X142593573Y-76014223D01*
X142585507Y-76010539D01*
X142578045Y-76005743D01*
X142578107Y-76005646D01*
X142577467Y-76005266D01*
X142577412Y-76005368D01*
X142569631Y-76001119D01*
X142562531Y-75995804D01*
X142554223Y-75992705D01*
X142554221Y-75992704D01*
X142515990Y-75978445D01*
X142507813Y-75975057D01*
X142470727Y-75958120D01*
X142470724Y-75958119D01*
X142462657Y-75954435D01*
X142453876Y-75953172D01*
X142445371Y-75950675D01*
X142445403Y-75950564D01*
X142444679Y-75950379D01*
X142444655Y-75950492D01*
X142435989Y-75948606D01*
X142427683Y-75945509D01*
X142418842Y-75944876D01*
X142418840Y-75944876D01*
X142378146Y-75941965D01*
X142369355Y-75941020D01*
X142355999Y-75939100D01*
X142351570Y-75939100D01*
X142342508Y-75939100D01*
X142333661Y-75938784D01*
X142292973Y-75935873D01*
X142292967Y-75935873D01*
X142284127Y-75935241D01*
X142275462Y-75937125D01*
X142266614Y-75937759D01*
X142266605Y-75937643D01*
X142253056Y-75939100D01*
X136519144Y-75939100D01*
X136453868Y-75920528D01*
X136408145Y-75870375D01*
X136404425Y-75862905D01*
X136401873Y-75857779D01*
X136398421Y-75853208D01*
X136398420Y-75853206D01*
X136358448Y-75800274D01*
X145253600Y-75800274D01*
X145257050Y-75813149D01*
X145269926Y-75816600D01*
X145887274Y-75816600D01*
X145900149Y-75813149D01*
X145903600Y-75800274D01*
X146403600Y-75800274D01*
X146407050Y-75813149D01*
X146419926Y-75816600D01*
X147037274Y-75816600D01*
X147070469Y-75807705D01*
X147071035Y-75807332D01*
X147073571Y-75806873D01*
X147083506Y-75804212D01*
X147083727Y-75805039D01*
X147120084Y-75798475D01*
X147168658Y-75809646D01*
X147206143Y-75826765D01*
X147312801Y-75842100D01*
X147629973Y-75842100D01*
X147634399Y-75842100D01*
X147741057Y-75826765D01*
X147871973Y-75766977D01*
X147980743Y-75672728D01*
X148058553Y-75551653D01*
X148099100Y-75413561D01*
X152973100Y-75413561D01*
X152975598Y-75422070D01*
X152975599Y-75422073D01*
X152983873Y-75450252D01*
X153013647Y-75551653D01*
X153091457Y-75672728D01*
X153098155Y-75678532D01*
X153098157Y-75678534D01*
X153147344Y-75721154D01*
X153200227Y-75766977D01*
X153331143Y-75826765D01*
X153437801Y-75842100D01*
X153504973Y-75842100D01*
X153509399Y-75842100D01*
X153616057Y-75826765D01*
X153739353Y-75770456D01*
X153787912Y-75759286D01*
X153836950Y-75768133D01*
X153878545Y-75795570D01*
X153895786Y-75812811D01*
X153909926Y-75816600D01*
X154527274Y-75816600D01*
X154540149Y-75813149D01*
X154543600Y-75800274D01*
X155043600Y-75800274D01*
X155047050Y-75813149D01*
X155059926Y-75816600D01*
X155677274Y-75816600D01*
X155690149Y-75813149D01*
X155693600Y-75800274D01*
X155693600Y-75522678D01*
X155693261Y-75516214D01*
X155679460Y-75384907D01*
X155676775Y-75372273D01*
X155622326Y-75204700D01*
X155617069Y-75192892D01*
X155528974Y-75040306D01*
X155521379Y-75029852D01*
X155403480Y-74898913D01*
X155393880Y-74890268D01*
X155251333Y-74786701D01*
X155240145Y-74780242D01*
X155079179Y-74708576D01*
X155066893Y-74704584D01*
X155057149Y-74702513D01*
X155046050Y-74702658D01*
X155043600Y-74713486D01*
X155043600Y-75800274D01*
X154543600Y-75800274D01*
X154543600Y-74713486D01*
X154541149Y-74702658D01*
X154530050Y-74702513D01*
X154520306Y-74704584D01*
X154508020Y-74708576D01*
X154347056Y-74780241D01*
X154335867Y-74786701D01*
X154193319Y-74890268D01*
X154183719Y-74898913D01*
X154061474Y-75034680D01*
X154060277Y-75033602D01*
X154021919Y-75065878D01*
X153963672Y-75078539D01*
X153906246Y-75062558D01*
X153862913Y-75021628D01*
X153860537Y-75017931D01*
X153860535Y-75017929D01*
X153855743Y-75010472D01*
X153849044Y-75004667D01*
X153849042Y-75004665D01*
X153753676Y-74922031D01*
X153753675Y-74922030D01*
X153746973Y-74916223D01*
X153738907Y-74912539D01*
X153738905Y-74912538D01*
X153624126Y-74860120D01*
X153624125Y-74860119D01*
X153616057Y-74856435D01*
X153607281Y-74855173D01*
X153607277Y-74855172D01*
X153513779Y-74841729D01*
X153513768Y-74841728D01*
X153509399Y-74841100D01*
X153437801Y-74841100D01*
X153433432Y-74841728D01*
X153433420Y-74841729D01*
X153339922Y-74855172D01*
X153339916Y-74855173D01*
X153331143Y-74856435D01*
X153323075Y-74860119D01*
X153323073Y-74860120D01*
X153208294Y-74912538D01*
X153208289Y-74912541D01*
X153200227Y-74916223D01*
X153193527Y-74922028D01*
X153193523Y-74922031D01*
X153098157Y-75004665D01*
X153098151Y-75004670D01*
X153091457Y-75010472D01*
X153086666Y-75017925D01*
X153086664Y-75017929D01*
X153047713Y-75078539D01*
X153013647Y-75131547D01*
X153011147Y-75140060D01*
X153011147Y-75140061D01*
X152975599Y-75261126D01*
X152975598Y-75261130D01*
X152973100Y-75269639D01*
X152973100Y-75413561D01*
X148099100Y-75413561D01*
X148099100Y-75269639D01*
X148058553Y-75131547D01*
X147980743Y-75010472D01*
X147974044Y-75004667D01*
X147974042Y-75004665D01*
X147878676Y-74922031D01*
X147878675Y-74922030D01*
X147871973Y-74916223D01*
X147863907Y-74912539D01*
X147863905Y-74912538D01*
X147749126Y-74860120D01*
X147749125Y-74860119D01*
X147741057Y-74856435D01*
X147732281Y-74855173D01*
X147732277Y-74855172D01*
X147638779Y-74841729D01*
X147638768Y-74841728D01*
X147634399Y-74841100D01*
X147312801Y-74841100D01*
X147308432Y-74841728D01*
X147308420Y-74841729D01*
X147214922Y-74855172D01*
X147214916Y-74855173D01*
X147206143Y-74856435D01*
X147198075Y-74860119D01*
X147198073Y-74860120D01*
X147083294Y-74912538D01*
X147083289Y-74912541D01*
X147075227Y-74916223D01*
X147016645Y-74966984D01*
X147000808Y-74980707D01*
X146943845Y-75008601D01*
X146880540Y-75004678D01*
X146827456Y-74969965D01*
X146763480Y-74898913D01*
X146753880Y-74890268D01*
X146611333Y-74786701D01*
X146600145Y-74780242D01*
X146439179Y-74708576D01*
X146426893Y-74704584D01*
X146417149Y-74702513D01*
X146406050Y-74702658D01*
X146403600Y-74713486D01*
X146403600Y-75800274D01*
X145903600Y-75800274D01*
X145903600Y-74713486D01*
X145901149Y-74702658D01*
X145890050Y-74702513D01*
X145880306Y-74704584D01*
X145868020Y-74708576D01*
X145707056Y-74780241D01*
X145695867Y-74786701D01*
X145553319Y-74890268D01*
X145543719Y-74898913D01*
X145425820Y-75029852D01*
X145418225Y-75040306D01*
X145330130Y-75192892D01*
X145324873Y-75204700D01*
X145270424Y-75372273D01*
X145267739Y-75384907D01*
X145253938Y-75516214D01*
X145253600Y-75522678D01*
X145253600Y-75800274D01*
X136358448Y-75800274D01*
X136282421Y-75699598D01*
X136282417Y-75699594D01*
X136278964Y-75695021D01*
X136274727Y-75691158D01*
X136274723Y-75691154D01*
X136132475Y-75561479D01*
X136132476Y-75561479D01*
X136128241Y-75557619D01*
X136123371Y-75554604D01*
X136123369Y-75554602D01*
X135959711Y-75453270D01*
X135959712Y-75453270D01*
X135954837Y-75450252D01*
X135949494Y-75448182D01*
X135770003Y-75378647D01*
X135769998Y-75378645D01*
X135764656Y-75376576D01*
X135741637Y-75372273D01*
X135569805Y-75340152D01*
X135569802Y-75340151D01*
X135564176Y-75339100D01*
X135360224Y-75339100D01*
X135354598Y-75340151D01*
X135354594Y-75340152D01*
X135165381Y-75375522D01*
X135165378Y-75375522D01*
X135159744Y-75376576D01*
X135154403Y-75378644D01*
X135154396Y-75378647D01*
X134974905Y-75448182D01*
X134974900Y-75448184D01*
X134969563Y-75450252D01*
X134964691Y-75453268D01*
X134964688Y-75453270D01*
X134801030Y-75554602D01*
X134801022Y-75554607D01*
X134796159Y-75557619D01*
X134791928Y-75561475D01*
X134791924Y-75561479D01*
X134649676Y-75691154D01*
X134649666Y-75691164D01*
X134645436Y-75695021D01*
X134641987Y-75699587D01*
X134641978Y-75699598D01*
X134525979Y-75853207D01*
X134525976Y-75853211D01*
X134522527Y-75857779D01*
X134519974Y-75862904D01*
X134519972Y-75862909D01*
X134434176Y-76035212D01*
X134431618Y-76040350D01*
X134430050Y-76045858D01*
X134430047Y-76045868D01*
X134377373Y-76230995D01*
X134377370Y-76231006D01*
X134375803Y-76236517D01*
X134375273Y-76242227D01*
X134375273Y-76242232D01*
X134357514Y-76433891D01*
X134356985Y-76439600D01*
X133248100Y-76439600D01*
X133248100Y-74774274D01*
X134361700Y-74774274D01*
X134362888Y-74780249D01*
X134362889Y-74780253D01*
X134373850Y-74835359D01*
X134373851Y-74835362D01*
X134376234Y-74847340D01*
X134431599Y-74930201D01*
X134514460Y-74985566D01*
X134587526Y-75000100D01*
X136330779Y-75000100D01*
X136336874Y-75000100D01*
X136409940Y-74985566D01*
X136492801Y-74930201D01*
X136548166Y-74847340D01*
X136562700Y-74774274D01*
X136562700Y-73024926D01*
X136548166Y-72951860D01*
X136537249Y-72935522D01*
X145253600Y-72935522D01*
X145253938Y-72941985D01*
X145267739Y-73073292D01*
X145270424Y-73085926D01*
X145324873Y-73253499D01*
X145330130Y-73265307D01*
X145418225Y-73417893D01*
X145425820Y-73428347D01*
X145543719Y-73559286D01*
X145553319Y-73567931D01*
X145695866Y-73671498D01*
X145707054Y-73677957D01*
X145868020Y-73749623D01*
X145880306Y-73753615D01*
X145890050Y-73755686D01*
X145901149Y-73755541D01*
X145903600Y-73744714D01*
X146403600Y-73744714D01*
X146406050Y-73755541D01*
X146417149Y-73755686D01*
X146426893Y-73753615D01*
X146439179Y-73749623D01*
X146600143Y-73677958D01*
X146611332Y-73671498D01*
X146753880Y-73567931D01*
X146763480Y-73559286D01*
X146881379Y-73428347D01*
X146888974Y-73417893D01*
X146977069Y-73265307D01*
X146982326Y-73253499D01*
X147036775Y-73085926D01*
X147039460Y-73073292D01*
X147053261Y-72941985D01*
X147053600Y-72935522D01*
X153893600Y-72935522D01*
X153893938Y-72941985D01*
X153907739Y-73073292D01*
X153910424Y-73085926D01*
X153964873Y-73253499D01*
X153970130Y-73265307D01*
X154058225Y-73417893D01*
X154065820Y-73428347D01*
X154183719Y-73559286D01*
X154193319Y-73567931D01*
X154335866Y-73671498D01*
X154347054Y-73677957D01*
X154508020Y-73749623D01*
X154520306Y-73753615D01*
X154530050Y-73755686D01*
X154541149Y-73755541D01*
X154543600Y-73744714D01*
X155043600Y-73744714D01*
X155046050Y-73755541D01*
X155057149Y-73755686D01*
X155066893Y-73753615D01*
X155079179Y-73749623D01*
X155240143Y-73677958D01*
X155251332Y-73671498D01*
X155393880Y-73567931D01*
X155403480Y-73559286D01*
X155521379Y-73428347D01*
X155528974Y-73417893D01*
X155617069Y-73265307D01*
X155622326Y-73253499D01*
X155676775Y-73085926D01*
X155679460Y-73073292D01*
X155693261Y-72941985D01*
X155693600Y-72935522D01*
X155693600Y-72507926D01*
X155690149Y-72495050D01*
X155677274Y-72491600D01*
X155059926Y-72491600D01*
X155047050Y-72495050D01*
X155043600Y-72507926D01*
X155043600Y-73744714D01*
X154543600Y-73744714D01*
X154543600Y-72507926D01*
X154540149Y-72495050D01*
X154527274Y-72491600D01*
X153909926Y-72491600D01*
X153897050Y-72495050D01*
X153893600Y-72507926D01*
X153893600Y-72935522D01*
X147053600Y-72935522D01*
X147053600Y-72507926D01*
X147050149Y-72495050D01*
X147037274Y-72491600D01*
X146419926Y-72491600D01*
X146407050Y-72495050D01*
X146403600Y-72507926D01*
X146403600Y-73744714D01*
X145903600Y-73744714D01*
X145903600Y-72507926D01*
X145900149Y-72495050D01*
X145887274Y-72491600D01*
X145269926Y-72491600D01*
X145257050Y-72495050D01*
X145253600Y-72507926D01*
X145253600Y-72935522D01*
X136537249Y-72935522D01*
X136492801Y-72868999D01*
X136409940Y-72813634D01*
X136397962Y-72811251D01*
X136397959Y-72811250D01*
X136342853Y-72800289D01*
X136342849Y-72800288D01*
X136336874Y-72799100D01*
X134587526Y-72799100D01*
X134581551Y-72800288D01*
X134581546Y-72800289D01*
X134526440Y-72811250D01*
X134526435Y-72811251D01*
X134514460Y-72813634D01*
X134504305Y-72820419D01*
X134504303Y-72820420D01*
X134441751Y-72862215D01*
X134441748Y-72862217D01*
X134431599Y-72868999D01*
X134424817Y-72879148D01*
X134424815Y-72879151D01*
X134383020Y-72941703D01*
X134383019Y-72941705D01*
X134376234Y-72951860D01*
X134373851Y-72963835D01*
X134373850Y-72963840D01*
X134362889Y-73018946D01*
X134362888Y-73018951D01*
X134361700Y-73024926D01*
X134361700Y-74774274D01*
X133248100Y-74774274D01*
X133248100Y-72125351D01*
X133248326Y-72117864D01*
X133256951Y-71975274D01*
X145253600Y-71975274D01*
X145257050Y-71988149D01*
X145269926Y-71991600D01*
X145887274Y-71991600D01*
X145900149Y-71988149D01*
X145903600Y-71975274D01*
X146403600Y-71975274D01*
X146407050Y-71988149D01*
X146419926Y-71991600D01*
X147037274Y-71991600D01*
X147050149Y-71988149D01*
X147053600Y-71975274D01*
X153893600Y-71975274D01*
X153897050Y-71988149D01*
X153909926Y-71991600D01*
X154527274Y-71991600D01*
X154540149Y-71988149D01*
X154543600Y-71975274D01*
X155043600Y-71975274D01*
X155047050Y-71988149D01*
X155059926Y-71991600D01*
X155677274Y-71991600D01*
X155690149Y-71988149D01*
X155693600Y-71975274D01*
X155693600Y-71547678D01*
X155693261Y-71541214D01*
X155679460Y-71409907D01*
X155676775Y-71397273D01*
X155622326Y-71229700D01*
X155617069Y-71217892D01*
X155528974Y-71065306D01*
X155521379Y-71054852D01*
X155403480Y-70923913D01*
X155393880Y-70915268D01*
X155251333Y-70811701D01*
X155240145Y-70805242D01*
X155079179Y-70733576D01*
X155066893Y-70729584D01*
X155057149Y-70727513D01*
X155046050Y-70727658D01*
X155043600Y-70738486D01*
X155043600Y-71975274D01*
X154543600Y-71975274D01*
X154543600Y-70738486D01*
X154541149Y-70727658D01*
X154530050Y-70727513D01*
X154520306Y-70729584D01*
X154508020Y-70733576D01*
X154347056Y-70805241D01*
X154335867Y-70811701D01*
X154193319Y-70915268D01*
X154183719Y-70923913D01*
X154065820Y-71054852D01*
X154058225Y-71065306D01*
X153970130Y-71217892D01*
X153964873Y-71229700D01*
X153910424Y-71397273D01*
X153907739Y-71409907D01*
X153893938Y-71541214D01*
X153893600Y-71547678D01*
X153893600Y-71975274D01*
X147053600Y-71975274D01*
X147053600Y-71547678D01*
X147053261Y-71541214D01*
X147039460Y-71409907D01*
X147036775Y-71397273D01*
X146982326Y-71229700D01*
X146977069Y-71217892D01*
X146888974Y-71065306D01*
X146881379Y-71054852D01*
X146763480Y-70923913D01*
X146753880Y-70915268D01*
X146611333Y-70811701D01*
X146600145Y-70805242D01*
X146439179Y-70733576D01*
X146426893Y-70729584D01*
X146417149Y-70727513D01*
X146406050Y-70727658D01*
X146403600Y-70738486D01*
X146403600Y-71975274D01*
X145903600Y-71975274D01*
X145903600Y-70738486D01*
X145901149Y-70727658D01*
X145890050Y-70727513D01*
X145880306Y-70729584D01*
X145868020Y-70733576D01*
X145707056Y-70805241D01*
X145695867Y-70811701D01*
X145553319Y-70915268D01*
X145543719Y-70923913D01*
X145425820Y-71054852D01*
X145418225Y-71065306D01*
X145330130Y-71217892D01*
X145324873Y-71229700D01*
X145270424Y-71397273D01*
X145267739Y-71409907D01*
X145253938Y-71541214D01*
X145253600Y-71547678D01*
X145253600Y-71975274D01*
X133256951Y-71975274D01*
X133263975Y-71859144D01*
X133265780Y-71844279D01*
X133311825Y-71593024D01*
X133315403Y-71578506D01*
X133391405Y-71334604D01*
X133396702Y-71320638D01*
X133501549Y-71087677D01*
X133508494Y-71074445D01*
X133640656Y-70855823D01*
X133649143Y-70843527D01*
X133806693Y-70642429D01*
X133816608Y-70631238D01*
X133997238Y-70450608D01*
X134008429Y-70440693D01*
X134209527Y-70283143D01*
X134221823Y-70274656D01*
X134440445Y-70142494D01*
X134453677Y-70135549D01*
X134686638Y-70030702D01*
X134700604Y-70025405D01*
X134944506Y-69949403D01*
X134959020Y-69945825D01*
X135210283Y-69899779D01*
X135225140Y-69897975D01*
X135483863Y-69882326D01*
X135491351Y-69882100D01*
X135535195Y-69882100D01*
X165666005Y-69882100D01*
X165709849Y-69882100D01*
X165717336Y-69882326D01*
G37*
%TD.AperFunction*%
%TA.AperFunction,Conductor*%
G36*
X146910554Y-90870739D02*
G01*
X146950782Y-90897619D01*
X147090915Y-91037752D01*
X147114446Y-91070589D01*
X147126173Y-91109247D01*
X147138993Y-91206629D01*
X147143270Y-91239109D01*
X147146381Y-91246620D01*
X147146382Y-91246623D01*
X147174923Y-91315527D01*
X147198739Y-91373025D01*
X147203684Y-91379469D01*
X147203685Y-91379471D01*
X147232476Y-91416992D01*
X147286979Y-91488021D01*
X147401975Y-91576261D01*
X147535891Y-91631730D01*
X147679600Y-91650650D01*
X147823309Y-91631730D01*
X147957225Y-91576261D01*
X148072221Y-91488021D01*
X148097724Y-91454784D01*
X148145665Y-91416992D01*
X148205829Y-91406654D01*
X148263635Y-91426277D01*
X148305073Y-91471104D01*
X148320100Y-91530272D01*
X148320100Y-93762573D01*
X148313519Y-93802432D01*
X148294476Y-93838060D01*
X148219685Y-93935527D01*
X148219679Y-93935536D01*
X148214739Y-93941975D01*
X148211629Y-93949483D01*
X148211628Y-93949485D01*
X148162382Y-94068376D01*
X148162380Y-94068381D01*
X148159270Y-94075891D01*
X148158209Y-94083948D01*
X148158208Y-94083953D01*
X148157070Y-94092600D01*
X148140350Y-94219600D01*
X148141411Y-94227659D01*
X148155931Y-94337953D01*
X148159270Y-94363309D01*
X148162381Y-94370820D01*
X148162382Y-94370823D01*
X148183863Y-94422683D01*
X148214739Y-94497225D01*
X148302979Y-94612221D01*
X148309421Y-94617164D01*
X148309426Y-94617169D01*
X148390452Y-94679343D01*
X148431487Y-94735308D01*
X148436026Y-94804557D01*
X148402646Y-94865399D01*
X148008170Y-95259875D01*
X147997557Y-95268428D01*
X147997633Y-95268516D01*
X147990928Y-95274325D01*
X147983472Y-95279118D01*
X147977667Y-95285816D01*
X147977666Y-95285818D01*
X147950953Y-95316646D01*
X147944927Y-95323119D01*
X147938507Y-95329539D01*
X147938502Y-95329544D01*
X147935379Y-95332668D01*
X147932732Y-95336203D01*
X147932717Y-95336221D01*
X147927274Y-95343491D01*
X147921732Y-95350368D01*
X147895029Y-95381186D01*
X147895025Y-95381191D01*
X147889223Y-95387888D01*
X147885540Y-95395950D01*
X147880744Y-95403414D01*
X147880648Y-95403352D01*
X147880267Y-95403993D01*
X147880368Y-95404048D01*
X147876119Y-95411829D01*
X147870804Y-95418930D01*
X147867705Y-95427237D01*
X147867704Y-95427240D01*
X147853452Y-95465452D01*
X147850066Y-95473627D01*
X147833118Y-95510737D01*
X147833116Y-95510743D01*
X147829435Y-95518804D01*
X147828172Y-95527580D01*
X147825675Y-95536088D01*
X147825564Y-95536055D01*
X147825379Y-95536781D01*
X147825492Y-95536806D01*
X147823607Y-95545469D01*
X147820509Y-95553778D01*
X147819876Y-95562621D01*
X147819876Y-95562623D01*
X147816965Y-95603315D01*
X147816020Y-95612104D01*
X147814100Y-95625462D01*
X147814100Y-95629891D01*
X147814100Y-95638953D01*
X147813784Y-95647800D01*
X147810873Y-95688487D01*
X147810873Y-95688492D01*
X147810241Y-95697334D01*
X147812125Y-95705998D01*
X147812759Y-95714847D01*
X147812643Y-95714855D01*
X147814100Y-95728405D01*
X147814100Y-103832788D01*
X147798762Y-103892524D01*
X147789203Y-103909912D01*
X147732161Y-104013670D01*
X147732157Y-104013677D01*
X147728403Y-104020508D01*
X147726463Y-104028060D01*
X147726462Y-104028065D01*
X147691040Y-104166024D01*
X147689100Y-104173581D01*
X147689100Y-104181382D01*
X147689100Y-108768148D01*
X147679661Y-108815601D01*
X147652781Y-108855829D01*
X147329828Y-109178781D01*
X147289600Y-109205661D01*
X147242147Y-109215100D01*
X147022019Y-109215100D01*
X139354052Y-109215100D01*
X139306599Y-109205661D01*
X139266371Y-109178781D01*
X137800419Y-107712828D01*
X137773539Y-107672600D01*
X137764100Y-107625147D01*
X137764100Y-106987267D01*
X138161927Y-106987267D01*
X138162171Y-106995053D01*
X138162171Y-106995061D01*
X138164039Y-107054473D01*
X138164100Y-107058368D01*
X138164100Y-107085950D01*
X138164588Y-107089819D01*
X138164589Y-107089825D01*
X138164604Y-107089943D01*
X138165518Y-107101566D01*
X138166645Y-107137430D01*
X138166646Y-107137437D01*
X138166891Y-107145227D01*
X138169067Y-107152719D01*
X138169068Y-107152721D01*
X138172479Y-107164462D01*
X138176425Y-107183515D01*
X138178936Y-107203392D01*
X138181806Y-107210642D01*
X138181808Y-107210648D01*
X138195014Y-107244004D01*
X138198797Y-107255051D01*
X138210982Y-107296990D01*
X138214953Y-107303705D01*
X138214954Y-107303707D01*
X138221181Y-107314237D01*
X138229736Y-107331699D01*
X138234242Y-107343080D01*
X138234243Y-107343083D01*
X138237114Y-107350332D01*
X138245961Y-107362509D01*
X138262781Y-107385660D01*
X138269193Y-107395422D01*
X138287456Y-107426302D01*
X138287459Y-107426307D01*
X138291430Y-107433020D01*
X138296944Y-107438534D01*
X138296945Y-107438535D01*
X138305590Y-107447180D01*
X138318226Y-107461974D01*
X138325419Y-107471875D01*
X138325423Y-107471879D01*
X138330006Y-107478187D01*
X138336015Y-107483158D01*
X138336016Y-107483159D01*
X138363658Y-107506026D01*
X138372299Y-107513889D01*
X139003507Y-108145097D01*
X139010956Y-108153283D01*
X139015014Y-108159677D01*
X139020699Y-108165015D01*
X139020701Y-108165018D01*
X139064039Y-108205715D01*
X139066836Y-108208426D01*
X139086330Y-108227920D01*
X139089415Y-108230313D01*
X139089501Y-108230380D01*
X139098373Y-108237958D01*
X139106556Y-108245642D01*
X139130218Y-108267862D01*
X139137048Y-108271617D01*
X139137051Y-108271619D01*
X139147771Y-108277512D01*
X139164022Y-108288186D01*
X139179864Y-108300474D01*
X139187021Y-108303571D01*
X139187023Y-108303572D01*
X139219955Y-108317822D01*
X139230450Y-108322964D01*
X139268708Y-108343997D01*
X139288112Y-108348979D01*
X139306514Y-108355280D01*
X139315342Y-108359100D01*
X139324905Y-108363238D01*
X139362497Y-108369191D01*
X139368039Y-108370069D01*
X139379482Y-108372439D01*
X139414225Y-108381360D01*
X139414226Y-108381360D01*
X139421781Y-108383300D01*
X139441817Y-108383300D01*
X139461202Y-108384825D01*
X139480996Y-108387960D01*
X139519076Y-108384360D01*
X139524476Y-108383850D01*
X139536145Y-108383300D01*
X146546655Y-108383300D01*
X146550550Y-108383300D01*
X146667992Y-108368464D01*
X146814932Y-108310286D01*
X146942787Y-108217394D01*
X147043524Y-108095623D01*
X147110814Y-107952626D01*
X147140427Y-107797388D01*
X147130504Y-107639662D01*
X147081667Y-107489359D01*
X146996986Y-107355923D01*
X146991300Y-107350584D01*
X146991299Y-107350582D01*
X146887468Y-107253078D01*
X146881782Y-107247738D01*
X146814315Y-107210648D01*
X146750129Y-107175361D01*
X146750124Y-107175359D01*
X146743292Y-107171603D01*
X146735736Y-107169663D01*
X146735734Y-107169662D01*
X146597775Y-107134240D01*
X146597774Y-107134239D01*
X146590219Y-107132300D01*
X146582418Y-107132300D01*
X139811252Y-107132300D01*
X139763799Y-107122861D01*
X139723571Y-107095981D01*
X139451419Y-106823828D01*
X139424539Y-106783600D01*
X139415100Y-106736147D01*
X139415100Y-99391145D01*
X139415100Y-99387250D01*
X139400264Y-99269808D01*
X139342086Y-99122868D01*
X139263470Y-99014662D01*
X139253781Y-99001326D01*
X139253779Y-99001324D01*
X139249194Y-98995013D01*
X139243183Y-98990040D01*
X139243181Y-98990038D01*
X139147894Y-98911211D01*
X139127423Y-98894276D01*
X139120363Y-98890954D01*
X139120362Y-98890953D01*
X139041242Y-98853722D01*
X138984426Y-98826986D01*
X138976767Y-98825524D01*
X138976764Y-98825524D01*
X138836845Y-98798833D01*
X138836839Y-98798832D01*
X138829188Y-98797373D01*
X138821409Y-98797862D01*
X138821404Y-98797862D01*
X138679249Y-98806806D01*
X138679248Y-98806806D01*
X138671462Y-98807296D01*
X138664047Y-98809705D01*
X138664043Y-98809706D01*
X138528577Y-98853722D01*
X138528572Y-98853724D01*
X138521159Y-98856133D01*
X138514579Y-98860308D01*
X138514572Y-98860312D01*
X138394309Y-98936634D01*
X138394306Y-98936635D01*
X138387723Y-98940814D01*
X138382388Y-98946494D01*
X138382382Y-98946500D01*
X138284878Y-99050331D01*
X138284876Y-99050333D01*
X138279538Y-99056018D01*
X138275780Y-99062853D01*
X138275779Y-99062855D01*
X138207161Y-99187670D01*
X138207157Y-99187677D01*
X138203403Y-99194508D01*
X138201463Y-99202060D01*
X138201462Y-99202065D01*
X138167251Y-99335309D01*
X138164100Y-99347581D01*
X138164100Y-99355382D01*
X138164100Y-106968825D01*
X138163578Y-106979880D01*
X138161927Y-106987267D01*
X137764100Y-106987267D01*
X137764100Y-102425371D01*
X137764620Y-102414318D01*
X137766272Y-102406932D01*
X137764161Y-102339744D01*
X137764100Y-102335850D01*
X137764100Y-102312145D01*
X137764100Y-102308250D01*
X137763598Y-102304281D01*
X137762680Y-102292624D01*
X137761554Y-102256772D01*
X137761309Y-102248972D01*
X137755720Y-102229739D01*
X137751774Y-102210682D01*
X137749264Y-102190808D01*
X137733181Y-102150187D01*
X137729399Y-102139140D01*
X137719393Y-102104701D01*
X137717217Y-102097210D01*
X137713244Y-102090492D01*
X137707022Y-102079970D01*
X137698460Y-102062492D01*
X137693960Y-102051127D01*
X137693959Y-102051126D01*
X137691086Y-102043868D01*
X137665412Y-102008531D01*
X137659009Y-101998784D01*
X137636770Y-101961179D01*
X137622606Y-101947015D01*
X137609968Y-101932218D01*
X137602784Y-101922329D01*
X137602778Y-101922323D01*
X137598194Y-101916013D01*
X137564546Y-101888177D01*
X137555905Y-101880314D01*
X137127886Y-101452295D01*
X137120442Y-101444114D01*
X137116386Y-101437723D01*
X137067375Y-101391698D01*
X137064578Y-101388987D01*
X137047827Y-101372236D01*
X137045071Y-101369480D01*
X137041890Y-101367012D01*
X137033014Y-101359430D01*
X137006869Y-101334878D01*
X137006867Y-101334876D01*
X137001182Y-101329538D01*
X136994349Y-101325782D01*
X136994343Y-101325777D01*
X136983625Y-101319885D01*
X136967366Y-101309206D01*
X136957695Y-101301704D01*
X136957692Y-101301702D01*
X136951536Y-101296927D01*
X136944379Y-101293829D01*
X136944376Y-101293828D01*
X136911449Y-101279578D01*
X136900963Y-101274441D01*
X136869532Y-101257162D01*
X136869523Y-101257158D01*
X136862692Y-101253403D01*
X136855135Y-101251462D01*
X136855131Y-101251461D01*
X136843288Y-101248420D01*
X136824884Y-101242119D01*
X136813657Y-101237260D01*
X136813650Y-101237258D01*
X136806496Y-101234162D01*
X136798792Y-101232941D01*
X136798790Y-101232941D01*
X136763359Y-101227329D01*
X136751924Y-101224961D01*
X136717171Y-101216038D01*
X136717163Y-101216037D01*
X136709619Y-101214100D01*
X136701823Y-101214100D01*
X136689583Y-101214100D01*
X136670197Y-101212574D01*
X136650404Y-101209440D01*
X136642638Y-101210174D01*
X136642635Y-101210174D01*
X136606924Y-101213550D01*
X136595255Y-101214100D01*
X136430633Y-101214100D01*
X136375361Y-101201100D01*
X136331679Y-101164827D01*
X136282421Y-101099598D01*
X136282417Y-101099594D01*
X136278964Y-101095021D01*
X136274727Y-101091158D01*
X136274723Y-101091154D01*
X136132475Y-100961479D01*
X136132476Y-100961479D01*
X136128241Y-100957619D01*
X136123371Y-100954604D01*
X136123369Y-100954602D01*
X135959711Y-100853270D01*
X135959712Y-100853270D01*
X135954837Y-100850252D01*
X135949494Y-100848182D01*
X135770003Y-100778647D01*
X135769998Y-100778645D01*
X135764656Y-100776576D01*
X135759018Y-100775522D01*
X135569805Y-100740152D01*
X135569802Y-100740151D01*
X135564176Y-100739100D01*
X135360224Y-100739100D01*
X135354598Y-100740151D01*
X135354594Y-100740152D01*
X135165381Y-100775522D01*
X135165378Y-100775522D01*
X135159744Y-100776576D01*
X135154403Y-100778644D01*
X135154396Y-100778647D01*
X134974905Y-100848182D01*
X134974900Y-100848184D01*
X134969563Y-100850252D01*
X134964691Y-100853268D01*
X134964688Y-100853270D01*
X134801030Y-100954602D01*
X134801022Y-100954607D01*
X134796159Y-100957619D01*
X134791928Y-100961475D01*
X134791924Y-100961479D01*
X134649676Y-101091154D01*
X134649666Y-101091164D01*
X134645436Y-101095021D01*
X134641987Y-101099587D01*
X134641978Y-101099598D01*
X134525979Y-101253207D01*
X134525976Y-101253211D01*
X134522527Y-101257779D01*
X134519974Y-101262904D01*
X134519972Y-101262909D01*
X134434176Y-101435212D01*
X134431618Y-101440350D01*
X134430050Y-101445858D01*
X134430047Y-101445868D01*
X134429966Y-101446156D01*
X134429872Y-101446320D01*
X134427978Y-101451211D01*
X134427257Y-101450931D01*
X134401039Y-101497161D01*
X134351911Y-101529172D01*
X134293568Y-101535032D01*
X134239056Y-101513429D01*
X134200564Y-101469195D01*
X134186700Y-101412221D01*
X134186700Y-99726979D01*
X134200564Y-99670005D01*
X134239056Y-99625771D01*
X134293568Y-99604168D01*
X134351911Y-99610028D01*
X134401039Y-99642039D01*
X134427257Y-99688268D01*
X134427978Y-99687989D01*
X134429872Y-99692879D01*
X134429966Y-99693044D01*
X134430047Y-99693331D01*
X134430049Y-99693337D01*
X134431618Y-99698850D01*
X134522527Y-99881421D01*
X134525979Y-99885992D01*
X134641978Y-100039601D01*
X134641983Y-100039606D01*
X134645436Y-100044179D01*
X134649672Y-100048040D01*
X134649676Y-100048045D01*
X134742189Y-100132381D01*
X134796159Y-100181581D01*
X134969563Y-100288948D01*
X135159744Y-100362624D01*
X135360224Y-100400100D01*
X135558447Y-100400100D01*
X135564176Y-100400100D01*
X135764656Y-100362624D01*
X135954837Y-100288948D01*
X136128241Y-100181581D01*
X136278964Y-100044179D01*
X136401873Y-99881421D01*
X136492782Y-99698850D01*
X136548597Y-99502683D01*
X136567415Y-99299600D01*
X136548597Y-99096517D01*
X136507385Y-98951676D01*
X136506634Y-98886575D01*
X136538969Y-98830066D01*
X142083817Y-93285219D01*
X142124046Y-93258339D01*
X142171499Y-93248900D01*
X146935093Y-93248900D01*
X146974952Y-93255481D01*
X147010581Y-93274524D01*
X147122575Y-93360461D01*
X147256491Y-93415930D01*
X147400200Y-93434850D01*
X147543909Y-93415930D01*
X147677825Y-93360461D01*
X147792821Y-93272221D01*
X147881061Y-93157225D01*
X147936530Y-93023309D01*
X147955450Y-92879600D01*
X147936530Y-92735891D01*
X147881061Y-92601975D01*
X147792821Y-92486979D01*
X147755114Y-92458045D01*
X147684271Y-92403685D01*
X147684269Y-92403684D01*
X147677825Y-92398739D01*
X147641792Y-92383814D01*
X147551423Y-92346382D01*
X147551420Y-92346381D01*
X147543909Y-92343270D01*
X147535849Y-92342208D01*
X147535846Y-92342208D01*
X147408259Y-92325411D01*
X147400200Y-92324350D01*
X147392141Y-92325411D01*
X147264553Y-92342208D01*
X147264548Y-92342209D01*
X147256491Y-92343270D01*
X147248981Y-92346380D01*
X147248976Y-92346382D01*
X147130085Y-92395628D01*
X147130083Y-92395629D01*
X147122575Y-92398739D01*
X147116136Y-92403679D01*
X147116127Y-92403685D01*
X147026740Y-92472276D01*
X146991112Y-92491319D01*
X146951253Y-92497900D01*
X142016405Y-92497900D01*
X141990956Y-92495260D01*
X141990390Y-92495141D01*
X141990383Y-92495140D01*
X141980332Y-92493033D01*
X141970141Y-92494303D01*
X141970137Y-92494303D01*
X141948924Y-92496948D01*
X141943709Y-92497271D01*
X141943726Y-92497476D01*
X141938607Y-92497900D01*
X141933486Y-92497900D01*
X141928438Y-92498742D01*
X141928428Y-92498743D01*
X141912994Y-92501318D01*
X141907934Y-92502055D01*
X141866171Y-92507261D01*
X141866160Y-92507264D01*
X141855974Y-92508534D01*
X141848829Y-92512026D01*
X141840990Y-92513335D01*
X141831961Y-92518220D01*
X141831958Y-92518222D01*
X141794969Y-92538238D01*
X141790421Y-92540579D01*
X141752617Y-92559062D01*
X141752615Y-92559063D01*
X141743389Y-92563574D01*
X141737765Y-92569197D01*
X141730774Y-92572981D01*
X141723821Y-92580532D01*
X141723819Y-92580535D01*
X141695317Y-92611495D01*
X141691771Y-92615190D01*
X136042150Y-98264810D01*
X136002803Y-98291321D01*
X135956379Y-98301114D01*
X135909675Y-98292756D01*
X135770003Y-98238647D01*
X135769998Y-98238645D01*
X135764656Y-98236576D01*
X135759018Y-98235522D01*
X135569805Y-98200152D01*
X135569802Y-98200151D01*
X135564176Y-98199100D01*
X135360224Y-98199100D01*
X135354598Y-98200151D01*
X135354594Y-98200152D01*
X135165381Y-98235522D01*
X135165378Y-98235522D01*
X135159744Y-98236576D01*
X135154403Y-98238644D01*
X135154396Y-98238647D01*
X134974905Y-98308182D01*
X134974900Y-98308184D01*
X134969563Y-98310252D01*
X134964691Y-98313268D01*
X134964688Y-98313270D01*
X134801030Y-98414602D01*
X134801022Y-98414607D01*
X134796159Y-98417619D01*
X134791928Y-98421475D01*
X134791924Y-98421479D01*
X134649676Y-98551154D01*
X134649666Y-98551164D01*
X134645436Y-98555021D01*
X134641987Y-98559587D01*
X134641978Y-98559598D01*
X134525979Y-98713207D01*
X134525976Y-98713211D01*
X134522527Y-98717779D01*
X134519974Y-98722904D01*
X134519972Y-98722909D01*
X134438477Y-98886575D01*
X134431618Y-98900350D01*
X134430050Y-98905858D01*
X134430047Y-98905868D01*
X134429966Y-98906156D01*
X134429872Y-98906320D01*
X134427978Y-98911211D01*
X134427257Y-98910931D01*
X134401039Y-98957161D01*
X134351911Y-98989172D01*
X134293568Y-98995032D01*
X134239056Y-98973429D01*
X134200564Y-98929195D01*
X134186700Y-98872221D01*
X134186700Y-97186979D01*
X134200564Y-97130005D01*
X134239056Y-97085771D01*
X134293568Y-97064168D01*
X134351911Y-97070028D01*
X134401039Y-97102039D01*
X134427257Y-97148268D01*
X134427978Y-97147989D01*
X134429872Y-97152879D01*
X134429966Y-97153044D01*
X134430047Y-97153331D01*
X134430049Y-97153337D01*
X134431618Y-97158850D01*
X134522527Y-97341421D01*
X134525979Y-97345992D01*
X134641978Y-97499601D01*
X134641983Y-97499606D01*
X134645436Y-97504179D01*
X134649672Y-97508040D01*
X134649676Y-97508045D01*
X134703063Y-97556713D01*
X134796159Y-97641581D01*
X134969563Y-97748948D01*
X135159744Y-97822624D01*
X135360224Y-97860100D01*
X135558447Y-97860100D01*
X135564176Y-97860100D01*
X135764656Y-97822624D01*
X135954837Y-97748948D01*
X136128241Y-97641581D01*
X136278964Y-97504179D01*
X136401873Y-97341421D01*
X136492782Y-97158850D01*
X136548597Y-96962683D01*
X136567415Y-96759600D01*
X136548597Y-96556517D01*
X136507385Y-96411676D01*
X136506634Y-96346575D01*
X136538969Y-96290066D01*
X141931417Y-90897619D01*
X141971646Y-90870739D01*
X142019099Y-90861300D01*
X146863101Y-90861300D01*
X146910554Y-90870739D01*
G37*
%TD.AperFunction*%
%TA.AperFunction,Conductor*%
G36*
X144091154Y-88254539D02*
G01*
X144131382Y-88281419D01*
X145162339Y-89312377D01*
X145166199Y-89316748D01*
X145169381Y-89322626D01*
X145176936Y-89329581D01*
X145176937Y-89329582D01*
X145207886Y-89358073D01*
X145211583Y-89361621D01*
X145748581Y-89898619D01*
X145778831Y-89947982D01*
X145783373Y-90005698D01*
X145761218Y-90059185D01*
X145717195Y-90096785D01*
X145660900Y-90110300D01*
X141864005Y-90110300D01*
X141838556Y-90107660D01*
X141837990Y-90107541D01*
X141837983Y-90107540D01*
X141827932Y-90105433D01*
X141817741Y-90106703D01*
X141817737Y-90106703D01*
X141796524Y-90109348D01*
X141791309Y-90109671D01*
X141791326Y-90109876D01*
X141786207Y-90110300D01*
X141781086Y-90110300D01*
X141776038Y-90111142D01*
X141776028Y-90111143D01*
X141760594Y-90113718D01*
X141755534Y-90114455D01*
X141713771Y-90119661D01*
X141713760Y-90119664D01*
X141703574Y-90120934D01*
X141696429Y-90124426D01*
X141688590Y-90125735D01*
X141679561Y-90130620D01*
X141679558Y-90130622D01*
X141642569Y-90150638D01*
X141638021Y-90152979D01*
X141600217Y-90171462D01*
X141600215Y-90171463D01*
X141590989Y-90175974D01*
X141585365Y-90181597D01*
X141578374Y-90185381D01*
X141571421Y-90192932D01*
X141571419Y-90192935D01*
X141542917Y-90223895D01*
X141539371Y-90227590D01*
X136042150Y-95724810D01*
X136002803Y-95751321D01*
X135956379Y-95761114D01*
X135909675Y-95752756D01*
X135770003Y-95698647D01*
X135769998Y-95698645D01*
X135764656Y-95696576D01*
X135759018Y-95695522D01*
X135569805Y-95660152D01*
X135569802Y-95660151D01*
X135564176Y-95659100D01*
X135360224Y-95659100D01*
X135354598Y-95660151D01*
X135354594Y-95660152D01*
X135165381Y-95695522D01*
X135165378Y-95695522D01*
X135159744Y-95696576D01*
X135154403Y-95698644D01*
X135154396Y-95698647D01*
X134974905Y-95768182D01*
X134974900Y-95768184D01*
X134969563Y-95770252D01*
X134964691Y-95773268D01*
X134964688Y-95773270D01*
X134801030Y-95874602D01*
X134801022Y-95874607D01*
X134796159Y-95877619D01*
X134791928Y-95881475D01*
X134791924Y-95881479D01*
X134649676Y-96011154D01*
X134649666Y-96011164D01*
X134645436Y-96015021D01*
X134641987Y-96019587D01*
X134641978Y-96019598D01*
X134525979Y-96173207D01*
X134525976Y-96173211D01*
X134522527Y-96177779D01*
X134519974Y-96182904D01*
X134519972Y-96182909D01*
X134438477Y-96346575D01*
X134431618Y-96360350D01*
X134430050Y-96365858D01*
X134430047Y-96365868D01*
X134429966Y-96366156D01*
X134429872Y-96366320D01*
X134427978Y-96371211D01*
X134427257Y-96370931D01*
X134401039Y-96417161D01*
X134351911Y-96449172D01*
X134293568Y-96455032D01*
X134239056Y-96433429D01*
X134200564Y-96389195D01*
X134186700Y-96332221D01*
X134186700Y-94646979D01*
X134200564Y-94590005D01*
X134239056Y-94545771D01*
X134293568Y-94524168D01*
X134351911Y-94530028D01*
X134401039Y-94562039D01*
X134427257Y-94608268D01*
X134427978Y-94607989D01*
X134429872Y-94612879D01*
X134429966Y-94613044D01*
X134430047Y-94613331D01*
X134430049Y-94613337D01*
X134431618Y-94618850D01*
X134446058Y-94647850D01*
X134497532Y-94751225D01*
X134522527Y-94801421D01*
X134525979Y-94805992D01*
X134641978Y-94959601D01*
X134641983Y-94959606D01*
X134645436Y-94964179D01*
X134649672Y-94968040D01*
X134649676Y-94968045D01*
X134751427Y-95060803D01*
X134796159Y-95101581D01*
X134969563Y-95208948D01*
X135159744Y-95282624D01*
X135360224Y-95320100D01*
X135558447Y-95320100D01*
X135564176Y-95320100D01*
X135764656Y-95282624D01*
X135954837Y-95208948D01*
X136128241Y-95101581D01*
X136278964Y-94964179D01*
X136401873Y-94801421D01*
X136492782Y-94618850D01*
X136548597Y-94422683D01*
X136567415Y-94219600D01*
X136548597Y-94016517D01*
X136541831Y-93992739D01*
X136494352Y-93825868D01*
X136492782Y-93820350D01*
X136401873Y-93637779D01*
X136326033Y-93537350D01*
X136282421Y-93479598D01*
X136282417Y-93479594D01*
X136278964Y-93475021D01*
X136274727Y-93471158D01*
X136274723Y-93471154D01*
X136156709Y-93363571D01*
X136128241Y-93337619D01*
X136123371Y-93334604D01*
X136123369Y-93334602D01*
X135959711Y-93233270D01*
X135959712Y-93233270D01*
X135954837Y-93230252D01*
X135949494Y-93228182D01*
X135770003Y-93158647D01*
X135769998Y-93158645D01*
X135764656Y-93156576D01*
X135759018Y-93155522D01*
X135569805Y-93120152D01*
X135569802Y-93120151D01*
X135564176Y-93119100D01*
X135360224Y-93119100D01*
X135354598Y-93120151D01*
X135354594Y-93120152D01*
X135165381Y-93155522D01*
X135165378Y-93155522D01*
X135159744Y-93156576D01*
X135154403Y-93158644D01*
X135154396Y-93158647D01*
X134974905Y-93228182D01*
X134974900Y-93228184D01*
X134969563Y-93230252D01*
X134964691Y-93233268D01*
X134964688Y-93233270D01*
X134801030Y-93334602D01*
X134801022Y-93334607D01*
X134796159Y-93337619D01*
X134791928Y-93341475D01*
X134791924Y-93341479D01*
X134649676Y-93471154D01*
X134649666Y-93471164D01*
X134645436Y-93475021D01*
X134641987Y-93479587D01*
X134641978Y-93479598D01*
X134525979Y-93633207D01*
X134525976Y-93633211D01*
X134522527Y-93637779D01*
X134519974Y-93642904D01*
X134519972Y-93642909D01*
X134434294Y-93814975D01*
X134431618Y-93820350D01*
X134430050Y-93825858D01*
X134430047Y-93825868D01*
X134429966Y-93826156D01*
X134429872Y-93826320D01*
X134427978Y-93831211D01*
X134427257Y-93830931D01*
X134401039Y-93877161D01*
X134351911Y-93909172D01*
X134293568Y-93915032D01*
X134239056Y-93893429D01*
X134200564Y-93849195D01*
X134186700Y-93792221D01*
X134186700Y-92106979D01*
X134200564Y-92050005D01*
X134239056Y-92005771D01*
X134293568Y-91984168D01*
X134351911Y-91990028D01*
X134401039Y-92022039D01*
X134427257Y-92068268D01*
X134427978Y-92067989D01*
X134429872Y-92072879D01*
X134429966Y-92073044D01*
X134430047Y-92073331D01*
X134430049Y-92073337D01*
X134431618Y-92078850D01*
X134522527Y-92261421D01*
X134525979Y-92265992D01*
X134641978Y-92419601D01*
X134641983Y-92419606D01*
X134645436Y-92424179D01*
X134649672Y-92428040D01*
X134649676Y-92428045D01*
X134730862Y-92502055D01*
X134796159Y-92561581D01*
X134969563Y-92668948D01*
X135159744Y-92742624D01*
X135360224Y-92780100D01*
X135558447Y-92780100D01*
X135564176Y-92780100D01*
X135764656Y-92742624D01*
X135954837Y-92668948D01*
X136128241Y-92561581D01*
X136278964Y-92424179D01*
X136401873Y-92261421D01*
X136492782Y-92078850D01*
X136548597Y-91882683D01*
X136567415Y-91679600D01*
X136548597Y-91476517D01*
X136531660Y-91416992D01*
X136494352Y-91285868D01*
X136492782Y-91280350D01*
X136401873Y-91097779D01*
X136337376Y-91012371D01*
X136282421Y-90939598D01*
X136282417Y-90939594D01*
X136278964Y-90935021D01*
X136274727Y-90931158D01*
X136274723Y-90931154D01*
X136132475Y-90801479D01*
X136132476Y-90801479D01*
X136128241Y-90797619D01*
X136123371Y-90794604D01*
X136123369Y-90794602D01*
X135959711Y-90693270D01*
X135959712Y-90693270D01*
X135954837Y-90690252D01*
X135949494Y-90688182D01*
X135770003Y-90618647D01*
X135769998Y-90618645D01*
X135764656Y-90616576D01*
X135759018Y-90615522D01*
X135569805Y-90580152D01*
X135569802Y-90580151D01*
X135564176Y-90579100D01*
X135360224Y-90579100D01*
X135354598Y-90580151D01*
X135354594Y-90580152D01*
X135165381Y-90615522D01*
X135165378Y-90615522D01*
X135159744Y-90616576D01*
X135154403Y-90618644D01*
X135154396Y-90618647D01*
X134974905Y-90688182D01*
X134974900Y-90688184D01*
X134969563Y-90690252D01*
X134964691Y-90693268D01*
X134964688Y-90693270D01*
X134801030Y-90794602D01*
X134801022Y-90794607D01*
X134796159Y-90797619D01*
X134791928Y-90801475D01*
X134791924Y-90801479D01*
X134649676Y-90931154D01*
X134649666Y-90931164D01*
X134645436Y-90935021D01*
X134641987Y-90939587D01*
X134641978Y-90939598D01*
X134525979Y-91093207D01*
X134525976Y-91093211D01*
X134522527Y-91097779D01*
X134519974Y-91102904D01*
X134519972Y-91102909D01*
X134438149Y-91267233D01*
X134431618Y-91280350D01*
X134430050Y-91285858D01*
X134430047Y-91285868D01*
X134429966Y-91286156D01*
X134429872Y-91286320D01*
X134427978Y-91291211D01*
X134427257Y-91290931D01*
X134401039Y-91337161D01*
X134351911Y-91369172D01*
X134293568Y-91375032D01*
X134239056Y-91353429D01*
X134200564Y-91309195D01*
X134186700Y-91252221D01*
X134186700Y-91126491D01*
X134191847Y-91091137D01*
X134192497Y-91088951D01*
X134193544Y-91085433D01*
X134195087Y-91080614D01*
X134212100Y-91031060D01*
X134212100Y-91023106D01*
X134214368Y-91015488D01*
X134212206Y-90963207D01*
X134212100Y-90958084D01*
X134212100Y-89625213D01*
X134229485Y-89561895D01*
X134276765Y-89516331D01*
X134340682Y-89501298D01*
X134403315Y-89521010D01*
X134447099Y-89569941D01*
X134522527Y-89721421D01*
X134533099Y-89735421D01*
X134641978Y-89879601D01*
X134641983Y-89879606D01*
X134645436Y-89884179D01*
X134649672Y-89888040D01*
X134649676Y-89888045D01*
X134724381Y-89956147D01*
X134796159Y-90021581D01*
X134969563Y-90128948D01*
X135159744Y-90202624D01*
X135360224Y-90240100D01*
X135558447Y-90240100D01*
X135564176Y-90240100D01*
X135764656Y-90202624D01*
X135954837Y-90128948D01*
X136128241Y-90021581D01*
X136278964Y-89884179D01*
X136401873Y-89721421D01*
X136492782Y-89538850D01*
X136548597Y-89342683D01*
X136567415Y-89139600D01*
X136548597Y-88936517D01*
X136492782Y-88740350D01*
X136401873Y-88557779D01*
X136369574Y-88515008D01*
X136315821Y-88443826D01*
X136291304Y-88380541D01*
X136303775Y-88313828D01*
X136349497Y-88263673D01*
X136414775Y-88245100D01*
X144043701Y-88245100D01*
X144091154Y-88254539D01*
G37*
%TD.AperFunction*%
%TD*%
M02*
