%TF.GenerationSoftware,KiCad,Pcbnew,(7.0.0)*%
%TF.CreationDate,2023-06-28T20:41:30+03:00*%
%TF.ProjectId,Atego_Nano,41746567-6f5f-44e6-916e-6f2e6b696361,rev?*%
%TF.SameCoordinates,Original*%
%TF.FileFunction,Soldermask,Bot*%
%TF.FilePolarity,Negative*%
%FSLAX46Y46*%
G04 Gerber Fmt 4.6, Leading zero omitted, Abs format (unit mm)*
G04 Created by KiCad (PCBNEW (7.0.0)) date 2023-06-28 20:41:30*
%MOMM*%
%LPD*%
G01*
G04 APERTURE LIST*
%ADD10R,1.700000X1.700000*%
%ADD11O,1.700000X1.700000*%
%ADD12C,0.600000*%
%ADD13O,0.850000X0.600000*%
%ADD14O,1.300000X2.300000*%
%ADD15O,1.300000X2.600000*%
G04 APERTURE END LIST*
D10*
%TO.C,J603*%
X141659799Y-85431199D03*
D11*
X139119799Y-85431199D03*
X141659799Y-82891199D03*
X139119799Y-82891199D03*
X141659799Y-80351199D03*
X139119799Y-80351199D03*
%TD*%
D12*
%TO.C,J101*%
X153473600Y-75341600D03*
D13*
X147473599Y-75341599D03*
D14*
X154793599Y-76066599D03*
D15*
X154793599Y-72241599D03*
D14*
X146153599Y-76066599D03*
D15*
X146153599Y-72241599D03*
%TD*%
D10*
%TO.C,J602*%
X165509999Y-73929599D03*
D11*
X165509999Y-76469599D03*
X165509999Y-79009599D03*
X165509999Y-81549599D03*
X165509999Y-84089599D03*
X165509999Y-86629599D03*
X165509999Y-89169599D03*
X165509999Y-91709599D03*
X165509999Y-94249599D03*
X165509999Y-96789599D03*
X165509999Y-99329599D03*
X165509999Y-101869599D03*
X165509999Y-104409599D03*
X165509999Y-106949599D03*
X165509999Y-109489599D03*
%TD*%
D10*
%TO.C,J601*%
X135462199Y-73899599D03*
D11*
X135462199Y-76439599D03*
X135462199Y-78979599D03*
X135462199Y-81519599D03*
X135462199Y-84059599D03*
X135462199Y-86599599D03*
X135462199Y-89139599D03*
X135462199Y-91679599D03*
X135462199Y-94219599D03*
X135462199Y-96759599D03*
X135462199Y-99299599D03*
X135462199Y-101839599D03*
X135462199Y-104379599D03*
X135462199Y-106919599D03*
X135462199Y-109459599D03*
%TD*%
M02*
