M48
; DRILL file {KiCad (7.0.0)} date Wed Jun 28 20:41:32 2023
; FORMAT={-:-/ absolute / inch / decimal}
; #@! TF.CreationDate,2023-06-28T20:41:32+03:00
; #@! TF.GenerationSoftware,Kicad,Pcbnew,(7.0.0)
; #@! TF.FileFunction,Plated,1,2,PTH
FMAT,2
INCH
; #@! TA.AperFunction,Plated,PTH,ViaDrill
T1C0.0118
; #@! TA.AperFunction,Plated,PTH,ComponentDrill
T2C0.0118
; #@! TA.AperFunction,Plated,PTH,ComponentDrill
T3C0.0236
; #@! TA.AperFunction,Plated,PTH,ComponentDrill
T4C0.0394
%
G90
G05
T1
X5.385Y-3.56
X5.385Y-3.66
X5.4642Y-3.9144
X5.4642Y-3.9444
X5.4642Y-3.9854
X5.4742Y-2.9074
X5.495Y-3.09
X5.54Y-3.835
X5.5663Y-3.5387
X5.6112Y-4.1724
X5.6223Y-2.9074
X5.6422Y-3.3834
X5.7272Y-3.3454
X5.7326Y-4.185
X5.7482Y-3.7854
X5.7492Y-4.2834
X5.7562Y-3.4684
X5.7682Y-4.2424
X5.7822Y-3.4114
X5.7852Y-4.3244
X5.8Y-3.055
X5.8032Y-3.6567
X5.8102Y-3.3284
X5.8142Y-3.5174
X5.8142Y-3.5864
X5.8282Y-3.6224
X5.8392Y-4.1044
X5.8462Y-3.4934
X5.8462Y-3.5344
X5.8542Y-3.7094
X5.8772Y-3.5174
X5.8902Y-3.2604
X5.8912Y-3.6434
X5.9082Y-3.5344
X5.9084Y-3.4934
X5.9402Y-3.5174
X5.9542Y-3.7194
X5.9842Y-3.6944
X5.9982Y-3.3582
X6.0122Y-3.5924
X6.0192Y-3.7194
X6.04Y-3.385
X6.0442Y-3.5944
X6.0442Y-3.6564
X6.0652Y-3.4414
X6.0742Y-3.7944
X6.09Y-3.465
X6.1042Y-3.7594
X6.1102Y-3.8104
X6.14Y-4.025
X6.1592Y-3.7044
X6.1822Y-3.2134
X6.1822Y-3.2734
X6.2163Y-3.5061
X6.305Y-3.075
X6.3142Y-3.1444
X6.3532Y-4.0014
X6.3582Y-3.2434
X6.385Y-3.49
X6.3862Y-3.3614
T2
X6.2177Y-3.8611
X6.2177Y-3.8989
X6.2515Y-3.88
X6.2854Y-3.8611
X6.2854Y-3.8989
T4
X5.3332Y-2.9094
X5.3332Y-3.0094
X5.3332Y-3.1094
X5.3332Y-3.2094
X5.3332Y-3.3094
X5.3332Y-3.4094
X5.3332Y-3.5094
X5.3332Y-3.6094
X5.3332Y-3.7094
X5.3332Y-3.8094
X5.3332Y-3.9094
X5.3332Y-4.0094
X5.3332Y-4.1094
X5.3332Y-4.2094
X5.3332Y-4.3094
X5.4772Y-3.1634
X5.4772Y-3.2634
X5.4772Y-3.3634
X5.5772Y-3.1634
X5.5772Y-3.2634
X5.5772Y-3.3634
X6.5161Y-2.9106
X6.5161Y-3.0106
X6.5161Y-3.1106
X6.5161Y-3.2106
X6.5161Y-3.3106
X6.5161Y-3.4106
X6.5161Y-3.5106
X6.5161Y-3.6106
X6.5161Y-3.7106
X6.5161Y-3.8106
X6.5161Y-3.9106
X6.5161Y-4.0106
X6.5161Y-4.1106
X6.5161Y-4.2106
X6.5161Y-4.3106
T3
G00X5.7541Y-2.8697
M15
G01X5.7541Y-2.8186
M16
G05
G00X5.7541Y-3.0144
M15
G01X5.7541Y-2.9751
M16
G05
G00X6.0942Y-2.8697
M15
G01X6.0942Y-2.8186
M16
G05
G00X6.0942Y-3.0144
M15
G01X6.0942Y-2.9751
M16
G05
T0
M30
